<?xml version="1.0" standalone="no"?>
<!DOCTYPE svg PUBLIC "-//W3C//DTD SVG 1.1//EN" "http://www.w3.org/Graphics/SVG/1.1/DTD/svg11.dtd" >
<svg xmlns="http://www.w3.org/2000/svg" width="100%" height="100%">
<metadata>
Created by FontXChange 20110222 at Thu Feb 11 01:33:35 2016
 By Thiago Honório

</metadata>
<defs>
<font id="DINPro-Bold" horiz-adv-x="543" >
  <font-face 
    font-family="DINPro"
    font-weight="700"
    font-stretch="normal"
    units-per-em="1000"
    panose-1="2 11 8 4 2 1 1 2 1 2"
    ascent="764"
    descent="-236"
    x-height="521"
    cap-height="712"
    bbox="-208 -234 1167 1195"
    underline-thickness="87"
    underline-position="-48"
    stemh="124"
    stemv="130"
    unicode-range="U+000D-FB02"
  />
<missing-glyph horiz-adv-x="573" 
d="M73 0v712h427v-712h-427zM160 87h253v538h-253v-538z" />
    <glyph glyph-name=".notdef" horiz-adv-x="573" 
d="M73 0v712h427v-712h-427zM160 87h253v538h-253v-538z" />
    <glyph glyph-name=".null" horiz-adv-x="0" 
 />
    <glyph glyph-name=".null" horiz-adv-x="0" 
 />
    <glyph glyph-name="CR" unicode="&#xd;" horiz-adv-x="232" 
 />
    <glyph glyph-name="space" unicode=" " horiz-adv-x="232" 
 />
    <glyph glyph-name="exclam" unicode="!" horiz-adv-x="347" 
d="M273 712l-33 -489h-96l-32 489h161zM267 0h-149v148h149v-148z" />
    <glyph glyph-name="quotedbl" unicode="&#x22;" horiz-adv-x="464" 
d="M190 501h-122v211h122v-211zM395 501h-121v211h121v-211z" />
    <glyph glyph-name="numbersign" unicode="#" horiz-adv-x="691" 
d="M643 420h-89l-16 -108h69v-122h-89l-30 -190h-137l31 190h-116l-30 -190h-137l30 190h-69v122h89l16 108h-70v121h89l28 177h137l-28 -177h116l28 177h136l-27 -177h69v-121zM417 420h-115l-17 -108h116z" />
    <glyph glyph-name="dollar" unicode="$" horiz-adv-x="619" 
d="M571 210c0 -122 -90 -197 -215 -212v-112h-101v108c-96 3 -171 28 -236 94l90 90c42 -42 99 -58 159 -60v181l-32 4c-60 8 -108 30 -138 60c-34 34 -51 79 -51 139c0 115 78 200 208 214v90h101v-89c81 -5 143 -30 197 -82l-88 -87c-33 32 -82 45 -123 48v-174l38 -6
c65 -10 106 -28 136 -56c38 -36 55 -87 55 -150zM435 206c0 25 -7 46 -22 60c-16 15 -34 21 -71 26v-172c60 7 93 37 93 86zM268 428v167c-58 -8 -87 -44 -87 -88c0 -18 6 -37 21 -51c16 -15 38 -24 66 -28z" />
    <glyph glyph-name="percent" unicode="%" horiz-adv-x="848" 
d="M248 486v91c0 39 -18 57 -50 57c-33 0 -51 -18 -51 -57v-91c0 -39 18 -57 51 -57c32 0 50 18 50 57zM342 482c0 -90 -66 -137 -144 -137c-79 0 -146 47 -146 137v99c0 90 67 137 146 137c78 0 144 -47 144 -137v-99zM702 134v92c0 38 -18 57 -51 57s-51 -19 -51 -57v-92
c0 -38 18 -56 51 -56s51 18 51 56zM796 131c0 -91 -66 -137 -145 -137s-145 46 -145 137v99c0 90 66 137 145 137s145 -47 145 -137v-99zM644 712l-337 -712h-102l337 712h102z" />
    <glyph glyph-name="ampersand" unicode="&#x26;" horiz-adv-x="721" 
d="M696 0h-165l-52 62c-37 -30 -85 -68 -184 -68c-157 0 -235 82 -235 216c0 91 66 150 128 191c-29 33 -71 83 -71 151c0 97 71 166 190 166c112 0 182 -71 182 -168c0 -55 -29 -92 -73 -124l-51 -37l120 -142c23 31 34 74 36 125h123c-5 -92 -26 -165 -76 -221zM400 154
l-142 167c-43 -30 -72 -58 -72 -109c0 -59 48 -100 108 -100c42 0 73 13 106 42zM366 549c0 33 -22 58 -59 58c-39 0 -59 -25 -59 -58c0 -26 22 -51 47 -80l30 20c23 16 41 35 41 60z" />
    <glyph glyph-name="quotesingle" unicode="'" horiz-adv-x="259" 
d="M191 501h-123v211h123v-211z" />
    <glyph glyph-name="parenleft" unicode="(" horiz-adv-x="336" 
d="M80 138v436c0 44 3 90 26 129c22 39 53 69 88 103l88 -88c-24 -24 -39 -37 -56 -66c-10 -19 -15 -46 -15 -84v-424c0 -38 5 -65 15 -84c17 -29 32 -42 56 -66l-88 -88c-35 34 -66 64 -88 103c-24 40 -26 84 -26 129z" />
    <glyph glyph-name="parenright" unicode=")" horiz-adv-x="336" 
d="M256 138c0 -45 -2 -89 -26 -129c-22 -39 -53 -69 -88 -103l-88 88c24 24 39 37 56 66c10 19 15 46 15 84v424c0 38 -5 65 -15 84c-17 29 -32 42 -56 66l88 88c35 -34 66 -64 88 -103c23 -39 26 -85 26 -129v-436z" />
    <glyph glyph-name="asterisk" unicode="*" horiz-adv-x="494" 
d="M440 460l-46 -79l-105 66l4 -125h-92l5 125l-106 -66l-45 79l110 58l-110 58l45 80l106 -67l-5 125h92l-4 -125l105 67l46 -80l-111 -58z" />
    <glyph glyph-name="plus" unicode="+" 
d="M493 216h-160v-160h-122v160h-161v122h161v160h122v-160h160v-122z" />
    <glyph glyph-name="comma" unicode="," horiz-adv-x="279" 
d="M211 -55l-143 -110v307h143v-197z" />
    <glyph glyph-name="hyphen" unicode="-" horiz-adv-x="426" 
d="M367 225h-308v121h308v-121z" />
    <glyph glyph-name="period" unicode="." horiz-adv-x="285" 
d="M217 0h-149v148h149v-148z" />
    <glyph glyph-name="slash" unicode="/" horiz-adv-x="403" 
d="M407 786l-285 -860h-122l285 860h122z" />
    <glyph glyph-name="zero" unicode="0" 
d="M488 206c0 -136 -100 -212 -216 -212s-217 76 -217 212v300c0 136 101 212 217 212s216 -76 216 -212v-300zM358 207v297c0 60 -34 97 -86 97s-87 -37 -87 -97v-297c0 -60 35 -96 87 -96s86 36 86 96z" />
    <glyph glyph-name="one" unicode="1" 
d="M378 0h-130v572l-145 -126v140l145 126h130v-712z" />
    <glyph glyph-name="two" unicode="2" 
d="M492 0h-433v117l266 309c26 31 37 53 37 86c0 53 -31 89 -86 89c-43 0 -87 -22 -87 -91h-130c0 130 95 208 217 208c126 0 216 -79 216 -207c0 -69 -27 -106 -76 -163l-199 -231h275v-117z" />
    <glyph glyph-name="three" unicode="3" 
d="M495 206c0 -142 -104 -212 -226 -212c-116 0 -225 61 -227 210h130c2 -64 46 -93 97 -93c56 0 96 35 96 99c0 59 -36 98 -100 98h-19v113h19c63 0 90 39 90 89c0 60 -40 91 -87 91c-49 0 -85 -32 -88 -86h-130c3 127 98 203 218 203c126 0 217 -84 217 -204
c0 -77 -35 -121 -82 -146c51 -27 92 -76 92 -162z" />
    <glyph glyph-name="four" unicode="4" 
d="M512 101h-65v-101h-125v101h-291v123l244 488h142l-244 -488h149v133h125v-133h65v-123z" />
    <glyph glyph-name="five" unicode="5" 
d="M494 240c0 -80 -11 -136 -63 -188c-32 -32 -83 -58 -157 -58s-128 26 -159 57c-44 44 -54 96 -58 148h130c7 -56 33 -88 87 -88c25 0 46 7 62 23c23 23 28 61 28 106c0 82 -24 128 -87 128c-53 0 -77 -30 -86 -58h-119v402h406v-117h-288v-153c19 18 59 36 107 36
c59 0 104 -19 133 -48c56 -56 64 -123 64 -190z" />
    <glyph glyph-name="six" unicode="6" 
d="M492 216c0 -140 -96 -222 -222 -222s-222 79 -222 220c0 65 28 125 60 190l150 308h142l-148 -294c17 7 36 9 53 9c96 0 187 -79 187 -211zM362 215c0 63 -37 104 -92 104c-53 0 -92 -38 -92 -104s39 -104 92 -104s92 38 92 104z" />
    <glyph glyph-name="seven" unicode="7" 
d="M503 595l-231 -595h-141l231 595h-188v-112h-124v229h453v-117z" />
    <glyph glyph-name="eight" unicode="8" 
d="M500 207c0 -138 -102 -213 -228 -213s-228 75 -228 213c0 87 50 134 89 160c-36 25 -80 72 -80 148c0 126 100 203 219 203s218 -77 218 -203c0 -76 -44 -123 -80 -148c39 -26 90 -73 90 -160zM370 209c0 55 -43 99 -98 99s-98 -44 -98 -99s43 -98 98 -98s98 43 98 98z
M360 511c0 51 -37 90 -88 90s-89 -39 -89 -90c0 -52 38 -90 89 -90s88 38 88 90z" />
    <glyph glyph-name="nine" unicode="9" 
d="M495 498c0 -65 -27 -125 -59 -190l-151 -308h-141l148 294c-17 -7 -36 -9 -53 -9c-96 0 -188 79 -188 211c0 140 96 222 222 222s222 -79 222 -220zM365 497c0 66 -39 104 -92 104s-92 -38 -92 -104c0 -63 37 -104 92 -104c53 0 92 38 92 104z" />
    <glyph glyph-name="colon" unicode=":" horiz-adv-x="309" 
d="M241 271h-148v148h148v-148zM241 0h-148v148h148v-148z" />
    <glyph glyph-name="semicolon" unicode=";" horiz-adv-x="309" 
d="M238 -55l-142 -110v307h142v-197zM241 271h-148v148h148v-148z" />
    <glyph glyph-name="less" unicode="&#x3c;" 
d="M475 42l-406 187v113l406 187v-137l-241 -107l241 -106v-137z" />
    <glyph glyph-name="equal" unicode="=" 
d="M493 333h-443v122h443v-122zM493 116h-443v122h443v-122z" />
    <glyph glyph-name="greater" unicode="&#x3e;" 
d="M475 229l-406 -187v137l241 106l-241 107v137l406 -187v-113z" />
    <glyph glyph-name="question" unicode="?" horiz-adv-x="523" 
d="M487 518c0 -50 -21 -88 -49 -125l-74 -98c-10 -13 -18 -34 -18 -51v-21h-130v30c0 43 12 70 38 104l74 95c16 21 29 45 29 67c0 47 -31 82 -81 82c-53 0 -80 -37 -80 -83h-130c0 124 94 200 210 200c113 0 211 -73 211 -200zM350 0h-138v133h138v-133z" />
    <glyph glyph-name="at" unicode="@" horiz-adv-x="758" 
d="M700 0h-121v46c-32 -35 -65 -52 -120 -52c-52 0 -96 18 -126 50c-41 44 -47 97 -47 187c0 89 6 141 46 185c29 32 74 51 126 51c51 0 88 -16 118 -49v45c0 42 -8 75 -35 102c-26 26 -60 35 -100 35h-124c-40 0 -72 -7 -100 -35c-29 -29 -35 -60 -35 -102v-289
c0 -50 11 -70 44 -99l-90 -90c-57 51 -79 92 -79 182v299c0 81 16 143 62 189s107 61 188 61h144c78 0 141 -14 188 -61c46 -46 61 -107 61 -189v-466zM576 231c0 79 -19 128 -83 128s-82 -49 -82 -128s18 -129 82 -129s83 50 83 129z" />
    <glyph glyph-name="A" unicode="A" horiz-adv-x="638" 
d="M633 0h-145l-42 126h-253l-43 -126h-145l259 712h109zM409 243l-87 259l-90 -259h177z" />
    <glyph glyph-name="B" unicode="B" horiz-adv-x="658" 
d="M599 205c0 -133 -91 -205 -218 -205h-298v712h286c139 0 220 -78 220 -200c0 -79 -52 -130 -88 -147c43 -20 98 -65 98 -160zM460 212c0 48 -30 87 -93 87h-145v-175h145c63 0 93 40 93 88zM450 506c0 49 -33 82 -92 82h-136v-164h136c59 0 92 33 92 82z" />
    <glyph glyph-name="C" unicode="C" horiz-adv-x="620" 
d="M583 219c-26 -149 -129 -225 -261 -225c-82 0 -142 27 -191 75c-71 71 -72 151 -72 287s1 216 72 287c49 48 109 75 191 75c133 0 235 -76 261 -225h-142c-14 58 -50 101 -119 101c-38 0 -69 -14 -89 -37c-26 -30 -35 -65 -35 -201s9 -171 35 -201c20 -23 51 -37 89 -37
c69 0 106 43 120 101h141z" />
    <glyph glyph-name="D" unicode="D" horiz-adv-x="659" 
d="M600 356c0 -118 -1 -191 -45 -252c-51 -71 -118 -104 -215 -104h-257v712h257c97 0 164 -33 215 -104c44 -61 45 -134 45 -252zM461 356c0 112 -3 157 -29 188c-23 29 -57 44 -104 44h-106v-464h106c47 0 81 15 104 44c26 31 29 76 29 188z" />
    <glyph glyph-name="E" unicode="E" horiz-adv-x="605" 
d="M552 0h-469v712h469v-124h-330v-167h281v-124h-281v-173h330v-124z" />
    <glyph glyph-name="F" unicode="F" horiz-adv-x="590" 
d="M552 588h-330v-175h281v-124h-281v-289h-139v712h469v-124z" />
    <glyph glyph-name="G" unicode="G" horiz-adv-x="649" 
d="M590 292c0 -103 -16 -163 -68 -217c-59 -62 -125 -81 -201 -81c-81 0 -141 27 -190 75c-71 71 -72 151 -72 287s1 216 72 287c49 48 109 75 190 75c166 0 249 -108 268 -228h-140c-16 68 -57 104 -128 104c-38 0 -68 -15 -89 -38c-26 -30 -34 -64 -34 -200
s8 -171 34 -201c21 -23 51 -37 89 -37c43 0 77 15 99 40c23 26 32 58 32 95v26h-131v117h269v-104z" />
    <glyph glyph-name="H" unicode="H" horiz-adv-x="685" 
d="M602 0h-139v298h-241v-298h-139v712h139v-291h241v291h139v-712z" />
    <glyph glyph-name="I" unicode="I" horiz-adv-x="305" 
d="M222 0h-139v712h139v-712z" />
    <glyph glyph-name="J" unicode="J" horiz-adv-x="511" 
d="M437 234c0 -157 -119 -240 -251 -240c-77 0 -130 20 -183 73l92 91c23 -23 45 -40 91 -40c68 0 112 40 112 122v472h139v-478z" />
    <glyph glyph-name="K" unicode="K" horiz-adv-x="665" 
d="M659 0h-162l-183 324l-92 -110v-214h-139v712h139v-310l251 310h169l-236 -283z" />
    <glyph glyph-name="L" unicode="L" horiz-adv-x="575" 
d="M545 0h-462v712h139v-588h323v-124z" />
    <glyph glyph-name="M" unicode="M" horiz-adv-x="811" 
d="M728 0h-139v415l-136 -270h-94l-137 270v-415h-139v712h137l186 -385l185 385h137v-712z" />
    <glyph glyph-name="N" unicode="N" horiz-adv-x="711" 
d="M628 0h-124l-282 437v-437h-139v712h124l282 -436v436h139v-712z" />
    <glyph glyph-name="O" unicode="O" horiz-adv-x="644" 
d="M585 356c0 -136 -2 -216 -73 -287c-48 -48 -108 -75 -190 -75s-143 27 -191 75c-71 71 -72 151 -72 287s1 216 72 287c48 48 109 75 191 75s142 -27 190 -75c71 -71 73 -151 73 -287zM446 356c0 136 -9 170 -35 200c-20 23 -51 38 -89 38s-69 -15 -90 -38
c-26 -30 -34 -64 -34 -200s8 -169 34 -199c21 -23 52 -39 90 -39s69 16 89 39c26 30 35 63 35 199z" />
    <glyph glyph-name="P" unicode="P" horiz-adv-x="628" 
d="M594 490c0 -121 -87 -222 -235 -222h-137v-268h-139v712h276c148 0 235 -101 235 -222zM455 490c0 58 -40 98 -103 98h-130v-195h130c63 0 103 39 103 97z" />
    <glyph glyph-name="Q" unicode="Q" horiz-adv-x="643" 
d="M585 356c0 -115 -1 -189 -44 -252l61 -61l-73 -73l-64 62c-38 -24 -86 -38 -143 -38c-82 0 -142 27 -191 75c-71 71 -72 151 -72 287s1 216 72 287c49 48 109 75 191 75s142 -27 190 -75c71 -71 73 -151 73 -287zM446 356c0 136 -9 170 -35 200c-20 23 -51 38 -89 38
s-69 -15 -90 -38c-26 -30 -34 -64 -34 -200s8 -169 34 -199c21 -23 52 -39 90 -39c17 0 32 4 46 13l-62 61l73 74l54 -54c10 31 13 72 13 144z" />
    <glyph glyph-name="R" unicode="R" horiz-adv-x="654" 
d="M622 0h-161l-139 284h-100v-284h-139v712h279c145 0 231 -99 231 -218c0 -100 -61 -162 -130 -187zM454 494c0 55 -40 94 -101 94h-131v-188h131c61 0 101 39 101 94z" />
    <glyph glyph-name="S" unicode="S" horiz-adv-x="591" 
d="M543 210c0 -138 -114 -216 -264 -216c-108 0 -190 23 -260 94l90 90c45 -45 106 -60 171 -60c83 0 127 32 127 89c0 24 -7 44 -22 59c-14 13 -28 19 -64 24l-85 13c-63 9 -106 28 -138 59c-34 33 -51 80 -51 140c0 127 94 216 248 216c98 0 169 -24 230 -83l-88 -87
c-44 43 -99 49 -146 49c-74 0 -109 -41 -109 -90c0 -19 5 -37 20 -51c14 -13 35 -23 65 -27l85 -13c65 -9 105 -26 136 -56c38 -35 55 -86 55 -150z" />
    <glyph glyph-name="T" unicode="T" horiz-adv-x="571" 
d="M541 588h-186v-588h-139v588h-186v124h511v-124z" />
    <glyph glyph-name="U" unicode="U" horiz-adv-x="668" 
d="M596 244c0 -151 -116 -250 -262 -250s-262 99 -262 250v468h139v-463c0 -82 48 -131 123 -131s124 49 124 131v463h138v-468z" />
    <glyph glyph-name="V" unicode="V" horiz-adv-x="581" 
d="M578 712l-236 -712h-104l-235 712h144l143 -464l143 464h145z" />
    <glyph glyph-name="W" unicode="W" horiz-adv-x="887" 
d="M881 712l-191 -712h-116l-131 432l-131 -432h-116l-190 712h145l110 -449l130 449h104l130 -449l111 449h145z" />
    <glyph glyph-name="X" unicode="X" horiz-adv-x="603" 
d="M598 0h-159l-138 248l-137 -248h-159l221 365l-207 347h158l124 -230l125 230h157l-207 -347z" />
    <glyph glyph-name="Y" unicode="Y" horiz-adv-x="572" 
d="M569 712l-214 -420v-292h-138v292l-214 420h151l133 -287l131 287h151z" />
    <glyph glyph-name="Z" unicode="Z" horiz-adv-x="548" 
d="M508 0h-468v112l304 476h-291v124h455v-110l-305 -478h305v-124z" />
    <glyph glyph-name="bracketleft" unicode="[" horiz-adv-x="378" 
d="M337 -74h-257v860h257v-117h-127v-626h127v-117z" />
    <glyph glyph-name="backslash" unicode="\" horiz-adv-x="403" 
d="M403 -74h-122l-281 847h122z" />
    <glyph glyph-name="bracketright" unicode="]" horiz-adv-x="378" 
d="M299 -74h-257v116h127v628h-127v116h257v-860z" />
    <glyph glyph-name="asciicircum" unicode="^" horiz-adv-x="602" 
d="M539 389h-136l-102 188l-102 -188h-136l178 330h120z" />
    <glyph glyph-name="underscore" unicode="_" horiz-adv-x="602" 
d="M602 -178h-602v87h602v-87z" />
    <glyph glyph-name="grave" unicode="`" horiz-adv-x="500" 
d="M305 604h-87l-114 170h137z" />
    <glyph glyph-name="a" unicode="a" horiz-adv-x="534" 
d="M467 0h-127v45c-35 -35 -68 -50 -128 -50c-59 0 -103 16 -133 46c-28 29 -43 71 -43 117c0 83 57 151 180 151h121v26c0 57 -28 82 -97 82c-47 0 -72 -13 -100 -45l-82 81c51 56 100 74 187 74c147 0 222 -62 222 -184v-343zM337 192v28h-99c-52 0 -77 -21 -77 -60
c0 -36 25 -59 79 -59c32 0 55 4 77 25c15 13 20 33 20 66z" />
    <glyph glyph-name="b" unicode="b" horiz-adv-x="560" 
d="M509 261c0 -88 -4 -169 -54 -220c-29 -30 -75 -47 -126 -47c-56 0 -94 15 -130 55v-49h-126v712h130v-237c33 38 73 52 126 52c52 0 97 -17 126 -47c50 -51 54 -132 54 -219zM379 261c0 84 -10 149 -88 149s-88 -65 -88 -149s10 -150 88 -150s88 66 88 150z" />
    <glyph glyph-name="c" unicode="c" horiz-adv-x="480" 
d="M452 65c-46 -48 -100 -71 -172 -71c-104 0 -233 56 -233 267s129 266 233 266c72 0 126 -22 172 -70l-88 -88c-27 29 -50 41 -84 41c-31 0 -55 -11 -74 -34c-20 -25 -29 -60 -29 -115s9 -91 29 -116c19 -23 43 -34 74 -34c34 0 57 12 84 41z" />
    <glyph glyph-name="d" unicode="d" horiz-adv-x="561" 
d="M488 0h-127v49c-36 -40 -74 -55 -129 -55c-52 0 -98 17 -127 47c-50 51 -54 132 -54 220c0 87 4 168 54 219c29 30 74 47 126 47c53 0 93 -14 127 -52v237h130v-712zM358 261c0 84 -11 149 -89 149s-88 -65 -88 -149s10 -150 88 -150s89 66 89 150z" />
    <glyph glyph-name="e" unicode="e" horiz-adv-x="548" 
d="M501 220h-326c0 -68 40 -116 114 -116c57 0 85 17 118 49l79 -77c-53 -54 -104 -82 -198 -82c-123 0 -241 56 -241 267c0 170 92 266 227 266c145 0 227 -104 227 -252v-55zM373 309c-1 23 -3 37 -12 56c-14 31 -43 54 -87 54s-73 -23 -87 -54c-9 -19 -11 -33 -12 -56
h198z" />
    <glyph glyph-name="f" unicode="f" horiz-adv-x="342" 
d="M315 407h-96v-407h-130v407h-54v99h54v65c0 74 46 149 152 149h74v-110h-51c-31 0 -45 -17 -45 -47v-57h96v-99z" />
    <glyph glyph-name="g" unicode="g" horiz-adv-x="555" 
d="M482 19c0 -125 -89 -216 -229 -216c-80 0 -135 16 -189 68l81 82c29 -28 58 -40 102 -40c78 0 105 55 105 108v53c-34 -38 -73 -52 -124 -52s-95 17 -124 46c-49 49 -53 116 -53 207s4 157 53 206c29 29 74 46 125 46c55 0 91 -15 127 -55v49h126v-502zM352 275
c0 69 -9 135 -86 135s-85 -66 -85 -135s8 -136 85 -136s86 67 86 136z" />
    <glyph glyph-name="h" unicode="h" horiz-adv-x="573" 
d="M506 0h-130v315c0 71 -45 95 -86 95s-87 -24 -87 -95v-315h-130v712h130v-239c33 36 77 54 127 54c52 0 94 -17 123 -46c42 -42 53 -91 53 -148v-333z" />
    <glyph glyph-name="i" unicode="i" horiz-adv-x="275" 
d="M203 0h-130v506h130v-506zM204 610h-133v106h133v-106z" />
    <glyph glyph-name="j" unicode="j" horiz-adv-x="275" 
d="M203 -46c0 -74 -45 -149 -152 -149h-74v110h50c33 0 46 16 46 47v544h130v-552zM204 610h-133v106h133v-106z" />
    <glyph glyph-name="k" unicode="k" horiz-adv-x="559" 
d="M547 0h-161l-128 217l-55 -62v-155h-130v712h130v-404l173 213h157l-186 -210z" />
    <glyph glyph-name="l" unicode="l" horiz-adv-x="325" 
d="M294 0h-74c-107 0 -152 75 -152 149v563h130v-555c0 -31 13 -47 46 -47h50v-110z" />
    <glyph glyph-name="m" unicode="m" horiz-adv-x="876" 
d="M809 0h-130v315c0 71 -45 95 -86 95c-40 0 -87 -24 -87 -92v-318h-130v315c0 71 -45 95 -86 95s-87 -24 -87 -95v-315h-130v521h127v-48c34 35 82 54 130 54c58 0 105 -21 138 -66c44 46 91 66 156 66c52 0 99 -17 128 -46c42 -42 57 -91 57 -148v-333z" />
    <glyph glyph-name="n" unicode="n" horiz-adv-x="573" 
d="M506 0h-130v315c0 71 -45 95 -86 95s-87 -24 -87 -95v-315h-130v521h127v-48c34 36 82 54 130 54c52 0 94 -17 123 -46c42 -42 53 -91 53 -148v-333z" />
    <glyph glyph-name="o" unicode="o" 
d="M492 261c0 -94 -11 -154 -59 -203c-33 -34 -85 -64 -162 -64s-128 30 -161 64c-47 50 -59 109 -59 203s12 152 59 202c33 34 84 64 161 64s129 -29 162 -64c47 -50 59 -108 59 -202zM362 261c0 53 -3 100 -30 126c-15 15 -35 23 -61 23c-25 0 -45 -8 -60 -23
c-27 -26 -30 -73 -30 -126c0 -54 3 -101 30 -127c15 -15 35 -23 60 -23c26 0 46 8 61 23c27 26 30 73 30 127z" />
    <glyph glyph-name="p" unicode="p" horiz-adv-x="560" 
d="M509 261c0 -87 -4 -169 -54 -220c-29 -30 -75 -47 -126 -47c-53 0 -93 14 -126 52v-237h-130v712h126v-49c36 40 74 55 130 55c51 0 97 -17 126 -47c50 -51 54 -132 54 -219zM379 261c0 84 -10 149 -88 149s-88 -65 -88 -149s10 -150 88 -150s88 66 88 150z" />
    <glyph glyph-name="q" unicode="q" horiz-adv-x="561" 
d="M488 -191h-130v237c-34 -38 -74 -52 -127 -52c-52 0 -97 17 -126 47c-50 51 -54 133 -54 220s4 168 54 219c29 30 75 47 127 47c55 0 93 -15 129 -55v49h127v-712zM358 261c0 84 -11 149 -89 149s-88 -65 -88 -149s10 -150 88 -150s89 65 89 150z" />
    <glyph glyph-name="r" unicode="r" horiz-adv-x="455" 
d="M454 478l-98 -99c-20 20 -37 31 -69 31c-40 0 -84 -30 -84 -96v-314h-130v521h127v-50c25 30 75 56 131 56c51 0 87 -13 123 -49z" />
    <glyph glyph-name="s" unicode="s" horiz-adv-x="501" 
d="M465 164c0 -115 -98 -170 -221 -170c-82 0 -155 9 -222 75l85 85c42 -43 99 -49 139 -49c45 0 92 15 92 54c0 26 -13 44 -55 48l-84 8c-92 9 -150 50 -150 146c0 109 95 166 201 166c82 0 149 -15 199 -61l-80 -81c-30 27 -75 35 -121 35c-52 0 -74 -24 -74 -50
s15 -41 54 -45l82 -8c103 -10 155 -64 155 -153z" />
    <glyph glyph-name="t" unicode="t" horiz-adv-x="352" 
d="M307 0h-71c-106 0 -151 75 -151 149v258h-55v99h55v154h130v-154h92v-99h-92v-250c0 -30 14 -47 45 -47h47v-110z" />
    <glyph glyph-name="u" unicode="u" horiz-adv-x="573" 
d="M500 0h-127v48c-34 -36 -82 -54 -130 -54c-52 0 -94 17 -123 46c-42 42 -53 91 -53 148v333h130v-315c0 -71 45 -95 86 -95s87 24 87 95v315h130v-521z" />
    <glyph glyph-name="v" unicode="v" horiz-adv-x="493" 
d="M489 521l-191 -521h-102l-192 521h137l106 -322l105 322h137z" />
    <glyph glyph-name="w" unicode="w" horiz-adv-x="759" 
d="M755 521l-159 -521h-107l-109 327l-109 -327h-107l-160 521h138l84 -322l106 322h95l107 -322l84 322h137z" />
    <glyph glyph-name="x" unicode="x" horiz-adv-x="527" 
d="M515 0h-156l-96 156l-95 -156h-156l180 266l-173 255h156l88 -149l89 149h156l-173 -255z" />
    <glyph glyph-name="y" unicode="y" horiz-adv-x="494" 
d="M490 521l-223 -605c-11 -29 -23 -51 -39 -67c-30 -30 -69 -40 -112 -40h-51v117h30c37 0 52 9 65 47l22 64l-178 484h137l108 -322l104 322h137z" />
    <glyph glyph-name="z" unicode="z" horiz-adv-x="478" 
d="M434 0h-397v99l231 305h-218v117h384v-99l-234 -305h234v-117z" />
    <glyph glyph-name="braceleft" unicode="{" horiz-adv-x="457" 
d="M414 -74h-102c-52 0 -88 13 -112 37c-29 29 -42 66 -42 111v145c0 28 -5 48 -17 60c-11 11 -28 19 -52 19h-46v116h46c24 0 41 8 52 19c12 12 17 32 17 60v145c0 45 13 82 42 111c24 24 60 37 112 37h102v-117h-53c-30 0 -46 -3 -57 -14c-11 -12 -16 -30 -16 -64v-135
c0 -72 -43 -90 -69 -100c26 -10 69 -28 69 -100v-135c0 -34 5 -52 16 -64c11 -11 27 -14 57 -14h53v-117z" />
    <glyph glyph-name="bar" unicode="|" horiz-adv-x="350" 
d="M240 -74h-130v860h130v-860z" />
    <glyph glyph-name="braceright" unicode="}" horiz-adv-x="457" 
d="M414 298h-46c-24 0 -41 -8 -52 -19c-12 -12 -17 -32 -17 -60v-145c0 -45 -13 -82 -42 -111c-24 -24 -60 -37 -112 -37h-102v117h53c30 0 46 3 57 14c11 12 16 30 16 64v135c0 72 43 90 69 100c-26 10 -69 28 -69 100v135c0 34 -5 52 -16 64c-11 11 -27 14 -57 14h-53v117
h102c52 0 88 -13 112 -37c29 -29 42 -66 42 -111v-145c0 -28 5 -48 17 -60c11 -11 28 -19 52 -19h46v-116z" />
    <glyph glyph-name="asciitilde" unicode="~" horiz-adv-x="606" 
d="M569 281c-62 -62 -104 -86 -165 -86c-41 0 -74 11 -117 34c-29 15 -53 24 -82 24c-27 0 -49 -5 -86 -42l-82 82c62 62 103 86 164 86c41 0 74 -11 117 -34c29 -15 52 -24 81 -24c27 0 50 5 87 42z" />
    <glyph glyph-name="uni00A0" unicode="&#xa0;" horiz-adv-x="232" 
 />
    <glyph glyph-name="exclamdown" unicode="&#xa1;" horiz-adv-x="347" 
d="M236 -191h-161l32 489h97zM224 388h-137v133h137v-133z" />
    <glyph glyph-name="cent" unicode="&#xa2;" horiz-adv-x="499" 
d="M469 180c-38 -40 -80 -65 -136 -75v-105h-101v105c-105 21 -185 107 -185 261s80 240 185 261v85h101v-85c56 -10 98 -35 136 -75l-86 -84c-20 21 -37 34 -64 41v-286c27 7 44 20 64 41zM246 225v282c-15 -4 -28 -14 -38 -26c-20 -25 -31 -60 -31 -115s11 -90 31 -115
c10 -13 23 -22 38 -26z" />
    <glyph glyph-name="sterling" unicode="&#xa3;" horiz-adv-x="579" 
d="M534 0h-433v297h-61v100h61v81c0 157 119 240 251 240c77 0 129 -20 182 -73l-91 -91c-23 23 -45 40 -91 40c-68 0 -113 -40 -113 -122v-75h113v-100h-113v-173h295v-124z" />
    <glyph glyph-name="currency" unicode="&#xa4;" horiz-adv-x="669" 
d="M610 96l-85 -86l-74 73c-34 -20 -74 -32 -117 -32s-82 12 -116 32l-74 -73l-86 86l74 73c-20 34 -33 74 -33 117s13 83 33 117l-74 73l86 86l74 -73c34 20 73 32 116 32s83 -12 117 -32l74 73l85 -86l-73 -73c20 -34 32 -74 32 -117s-12 -83 -32 -117zM452 286
c0 65 -53 117 -118 117s-117 -52 -117 -117s52 -117 117 -117s118 52 118 117z" />
    <glyph glyph-name="yen" unicode="&#xa5;" horiz-adv-x="571" 
d="M568 712l-136 -270h74v-100h-125l-26 -50v-51h151v-100h-151v-141h-138v141h-152v100h152v51l-26 50h-126v100h75l-137 270h151l132 -288l132 288h150z" />
    <glyph glyph-name="brokenbar" unicode="&#xa6;" horiz-adv-x="353" 
d="M240 436h-130v350h130v-350zM240 -74h-130v350h130v-350z" />
    <glyph glyph-name="section" unicode="&#xa7;" horiz-adv-x="531" 
d="M473 274c0 -74 -53 -128 -90 -149c44 -22 81 -62 81 -139c0 -123 -99 -183 -198 -183c-97 0 -197 51 -199 178h125c2 -37 29 -63 74 -63c46 0 73 26 73 64c0 27 -16 56 -70 74l-62 21c-96 32 -146 82 -146 188c0 74 52 128 91 149c-42 22 -76 58 -76 131
c0 90 62 173 192 173c131 0 191 -76 192 -172h-122c-2 44 -31 61 -70 61c-46 0 -70 -25 -70 -59c0 -31 24 -52 67 -66l62 -20c96 -31 146 -83 146 -188zM348 269c0 34 -11 54 -25 68c-13 12 -31 21 -56 21s-45 -9 -57 -21c-14 -14 -24 -33 -24 -68c0 -36 12 -55 24 -67
s32 -21 57 -21s44 9 56 21s25 31 25 67z" />
    <glyph glyph-name="dieresis" unicode="&#xa8;" horiz-adv-x="500" 
d="M416 606h-111v125h111v-125zM195 606h-111v125h111v-125z" />
    <glyph glyph-name="copyright" unicode="&#xa9;" horiz-adv-x="844" 
d="M784 356c0 -200 -162 -362 -362 -362s-362 162 -362 362s162 362 362 362s362 -162 362 -362zM697 356c0 161 -120 281 -275 281s-276 -120 -276 -281s121 -281 276 -281s275 120 275 281zM561 212c-37 -33 -76 -52 -132 -52c-100 0 -179 68 -179 196s79 197 179 197
c56 0 94 -20 132 -53l-56 -56c-27 23 -46 32 -76 32c-63 0 -94 -47 -94 -120s31 -120 94 -120c30 0 49 9 76 32z" />
    <glyph glyph-name="ordfeminine" unicode="&#xaa;" horiz-adv-x="454" 
d="M392 296h-103v36c-28 -28 -53 -40 -101 -40c-47 0 -81 13 -105 38c-23 23 -35 55 -35 92c0 66 45 121 142 121h97v20c0 45 -22 65 -77 65c-39 0 -57 -9 -79 -34l-67 65c41 45 82 58 151 58c116 0 177 -50 177 -147v-274zM287 449v23h-81c-37 0 -56 -19 -56 -47
s18 -46 57 -46c29 0 48 3 65 19c11 10 15 26 15 51z" />
    <glyph glyph-name="guillemotleft" unicode="&#xab;" horiz-adv-x="628" 
d="M562 27l-250 248l250 248v-155l-96 -93l96 -93v-155zM283 27l-249 248l249 248v-155l-94 -93l94 -93v-155z" />
    <glyph glyph-name="logicalnot" unicode="&#xac;" 
d="M497 94h-121v145h-330v121h451v-266z" />
    <glyph glyph-name="uni00AD" unicode="&#xad;" horiz-adv-x="426" 
d="M367 225h-308v121h308v-121z" />
    <glyph glyph-name="registered" unicode="&#xae;" horiz-adv-x="844" 
d="M784 356c0 -200 -162 -362 -362 -362s-362 162 -362 362s162 362 362 362s362 -162 362 -362zM698 356c0 161 -120 281 -276 281s-276 -120 -276 -281s120 -281 276 -281s276 120 276 281zM585 164h-98l-70 149h-41v-149h-86v385h157c78 0 128 -57 128 -121
c0 -53 -34 -87 -71 -102zM489 428c0 27 -21 50 -53 50h-60v-100h60c32 0 53 23 53 50z" />
    <glyph glyph-name="macron" unicode="&#xaf;" horiz-adv-x="500" 
d="M408 623h-317v88h317v-88z" />
    <glyph glyph-name="degree" unicode="&#xb0;" horiz-adv-x="478" 
d="M423 542c0 -102 -82 -184 -184 -184s-184 82 -184 184s82 185 184 185s184 -83 184 -185zM318 542c0 45 -36 80 -80 80s-78 -35 -78 -80s35 -80 79 -80s79 35 79 80z" />
    <glyph glyph-name="plusminus" unicode="&#xb1;" 
d="M493 341h-160v-161h-122v161h-161v121h161v161h122v-161h160v-121zM493 0h-443v122h443v-122z" />
    <glyph glyph-name="twosuperior" unicode="&#xb2;" horiz-adv-x="332" 
d="M306 285h-272v85l156 171c16 17 22 29 22 47c0 26 -15 43 -42 43c-20 0 -42 -9 -42 -44h-94c0 83 61 129 136 129c78 0 136 -48 136 -128c0 -44 -19 -68 -52 -104l-105 -114h157v-85z" />
    <glyph glyph-name="threesuperior" unicode="&#xb3;" horiz-adv-x="332" 
d="M310 412c0 -89 -66 -131 -141 -131c-71 0 -141 38 -141 132h94c0 -32 21 -48 47 -48c28 0 47 18 47 50c0 28 -19 48 -49 48h-13v81h13c31 0 44 22 44 43c0 29 -20 44 -42 44c-23 0 -42 -15 -42 -42h-94c0 79 61 127 136 127c78 0 136 -52 136 -126c0 -47 -22 -70 -45 -84
c25 -16 50 -43 50 -94z" />
    <glyph glyph-name="acute" unicode="&#xb4;" horiz-adv-x="500" 
d="M396 774l-114 -170h-87l64 170h137z" />
    <glyph glyph-name="mu" unicode="&#xb5;" horiz-adv-x="576" 
d="M503 0h-127v48c-34 -36 -82 -54 -130 -54c-19 0 -34 5 -46 14v-199h-130v712h130v-315c0 -71 45 -95 86 -95s87 24 87 95v315h130v-521z" />
    <glyph glyph-name="paragraph" unicode="&#xb6;" horiz-adv-x="668" 
d="M585 -191h-130v779h-100v-779h-130v499c-100 0 -190 90 -190 201c0 131 93 203 231 203h319v-903z" />
    <glyph glyph-name="periodcentered" unicode="&#xb7;" horiz-adv-x="285" 
d="M217 212h-149v148h149v-148z" />
    <glyph glyph-name="cedilla" unicode="&#xb8;" horiz-adv-x="500" 
d="M325 -60l-44 -146h-121l69 146h96z" />
    <glyph glyph-name="onesuperior" unicode="&#xb9;" horiz-adv-x="332" 
d="M239 285h-95v321l-90 -78v106l90 78h95v-427z" />
    <glyph glyph-name="ordmasculine" unicode="&#xba;" horiz-adv-x="462" 
d="M407 504c0 -76 -10 -121 -48 -161c-26 -27 -67 -51 -128 -51s-102 24 -128 51c-38 40 -48 85 -48 161c0 75 10 122 48 162c26 27 67 51 128 51s102 -24 128 -51c38 -40 48 -87 48 -162zM302 504c0 42 -2 80 -23 101c-12 12 -28 18 -48 18s-36 -6 -48 -18
c-21 -21 -23 -59 -23 -101s2 -79 23 -100c12 -12 28 -18 48 -18s36 6 48 18c21 21 23 58 23 100z" />
    <glyph glyph-name="guillemotright" unicode="&#xbb;" horiz-adv-x="628" 
d="M595 275l-250 -248v155l94 93l-94 93v155zM316 275l-249 -248v155l95 93l-95 93v155z" />
    <glyph glyph-name="onequarter" unicode="&#xbc;" horiz-adv-x="872" 
d="M239 285h-95v321l-90 -78v106l90 78h95v-427zM655 712l-337 -712h-101l337 712h101zM857 57h-33v-57h-90v57h-176v89l143 281h103l-144 -281h74v62h90v-62h33v-89z" />
    <glyph glyph-name="onehalf" unicode="&#xbd;" horiz-adv-x="872" 
d="M239 285h-95v321l-90 -78v106l90 78h95v-427zM655 712l-337 -712h-101l337 712h101zM846 0h-272v85l156 171c16 17 22 29 22 47c0 26 -15 43 -42 43c-20 0 -42 -9 -42 -44h-94c0 83 61 129 136 129c78 0 136 -48 136 -128c0 -44 -19 -68 -52 -104l-105 -114h157v-85z" />
    <glyph glyph-name="threequarters" unicode="&#xbe;" horiz-adv-x="872" 
d="M310 412c0 -89 -66 -131 -141 -131c-71 0 -141 38 -141 132h94c0 -32 21 -48 47 -48c28 0 47 18 47 50c0 28 -19 48 -49 48h-13v81h13c31 0 44 22 44 43c0 29 -20 44 -42 44c-23 0 -42 -15 -42 -42h-94c0 79 61 127 136 127c78 0 136 -52 136 -126c0 -47 -22 -70 -45 -84
c25 -16 50 -43 50 -94zM655 712l-337 -712h-101l337 712h101zM857 57h-33v-57h-90v57h-176v89l143 281h103l-144 -281h74v62h90v-62h33v-89z" />
    <glyph glyph-name="questiondown" unicode="&#xbf;" horiz-adv-x="523" 
d="M457 4c0 -124 -95 -201 -211 -201c-113 0 -210 73 -210 200c0 50 21 88 49 125l74 99c10 13 18 34 18 51v20h130v-30c0 -43 -12 -70 -38 -104l-74 -95c-16 -21 -29 -45 -29 -67c0 -47 30 -82 80 -82c53 0 81 38 81 84h130zM311 388h-138v133h138v-133z" />
    <glyph glyph-name="Agrave" unicode="&#xc0;" horiz-adv-x="638" 
d="M633 0h-145l-42 126h-253l-43 -126h-145l259 712h109zM409 243l-87 259l-90 -259h177zM372 781h-87l-114 170h137z" />
    <glyph glyph-name="Aacute" unicode="&#xc1;" horiz-adv-x="638" 
d="M633 0h-145l-42 126h-253l-43 -126h-145l259 712h109zM409 243l-87 259l-90 -259h177zM463 951l-114 -170h-87l64 170h137z" />
    <glyph glyph-name="Acircumflex" unicode="&#xc2;" horiz-adv-x="638" 
d="M633 0h-145l-42 126h-253l-43 -126h-145l259 712h109zM409 243l-87 259l-90 -259h177zM501 781h-101l-83 91l-83 -91h-101l132 169h104z" />
    <glyph glyph-name="Atilde" unicode="&#xc3;" horiz-adv-x="638" 
d="M633 0h-145l-42 126h-253l-43 -126h-145l259 712h109zM409 243l-87 259l-90 -259h177zM497 849c-44 -44 -75 -59 -113 -59c-30 0 -50 6 -78 23c-19 11 -36 18 -56 18c-17 0 -32 -3 -58 -29l-56 57c43 44 73 59 112 59c29 0 49 -6 77 -23c20 -12 35 -18 55 -18
c17 0 32 2 59 29z" />
    <glyph glyph-name="Adieresis" unicode="&#xc4;" horiz-adv-x="638" 
d="M633 0h-145l-42 126h-253l-43 -126h-145l259 712h109zM409 243l-87 259l-90 -259h177zM485 783h-111v125h111v-125zM264 783h-111v125h111v-125z" />
    <glyph glyph-name="Aring" unicode="&#xc5;" horiz-adv-x="638" 
d="M633 0h-145l-42 126h-253l-43 -126h-145l259 712h109zM409 243l-87 259l-90 -259h177zM448 884c0 -72 -59 -131 -131 -131s-131 59 -131 131s59 131 131 131s131 -58 131 -131zM375 884c0 32 -26 58 -58 58s-58 -26 -58 -58s26 -59 58 -59s58 27 58 59z" />
    <glyph glyph-name="AE" unicode="&#xc6;" horiz-adv-x="979" 
d="M926 0h-468v156h-225l-81 -156h-149l372 712h551v-124h-330v-168h282v-124h-282v-172h330v-124zM458 273v315l-165 -315h165z" />
    <glyph glyph-name="Ccedilla" unicode="&#xc7;" horiz-adv-x="620" 
d="M583 219c-26 -149 -129 -225 -261 -225c-82 0 -142 27 -191 75c-71 71 -72 151 -72 287s1 216 72 287c49 48 109 75 191 75c133 0 235 -76 261 -225h-142c-14 58 -50 101 -119 101c-38 0 -69 -14 -89 -37c-26 -30 -35 -65 -35 -201s9 -171 35 -201c20 -23 51 -37 89 -37
c69 0 106 43 120 101h141zM379 -60l-44 -146h-121l69 146h96z" />
    <glyph glyph-name="Egrave" unicode="&#xc8;" horiz-adv-x="605" 
d="M552 0h-469v712h469v-124h-330v-167h281v-124h-281v-173h330v-124zM365 781h-87l-114 170h137z" />
    <glyph glyph-name="Eacute" unicode="&#xc9;" horiz-adv-x="605" 
d="M552 0h-469v712h469v-124h-330v-167h281v-124h-281v-173h330v-124zM455 951l-114 -170h-87l64 170h137z" />
    <glyph glyph-name="Ecircumflex" unicode="&#xca;" horiz-adv-x="605" 
d="M552 0h-469v712h469v-124h-330v-167h281v-124h-281v-173h330v-124zM494 781h-101l-83 91l-83 -91h-101l132 169h104z" />
    <glyph glyph-name="Edieresis" unicode="&#xcb;" horiz-adv-x="605" 
d="M552 0h-469v712h469v-124h-330v-167h281v-124h-281v-173h330v-124zM476 783h-111v125h111v-125zM255 783h-111v125h111v-125z" />
    <glyph glyph-name="Igrave" unicode="&#xcc;" horiz-adv-x="305" 
d="M222 0h-139v712h139v-712zM222 781h-87l-114 170h137z" />
    <glyph glyph-name="Iacute" unicode="&#xcd;" horiz-adv-x="305" 
d="M222 0h-139v712h139v-712zM284 951l-114 -170h-87l64 170h137z" />
    <glyph glyph-name="Icircumflex" unicode="&#xce;" horiz-adv-x="305" 
d="M222 0h-139v712h139v-712zM336 781h-101l-83 91l-83 -91h-101l132 169h104z" />
    <glyph glyph-name="Idieresis" unicode="&#xcf;" horiz-adv-x="305" 
d="M222 0h-139v712h139v-712zM319 783h-111v125h111v-125zM98 783h-111v125h111v-125z" />
    <glyph glyph-name="Eth" unicode="&#xd0;" horiz-adv-x="682" 
d="M623 356c0 -118 -1 -191 -45 -252c-51 -71 -118 -104 -215 -104h-257v306h-69v106h69v300h257c97 0 164 -33 215 -104c44 -61 45 -134 45 -252zM484 356c0 112 -3 157 -29 188c-23 29 -57 44 -104 44h-106v-176h116v-106h-116v-182h106c47 0 81 15 104 44
c26 31 29 76 29 188z" />
    <glyph glyph-name="Ntilde" unicode="&#xd1;" horiz-adv-x="711" 
d="M628 0h-124l-282 437v-437h-139v712h124l282 -436v436h139v-712zM536 849c-44 -44 -75 -59 -113 -59c-30 0 -50 6 -78 23c-19 11 -36 18 -56 18c-17 0 -32 -3 -58 -29l-56 57c43 44 73 59 112 59c29 0 49 -6 77 -23c20 -12 35 -18 55 -18c17 0 32 2 59 29z" />
    <glyph glyph-name="Ograve" unicode="&#xd2;" horiz-adv-x="644" 
d="M585 356c0 -136 -2 -216 -73 -287c-48 -48 -108 -75 -190 -75s-143 27 -191 75c-71 71 -72 151 -72 287s1 216 72 287c48 48 109 75 191 75s142 -27 190 -75c71 -71 73 -151 73 -287zM446 356c0 136 -9 170 -35 200c-20 23 -51 38 -89 38s-69 -15 -90 -38
c-26 -30 -34 -64 -34 -200s8 -169 34 -199c21 -23 52 -39 90 -39s69 16 89 39c26 30 35 63 35 199zM377 781h-87l-114 170h137z" />
    <glyph glyph-name="Oacute" unicode="&#xd3;" horiz-adv-x="644" 
d="M585 356c0 -136 -2 -216 -73 -287c-48 -48 -108 -75 -190 -75s-143 27 -191 75c-71 71 -72 151 -72 287s1 216 72 287c48 48 109 75 191 75s142 -27 190 -75c71 -71 73 -151 73 -287zM446 356c0 136 -9 170 -35 200c-20 23 -51 38 -89 38s-69 -15 -90 -38
c-26 -30 -34 -64 -34 -200s8 -169 34 -199c21 -23 52 -39 90 -39s69 16 89 39c26 30 35 63 35 199zM468 951l-114 -170h-87l64 170h137z" />
    <glyph glyph-name="Ocircumflex" unicode="&#xd4;" horiz-adv-x="644" 
d="M585 356c0 -136 -2 -216 -73 -287c-48 -48 -108 -75 -190 -75s-143 27 -191 75c-71 71 -72 151 -72 287s1 216 72 287c48 48 109 75 191 75s142 -27 190 -75c71 -71 73 -151 73 -287zM446 356c0 136 -9 170 -35 200c-20 23 -51 38 -89 38s-69 -15 -90 -38
c-26 -30 -34 -64 -34 -200s8 -169 34 -199c21 -23 52 -39 90 -39s69 16 89 39c26 30 35 63 35 199zM506 781h-101l-83 91l-83 -91h-101l132 169h104z" />
    <glyph glyph-name="Otilde" unicode="&#xd5;" horiz-adv-x="644" 
d="M585 356c0 -136 -2 -216 -73 -287c-48 -48 -108 -75 -190 -75s-143 27 -191 75c-71 71 -72 151 -72 287s1 216 72 287c48 48 109 75 191 75s142 -27 190 -75c71 -71 73 -151 73 -287zM446 356c0 136 -9 170 -35 200c-20 23 -51 38 -89 38s-69 -15 -90 -38
c-26 -30 -34 -64 -34 -200s8 -169 34 -199c21 -23 52 -39 90 -39s69 16 89 39c26 30 35 63 35 199zM502 849c-44 -44 -75 -59 -113 -59c-30 0 -50 6 -78 23c-19 11 -36 18 -56 18c-17 0 -32 -3 -58 -29l-56 57c43 44 73 59 112 59c29 0 49 -6 77 -23c20 -12 35 -18 55 -18
c17 0 32 2 59 29z" />
    <glyph glyph-name="Odieresis" unicode="&#xd6;" horiz-adv-x="644" 
d="M585 356c0 -136 -2 -216 -73 -287c-48 -48 -108 -75 -190 -75s-143 27 -191 75c-71 71 -72 151 -72 287s1 216 72 287c48 48 109 75 191 75s142 -27 190 -75c71 -71 73 -151 73 -287zM446 356c0 136 -9 170 -35 200c-20 23 -51 38 -89 38s-69 -15 -90 -38
c-26 -30 -34 -64 -34 -200s8 -169 34 -199c21 -23 52 -39 90 -39s69 16 89 39c26 30 35 63 35 199zM488 783h-111v125h111v-125zM267 783h-111v125h111v-125z" />
    <glyph glyph-name="multiply" unicode="&#xd7;" 
d="M494 145l-82 -82l-141 141l-140 -141l-82 82l141 141l-141 141l82 82l140 -141l141 141l82 -82l-141 -141z" />
    <glyph glyph-name="Oslash" unicode="&#xd8;" horiz-adv-x="644" 
d="M585 356c0 -136 -2 -216 -73 -287c-48 -48 -108 -75 -190 -75c-43 0 -81 7 -113 21l-29 -59h-99l53 110l-3 3c-71 71 -72 151 -72 287s1 216 72 287c48 48 109 75 191 75c43 0 80 -8 113 -22l29 60h98l-53 -110l3 -3c71 -71 73 -151 73 -287zM446 356
c0 77 -3 121 -10 150l-178 -371c18 -11 39 -17 64 -17c38 0 69 16 89 39c26 30 35 63 35 199zM198 356c0 -77 2 -121 9 -150l178 371c-18 11 -39 17 -63 17c-38 0 -69 -15 -90 -38c-26 -30 -34 -64 -34 -200z" />
    <glyph glyph-name="Ugrave" unicode="&#xd9;" horiz-adv-x="668" 
d="M596 244c0 -151 -116 -250 -262 -250s-262 99 -262 250v468h139v-463c0 -82 48 -131 123 -131s124 49 124 131v463h138v-468zM389 781h-87l-114 170h137z" />
    <glyph glyph-name="Uacute" unicode="&#xda;" horiz-adv-x="668" 
d="M596 244c0 -151 -116 -250 -262 -250s-262 99 -262 250v468h139v-463c0 -82 48 -131 123 -131s124 49 124 131v463h138v-468zM480 951l-114 -170h-87l64 170h137z" />
    <glyph glyph-name="Ucircumflex" unicode="&#xdb;" horiz-adv-x="668" 
d="M596 244c0 -151 -116 -250 -262 -250s-262 99 -262 250v468h139v-463c0 -82 48 -131 123 -131s124 49 124 131v463h138v-468zM518 781h-101l-83 91l-83 -91h-101l132 169h104z" />
    <glyph glyph-name="Udieresis" unicode="&#xdc;" horiz-adv-x="668" 
d="M596 244c0 -151 -116 -250 -262 -250s-262 99 -262 250v468h139v-463c0 -82 48 -131 123 -131s124 49 124 131v463h138v-468zM500 783h-111v125h111v-125zM279 783h-111v125h111v-125z" />
    <glyph glyph-name="Yacute" unicode="&#xdd;" horiz-adv-x="572" 
d="M569 712l-214 -420v-292h-138v292l-214 420h151l133 -287l131 287h151zM431 951l-114 -170h-87l64 170h137z" />
    <glyph glyph-name="Thorn" unicode="&#xde;" horiz-adv-x="633" 
d="M594 360c0 -121 -88 -222 -235 -222h-137v-138h-139v712h139v-131h137c147 0 235 -100 235 -221zM455 360c0 58 -40 97 -103 97h-130v-195h130c63 0 103 40 103 98z" />
    <glyph glyph-name="germandbls" unicode="&#xdf;" horiz-adv-x="574" 
d="M516 161c0 -51 -14 -91 -41 -119c-25 -26 -65 -42 -126 -42h-52v110h26c21 0 33 5 44 15c12 10 18 26 18 47v144c0 21 -5 35 -15 45c-10 11 -26 16 -45 16h-28v102h28c32 0 60 18 60 60c0 18 -6 34 -19 46c-15 13 -39 20 -70 20c-70 0 -93 -35 -93 -94v-511h-130v521
c0 139 96 197 225 197c126 0 217 -54 217 -175c0 -61 -30 -94 -61 -113c37 -18 62 -46 62 -109v-160z" />
    <glyph glyph-name="agrave" unicode="&#xe0;" horiz-adv-x="534" 
d="M467 0h-127v45c-35 -35 -68 -50 -128 -50c-59 0 -103 16 -133 46c-28 29 -43 71 -43 117c0 83 57 151 180 151h121v26c0 57 -28 82 -97 82c-47 0 -72 -13 -100 -45l-82 81c51 56 100 74 187 74c147 0 222 -62 222 -184v-343zM337 192v28h-99c-52 0 -77 -21 -77 -60
c0 -36 25 -59 79 -59c32 0 55 4 77 25c15 13 20 33 20 66zM316 604h-87l-114 170h137z" />
    <glyph glyph-name="aacute" unicode="&#xe1;" horiz-adv-x="534" 
d="M467 0h-127v45c-35 -35 -68 -50 -128 -50c-59 0 -103 16 -133 46c-28 29 -43 71 -43 117c0 83 57 151 180 151h121v26c0 57 -28 82 -97 82c-47 0 -72 -13 -100 -45l-82 81c51 56 100 74 187 74c147 0 222 -62 222 -184v-343zM337 192v28h-99c-52 0 -77 -21 -77 -60
c0 -36 25 -59 79 -59c32 0 55 4 77 25c15 13 20 33 20 66zM407 774l-114 -170h-87l64 170h137z" />
    <glyph glyph-name="acircumflex" unicode="&#xe2;" horiz-adv-x="534" 
d="M467 0h-127v45c-35 -35 -68 -50 -128 -50c-59 0 -103 16 -133 46c-28 29 -43 71 -43 117c0 83 57 151 180 151h121v26c0 57 -28 82 -97 82c-47 0 -72 -13 -100 -45l-82 81c51 56 100 74 187 74c147 0 222 -62 222 -184v-343zM337 192v28h-99c-52 0 -77 -21 -77 -60
c0 -36 25 -59 79 -59c32 0 55 4 77 25c15 13 20 33 20 66zM445 604h-101l-83 91l-83 -91h-101l132 169h104z" />
    <glyph glyph-name="atilde" unicode="&#xe3;" horiz-adv-x="534" 
d="M467 0h-127v45c-35 -35 -68 -50 -128 -50c-59 0 -103 16 -133 46c-28 29 -43 71 -43 117c0 83 57 151 180 151h121v26c0 57 -28 82 -97 82c-47 0 -72 -13 -100 -45l-82 81c51 56 100 74 187 74c147 0 222 -62 222 -184v-343zM337 192v28h-99c-52 0 -77 -21 -77 -60
c0 -36 25 -59 79 -59c32 0 55 4 77 25c15 13 20 33 20 66zM436 671c-44 -44 -74 -58 -113 -58c-29 0 -49 6 -77 22c-19 11 -36 18 -56 18c-17 0 -32 -2 -58 -28l-57 57c44 44 74 58 112 58c30 0 49 -5 78 -22c19 -12 35 -19 55 -19c17 0 32 3 58 29z" />
    <glyph glyph-name="adieresis" unicode="&#xe4;" horiz-adv-x="534" 
d="M467 0h-127v45c-35 -35 -68 -50 -128 -50c-59 0 -103 16 -133 46c-28 29 -43 71 -43 117c0 83 57 151 180 151h121v26c0 57 -28 82 -97 82c-47 0 -72 -13 -100 -45l-82 81c51 56 100 74 187 74c147 0 222 -62 222 -184v-343zM337 192v28h-99c-52 0 -77 -21 -77 -60
c0 -36 25 -59 79 -59c32 0 55 4 77 25c15 13 20 33 20 66zM428 606h-111v125h111v-125zM207 606h-111v125h111v-125z" />
    <glyph glyph-name="aring" unicode="&#xe5;" horiz-adv-x="534" 
d="M467 0h-127v45c-35 -35 -68 -50 -128 -50c-59 0 -103 16 -133 46c-28 29 -43 71 -43 117c0 83 57 151 180 151h121v26c0 57 -28 82 -97 82c-47 0 -72 -13 -100 -45l-82 81c51 56 100 74 187 74c147 0 222 -62 222 -184v-343zM337 192v28h-99c-52 0 -77 -21 -77 -60
c0 -36 25 -59 79 -59c32 0 55 4 77 25c15 13 20 33 20 66zM392 715c0 -72 -59 -131 -131 -131s-131 59 -131 131s59 131 131 131s131 -58 131 -131zM319 715c0 32 -26 58 -58 58s-58 -26 -58 -58s26 -59 58 -59s58 27 58 59z" />
    <glyph glyph-name="ae" unicode="&#xe6;" horiz-adv-x="838" 
d="M337 192v28h-99c-52 0 -77 -21 -77 -60c0 -36 25 -59 79 -59c32 0 55 4 77 25c15 13 20 33 20 66zM663 309c-1 23 -3 37 -12 56c-13 31 -43 54 -87 54s-74 -23 -87 -54c-9 -19 -11 -34 -12 -56h198zM395 67c-52 -55 -96 -73 -183 -73c-59 0 -103 17 -133 47
c-28 29 -43 71 -43 117c0 83 57 151 180 151h121v26c0 57 -28 82 -97 82c-47 0 -72 -13 -100 -45l-82 81c51 56 100 74 187 74c80 0 136 -19 171 -57c35 37 88 57 148 57c145 0 227 -104 227 -252v-55h-326c0 -68 40 -116 114 -116c57 0 85 17 118 49l79 -77
c-53 -54 -104 -82 -198 -82c-70 0 -137 20 -183 73z" />
    <glyph glyph-name="ccedilla" unicode="&#xe7;" horiz-adv-x="480" 
d="M452 65c-46 -48 -100 -71 -172 -71c-104 0 -233 56 -233 267s129 266 233 266c72 0 126 -22 172 -70l-88 -88c-27 29 -50 41 -84 41c-31 0 -55 -11 -74 -34c-20 -25 -29 -60 -29 -115s9 -91 29 -116c19 -23 43 -34 74 -34c34 0 57 12 84 41zM325 -60l-44 -146h-121
l69 146h96z" />
    <glyph glyph-name="egrave" unicode="&#xe8;" horiz-adv-x="548" 
d="M501 220h-326c0 -68 40 -116 114 -116c57 0 85 17 118 49l79 -77c-53 -54 -104 -82 -198 -82c-123 0 -241 56 -241 267c0 170 92 266 227 266c145 0 227 -104 227 -252v-55zM373 309c-1 23 -3 37 -12 56c-14 31 -43 54 -87 54s-73 -23 -87 -54c-9 -19 -11 -33 -12 -56
h198zM332 604h-87l-114 170h137z" />
    <glyph glyph-name="eacute" unicode="&#xe9;" horiz-adv-x="548" 
d="M501 220h-326c0 -68 40 -116 114 -116c57 0 85 17 118 49l79 -77c-53 -54 -104 -82 -198 -82c-123 0 -241 56 -241 267c0 170 92 266 227 266c145 0 227 -104 227 -252v-55zM373 309c-1 23 -3 37 -12 56c-14 31 -43 54 -87 54s-73 -23 -87 -54c-9 -19 -11 -33 -12 -56
h198zM423 774l-114 -170h-87l64 170h137z" />
    <glyph glyph-name="ecircumflex" unicode="&#xea;" horiz-adv-x="548" 
d="M501 220h-326c0 -68 40 -116 114 -116c57 0 85 17 118 49l79 -77c-53 -54 -104 -82 -198 -82c-123 0 -241 56 -241 267c0 170 92 266 227 266c145 0 227 -104 227 -252v-55zM373 309c-1 23 -3 37 -12 56c-14 31 -43 54 -87 54s-73 -23 -87 -54c-9 -19 -11 -33 -12 -56
h198zM461 604h-101l-83 91l-83 -91h-101l132 169h104z" />
    <glyph glyph-name="edieresis" unicode="&#xeb;" horiz-adv-x="548" 
d="M501 220h-326c0 -68 40 -116 114 -116c57 0 85 17 118 49l79 -77c-53 -54 -104 -82 -198 -82c-123 0 -241 56 -241 267c0 170 92 266 227 266c145 0 227 -104 227 -252v-55zM373 309c-1 23 -3 37 -12 56c-14 31 -43 54 -87 54s-73 -23 -87 -54c-9 -19 -11 -33 -12 -56
h198zM443 606h-111v125h111v-125zM222 606h-111v125h111v-125z" />
    <glyph glyph-name="igrave" unicode="&#xec;" horiz-adv-x="275" 
d="M203 0h-130v506h130v-506zM202 604h-87l-114 170h137z" />
    <glyph glyph-name="iacute" unicode="&#xed;" horiz-adv-x="275" 
d="M203 0h-130v506h130v-506zM273 774l-114 -170h-87l64 170h137z" />
    <glyph glyph-name="icircumflex" unicode="&#xee;" horiz-adv-x="275" 
d="M203 0h-130v506h130v-506zM321 604h-101l-83 91l-83 -91h-101l132 169h104z" />
    <glyph glyph-name="idieresis" unicode="&#xef;" horiz-adv-x="275" 
d="M203 0h-130v506h130v-506zM304 606h-111v125h111v-125zM83 606h-111v125h111v-125z" />
    <glyph glyph-name="eth" unicode="&#xf0;" 
d="M486 254c0 -92 -12 -150 -58 -198c-32 -33 -82 -62 -157 -62s-125 29 -157 62c-46 48 -58 106 -58 198c0 91 12 149 58 197c21 22 52 39 89 49c18 5 38 8 58 8c6 0 12 0 18 -1l-34 62h-114v91h68l-31 60h139l31 -60h92v-91h-46l40 -77c49 -95 62 -140 62 -238zM356 254
c0 51 -2 94 -27 120c-14 14 -34 22 -58 22s-43 -8 -57 -22c-25 -26 -28 -69 -28 -120s3 -95 28 -121c14 -14 33 -22 57 -22s44 8 58 22c25 26 27 70 27 121z" />
    <glyph glyph-name="ntilde" unicode="&#xf1;" horiz-adv-x="573" 
d="M506 0h-130v315c0 71 -45 95 -86 95s-87 -24 -87 -95v-315h-130v521h127v-48c34 36 82 54 130 54c52 0 94 -17 123 -46c42 -42 53 -91 53 -148v-333zM465 671c-44 -44 -74 -58 -113 -58c-29 0 -49 6 -77 22c-19 11 -36 18 -56 18c-17 0 -32 -2 -58 -28l-57 57
c44 44 74 58 112 58c30 0 49 -5 78 -22c19 -12 35 -19 55 -19c17 0 32 3 58 29z" />
    <glyph glyph-name="ograve" unicode="&#xf2;" 
d="M492 261c0 -94 -11 -154 -59 -203c-33 -34 -85 -64 -162 -64s-128 30 -161 64c-47 50 -59 109 -59 203s12 152 59 202c33 34 84 64 161 64s129 -29 162 -64c47 -50 59 -108 59 -202zM362 261c0 53 -3 100 -30 126c-15 15 -35 23 -61 23c-25 0 -45 -8 -60 -23
c-27 -26 -30 -73 -30 -126c0 -54 3 -101 30 -127c15 -15 35 -23 60 -23c26 0 46 8 61 23c27 26 30 73 30 127zM323 604h-87l-114 170h137z" />
    <glyph glyph-name="oacute" unicode="&#xf3;" 
d="M492 261c0 -94 -11 -154 -59 -203c-33 -34 -85 -64 -162 -64s-128 30 -161 64c-47 50 -59 109 -59 203s12 152 59 202c33 34 84 64 161 64s129 -29 162 -64c47 -50 59 -108 59 -202zM362 261c0 53 -3 100 -30 126c-15 15 -35 23 -61 23c-25 0 -45 -8 -60 -23
c-27 -26 -30 -73 -30 -126c0 -54 3 -101 30 -127c15 -15 35 -23 60 -23c26 0 46 8 61 23c27 26 30 73 30 127zM418 774l-114 -170h-87l64 170h137z" />
    <glyph glyph-name="ocircumflex" unicode="&#xf4;" 
d="M492 261c0 -94 -11 -154 -59 -203c-33 -34 -85 -64 -162 -64s-128 30 -161 64c-47 50 -59 109 -59 203s12 152 59 202c33 34 84 64 161 64s129 -29 162 -64c47 -50 59 -108 59 -202zM362 261c0 53 -3 100 -30 126c-15 15 -35 23 -61 23c-25 0 -45 -8 -60 -23
c-27 -26 -30 -73 -30 -126c0 -54 3 -101 30 -127c15 -15 35 -23 60 -23c26 0 46 8 61 23c27 26 30 73 30 127zM456 604h-101l-83 91l-83 -91h-101l132 169h104z" />
    <glyph glyph-name="otilde" unicode="&#xf5;" 
d="M492 261c0 -94 -11 -154 -59 -203c-33 -34 -85 -64 -162 -64s-128 30 -161 64c-47 50 -59 109 -59 203s12 152 59 202c33 34 84 64 161 64s129 -29 162 -64c47 -50 59 -108 59 -202zM362 261c0 53 -3 100 -30 126c-15 15 -35 23 -61 23c-25 0 -45 -8 -60 -23
c-27 -26 -30 -73 -30 -126c0 -54 3 -101 30 -127c15 -15 35 -23 60 -23c26 0 46 8 61 23c27 26 30 73 30 127zM447 671c-44 -44 -74 -58 -113 -58c-29 0 -49 6 -77 22c-19 11 -36 18 -56 18c-17 0 -32 -2 -58 -28l-57 57c44 44 74 58 112 58c30 0 49 -5 78 -22
c19 -12 35 -19 55 -19c17 0 32 3 58 29z" />
    <glyph glyph-name="odieresis" unicode="&#xf6;" 
d="M492 261c0 -94 -11 -154 -59 -203c-33 -34 -85 -64 -162 -64s-128 30 -161 64c-47 50 -59 109 -59 203s12 152 59 202c33 34 84 64 161 64s129 -29 162 -64c47 -50 59 -108 59 -202zM362 261c0 53 -3 100 -30 126c-15 15 -35 23 -61 23c-25 0 -45 -8 -60 -23
c-27 -26 -30 -73 -30 -126c0 -54 3 -101 30 -127c15 -15 35 -23 60 -23c26 0 46 8 61 23c27 26 30 73 30 127zM438 606h-111v125h111v-125zM217 606h-111v125h111v-125z" />
    <glyph glyph-name="divide" unicode="&#xf7;" 
d="M497 225h-451v121h451v-121zM337 423h-130v130h130v-130zM337 18h-130v130h130v-130z" />
    <glyph glyph-name="oslash" unicode="&#xf8;" 
d="M492 261c0 -95 -12 -154 -59 -203c-32 -34 -85 -64 -162 -64c-42 0 -76 9 -104 23l-36 -61h-79l59 101c-49 51 -60 109 -60 204c0 94 12 153 59 202c32 34 84 64 161 64c42 0 77 -8 105 -22l35 60h80l-59 -100c50 -55 60 -110 60 -204zM362 261c0 32 -2 61 -8 85
l-131 -222c13 -8 29 -13 48 -13c26 0 46 8 61 23c27 27 30 73 30 127zM320 397c-13 8 -30 13 -49 13c-26 0 -45 -8 -60 -23c-27 -27 -30 -72 -30 -126c0 -32 1 -62 7 -86z" />
    <glyph glyph-name="ugrave" unicode="&#xf9;" horiz-adv-x="573" 
d="M500 0h-127v48c-34 -36 -82 -54 -130 -54c-52 0 -94 17 -123 46c-42 42 -53 91 -53 148v333h130v-315c0 -71 45 -95 86 -95s87 24 87 95v315h130v-521zM338 604h-87l-114 170h137z" />
    <glyph glyph-name="uacute" unicode="&#xfa;" horiz-adv-x="573" 
d="M500 0h-127v48c-34 -36 -82 -54 -130 -54c-52 0 -94 17 -123 46c-42 42 -53 91 -53 148v333h130v-315c0 -71 45 -95 86 -95s87 24 87 95v315h130v-521zM429 774l-114 -170h-87l64 170h137z" />
    <glyph glyph-name="ucircumflex" unicode="&#xfb;" horiz-adv-x="573" 
d="M500 0h-127v48c-34 -36 -82 -54 -130 -54c-52 0 -94 17 -123 46c-42 42 -53 91 -53 148v333h130v-315c0 -71 45 -95 86 -95s87 24 87 95v315h130v-521zM467 604h-101l-83 91l-83 -91h-101l132 169h104z" />
    <glyph glyph-name="udieresis" unicode="&#xfc;" horiz-adv-x="573" 
d="M500 0h-127v48c-34 -36 -82 -54 -130 -54c-52 0 -94 17 -123 46c-42 42 -53 91 -53 148v333h130v-315c0 -71 45 -95 86 -95s87 24 87 95v315h130v-521zM450 606h-111v125h111v-125zM229 606h-111v125h111v-125z" />
    <glyph glyph-name="yacute" unicode="&#xfd;" horiz-adv-x="494" 
d="M490 521l-223 -605c-11 -29 -23 -51 -39 -67c-30 -30 -69 -40 -112 -40h-51v117h30c37 0 52 9 65 47l22 64l-178 484h137l108 -322l104 322h137zM390 774l-114 -170h-87l64 170h137z" />
    <glyph glyph-name="thorn" unicode="&#xfe;" horiz-adv-x="562" 
d="M509 261c0 -88 -4 -169 -54 -220c-29 -30 -74 -47 -126 -47s-93 14 -126 52v-237h-130v903h130v-237c33 38 74 52 126 52s97 -17 126 -47c50 -51 54 -131 54 -219zM379 261c0 84 -10 149 -88 149s-88 -65 -88 -149s10 -150 88 -150s88 66 88 150z" />
    <glyph glyph-name="ydieresis" unicode="&#xff;" horiz-adv-x="494" 
d="M490 521l-223 -605c-11 -29 -23 -51 -39 -67c-30 -30 -69 -40 -112 -40h-51v117h30c37 0 52 9 65 47l22 64l-178 484h137l108 -322l104 322h137zM415 606h-111v125h111v-125zM194 606h-111v125h111v-125z" />
    <glyph glyph-name="Amacron" unicode="&#x100;" horiz-adv-x="638" 
d="M633 0h-145l-42 126h-253l-43 -126h-145l259 712h109zM409 243l-87 259l-90 -259h177zM159 793v88h317v-88h-317z" />
    <glyph glyph-name="amacron" unicode="&#x101;" horiz-adv-x="534" 
d="M467 0h-127v45c-35 -35 -68 -50 -128 -50c-59 0 -103 16 -133 46c-28 29 -43 71 -43 117c0 83 57 151 180 151h121v26c0 57 -28 82 -97 82c-47 0 -72 -13 -100 -45l-82 81c51 56 100 74 187 74c147 0 222 -62 222 -184v-343zM337 192v28h-99c-52 0 -77 -21 -77 -60
c0 -36 25 -59 79 -59c32 0 55 4 77 25c15 13 20 33 20 66zM424 623h-317v88h317v-88z" />
    <glyph glyph-name="Abreve" unicode="&#x102;" horiz-adv-x="638" 
d="M633 0h-145l-42 126h-253l-43 -126h-145l259 712h109zM409 243l-87 259l-90 -259h177zM482 930c-5 -108 -78 -151 -164 -151s-160 43 -164 151h87c5 -43 39 -60 77 -60s72 17 77 60h87z" />
    <glyph glyph-name="abreve" unicode="&#x103;" horiz-adv-x="534" 
d="M467 0h-127v45c-35 -35 -68 -50 -128 -50c-59 0 -103 16 -133 46c-28 29 -43 71 -43 117c0 83 57 151 180 151h121v26c0 57 -28 82 -97 82c-47 0 -72 -13 -100 -45l-82 81c51 56 100 74 187 74c147 0 222 -62 222 -184v-343zM337 192v28h-99c-52 0 -77 -21 -77 -60
c0 -36 25 -59 79 -59c32 0 55 4 77 25c15 13 20 33 20 66zM419 748c-5 -108 -78 -151 -164 -151s-160 43 -164 151h87c5 -43 39 -60 77 -60s72 17 77 60h87z" />
    <glyph glyph-name="Aogonek" unicode="&#x104;" horiz-adv-x="638" 
d="M633 0h-145l-42 126h-253l-43 -126h-145l259 712h109zM409 243l-87 259l-90 -259h177zM584 -60l-44 -146h-121l69 146h96z" />
    <glyph glyph-name="aogonek" unicode="&#x105;" horiz-adv-x="534" 
d="M467 0h-127v45c-35 -35 -68 -50 -128 -50c-59 0 -103 16 -133 46c-28 29 -43 71 -43 117c0 83 57 151 180 151h121v26c0 57 -28 82 -97 82c-47 0 -72 -13 -100 -45l-82 81c51 56 100 74 187 74c147 0 222 -62 222 -184v-343zM337 192v28h-99c-52 0 -77 -21 -77 -60
c0 -36 25 -59 79 -59c32 0 55 4 77 25c15 13 20 33 20 66zM436 -60l-44 -146h-121l69 146h96z" />
    <glyph glyph-name="Cacute" unicode="&#x106;" horiz-adv-x="620" 
d="M583 219c-26 -149 -129 -225 -261 -225c-82 0 -142 27 -191 75c-71 71 -72 151 -72 287s1 216 72 287c49 48 109 75 191 75c133 0 235 -76 261 -225h-142c-14 58 -50 101 -119 101c-38 0 -69 -14 -89 -37c-26 -30 -35 -65 -35 -201s9 -171 35 -201c20 -23 51 -37 89 -37
c69 0 106 43 120 101h141zM456 951l-114 -170h-87l64 170h137z" />
    <glyph glyph-name="cacute" unicode="&#x107;" horiz-adv-x="480" 
d="M452 65c-46 -48 -100 -71 -172 -71c-104 0 -233 56 -233 267s129 266 233 266c72 0 126 -22 172 -70l-88 -88c-27 29 -50 41 -84 41c-31 0 -55 -11 -74 -34c-20 -25 -29 -60 -29 -115s9 -91 29 -116c19 -23 43 -34 74 -34c34 0 57 12 84 41zM411 774l-114 -170h-87
l64 170h137z" />
    <glyph glyph-name="Ccircumflex" unicode="&#x108;" horiz-adv-x="620" 
d="M583 219c-26 -149 -129 -225 -261 -225c-82 0 -142 27 -191 75c-71 71 -72 151 -72 287s1 216 72 287c49 48 109 75 191 75c133 0 235 -76 261 -225h-142c-14 58 -50 101 -119 101c-38 0 -69 -14 -89 -37c-26 -30 -35 -65 -35 -201s9 -171 35 -201c20 -23 51 -37 89 -37
c69 0 106 43 120 101h141zM506 781h-101l-83 91l-83 -91h-101l132 169h104z" />
    <glyph glyph-name="ccircumflex" unicode="&#x109;" horiz-adv-x="480" 
d="M452 65c-46 -48 -100 -71 -172 -71c-104 0 -233 56 -233 267s129 266 233 266c72 0 126 -22 172 -70l-88 -88c-27 29 -50 41 -84 41c-31 0 -55 -11 -74 -34c-20 -25 -29 -60 -29 -115s9 -91 29 -116c19 -23 43 -34 74 -34c34 0 57 12 84 41zM464 604h-101l-83 91l-83 -91
h-101l132 169h104z" />
    <glyph glyph-name="Cdotaccent" unicode="&#x10a;" horiz-adv-x="620" 
d="M583 219c-26 -149 -129 -225 -261 -225c-82 0 -142 27 -191 75c-71 71 -72 151 -72 287s1 216 72 287c49 48 109 75 191 75c133 0 235 -76 261 -225h-142c-14 58 -50 101 -119 101c-38 0 -69 -14 -89 -37c-26 -30 -35 -65 -35 -201s9 -171 35 -201c20 -23 51 -37 89 -37
c69 0 106 43 120 101h141zM261 789v116h115v-116h-115z" />
    <glyph glyph-name="cdotaccent" unicode="&#x10b;" horiz-adv-x="480" 
d="M452 65c-46 -48 -100 -71 -172 -71c-104 0 -233 56 -233 267s129 266 233 266c72 0 126 -22 172 -70l-88 -88c-27 29 -50 41 -84 41c-31 0 -55 -11 -74 -34c-20 -25 -29 -60 -29 -115s9 -91 29 -116c19 -23 43 -34 74 -34c34 0 57 12 84 41zM222 612v115h115v-115h-115z
" />
    <glyph glyph-name="Ccaron" unicode="&#x10c;" horiz-adv-x="620" 
d="M583 219c-26 -149 -129 -225 -261 -225c-82 0 -142 27 -191 75c-71 71 -72 151 -72 287s1 216 72 287c49 48 109 75 191 75c133 0 235 -76 261 -225h-142c-14 58 -50 101 -119 101c-38 0 -69 -14 -89 -37c-26 -30 -35 -65 -35 -201s9 -171 35 -201c20 -23 51 -37 89 -37
c69 0 106 43 120 101h141zM506 950l-132 -169h-104l-132 169h101l83 -90l83 90h101z" />
    <glyph glyph-name="ccaron" unicode="&#x10d;" horiz-adv-x="480" 
d="M452 65c-46 -48 -100 -71 -172 -71c-104 0 -233 56 -233 267s129 266 233 266c72 0 126 -22 172 -70l-88 -88c-27 29 -50 41 -84 41c-31 0 -55 -11 -74 -34c-20 -25 -29 -60 -29 -115s9 -91 29 -116c19 -23 43 -34 74 -34c34 0 57 12 84 41zM464 773l-132 -169h-104
l-132 169h101l83 -90l83 90h101z" />
    <glyph glyph-name="Dcaron" unicode="&#x10e;" horiz-adv-x="659" 
d="M600 356c0 -118 -1 -191 -45 -252c-51 -71 -118 -104 -215 -104h-257v712h257c97 0 164 -33 215 -104c44 -61 45 -134 45 -252zM461 356c0 112 -3 157 -29 188c-23 29 -57 44 -104 44h-106v-464h106c47 0 81 15 104 44c26 31 29 76 29 188zM513 950l-132 -169h-104
l-132 169h101l83 -90l83 90h101z" />
    <glyph glyph-name="dcaron" unicode="&#x10f;" horiz-adv-x="561" 
d="M488 0h-127v49c-36 -40 -74 -55 -129 -55c-52 0 -98 17 -127 47c-50 51 -54 132 -54 220c0 87 4 168 54 219c29 30 74 47 126 47c53 0 93 -14 127 -52v237h130v-712zM358 261c0 84 -11 149 -89 149s-88 -65 -88 -149s10 -150 88 -150s89 66 89 150zM698 741l-60 -166h-91
l36 166h115z" />
    <glyph glyph-name="Dcroat" unicode="&#x110;" horiz-adv-x="682" 
d="M623 356c0 -118 -1 -191 -45 -252c-51 -71 -118 -104 -215 -104h-257v306h-69v106h69v300h257c97 0 164 -33 215 -104c44 -61 45 -134 45 -252zM484 356c0 112 -3 157 -29 188c-23 29 -57 44 -104 44h-106v-176h116v-106h-116v-182h106c47 0 81 15 104 44
c26 31 29 76 29 188z" />
    <glyph glyph-name="dcroat" unicode="&#x111;" horiz-adv-x="581" 
d="M488 0h-127v49c-36 -40 -74 -55 -129 -55c-52 0 -98 17 -127 47c-50 51 -54 132 -54 220c0 87 4 168 54 219c29 30 74 47 126 47c53 0 93 -14 127 -52v92h-89v82h89v63h130v-63h60v-82h-60v-567zM358 261c0 84 -11 149 -89 149s-88 -65 -88 -149s10 -150 88 -150
s89 66 89 150z" />
    <glyph glyph-name="Emacron" unicode="&#x112;" horiz-adv-x="605" 
d="M552 0h-469v712h469v-124h-330v-167h281v-124h-281v-173h330v-124zM148 793v88h317v-88h-317z" />
    <glyph glyph-name="emacron" unicode="&#x113;" horiz-adv-x="548" 
d="M501 220h-326c0 -68 40 -116 114 -116c57 0 85 17 118 49l79 -77c-53 -54 -104 -82 -198 -82c-123 0 -241 56 -241 267c0 170 92 266 227 266c145 0 227 -104 227 -252v-55zM373 309c-1 23 -3 37 -12 56c-14 31 -43 54 -87 54s-73 -23 -87 -54c-9 -19 -11 -33 -12 -56
h198zM431 623h-317v88h317v-88z" />
    <glyph glyph-name="Ebreve" unicode="&#x114;" horiz-adv-x="605" 
d="M552 0h-469v712h469v-124h-330v-167h281v-124h-281v-173h330v-124zM474 930c-5 -108 -78 -151 -164 -151s-160 43 -164 151h87c5 -43 39 -60 77 -60s72 17 77 60h87z" />
    <glyph glyph-name="ebreve" unicode="&#x115;" horiz-adv-x="548" 
d="M501 220h-326c0 -68 40 -116 114 -116c57 0 85 17 118 49l79 -77c-53 -54 -104 -82 -198 -82c-123 0 -241 56 -241 267c0 170 92 266 227 266c145 0 227 -104 227 -252v-55zM373 309c-1 23 -3 37 -12 56c-14 31 -43 54 -87 54s-73 -23 -87 -54c-9 -19 -11 -33 -12 -56
h198zM441 748c-5 -108 -78 -151 -164 -151s-160 43 -164 151h87c5 -43 39 -60 77 -60s72 17 77 60h87z" />
    <glyph glyph-name="Edotaccent" unicode="&#x116;" horiz-adv-x="605" 
d="M552 0h-469v712h469v-124h-330v-167h281v-124h-281v-173h330v-124zM249 789v116h115v-116h-115z" />
    <glyph glyph-name="edotaccent" unicode="&#x117;" horiz-adv-x="548" 
d="M501 220h-326c0 -68 40 -116 114 -116c57 0 85 17 118 49l79 -77c-53 -54 -104 -82 -198 -82c-123 0 -241 56 -241 267c0 170 92 266 227 266c145 0 227 -104 227 -252v-55zM373 309c-1 23 -3 37 -12 56c-14 31 -43 54 -87 54s-73 -23 -87 -54c-9 -19 -11 -33 -12 -56
h198zM215 612v115h115v-115h-115z" />
    <glyph glyph-name="Eogonek" unicode="&#x118;" horiz-adv-x="605" 
d="M552 0h-469v712h469v-124h-330v-167h281v-124h-281v-173h330v-124zM552 -60l-44 -146h-121l69 146h96z" />
    <glyph glyph-name="eogonek" unicode="&#x119;" horiz-adv-x="548" 
d="M501 220h-326c0 -68 40 -116 114 -116c57 0 85 17 118 49l79 -77c-53 -54 -104 -82 -198 -82c-123 0 -241 56 -241 267c0 170 92 266 227 266c145 0 227 -104 227 -252v-55zM373 309c-1 23 -3 37 -12 56c-14 31 -43 54 -87 54s-73 -23 -87 -54c-9 -19 -11 -33 -12 -56
h198zM407 -60l-44 -146h-121l69 146h96z" />
    <glyph glyph-name="Ecaron" unicode="&#x11a;" horiz-adv-x="605" 
d="M552 0h-469v712h469v-124h-330v-167h281v-124h-281v-173h330v-124zM490 950l-132 -169h-104l-132 169h101l83 -90l83 90h101z" />
    <glyph glyph-name="ecaron" unicode="&#x11b;" horiz-adv-x="548" 
d="M501 220h-326c0 -68 40 -116 114 -116c57 0 85 17 118 49l79 -77c-53 -54 -104 -82 -198 -82c-123 0 -241 56 -241 267c0 170 92 266 227 266c145 0 227 -104 227 -252v-55zM373 309c-1 23 -3 37 -12 56c-14 31 -43 54 -87 54s-73 -23 -87 -54c-9 -19 -11 -33 -12 -56
h198zM458 773l-132 -169h-104l-132 169h101l83 -90l83 90h101z" />
    <glyph glyph-name="Gcircumflex" unicode="&#x11c;" horiz-adv-x="649" 
d="M590 292c0 -103 -16 -163 -68 -217c-59 -62 -125 -81 -201 -81c-81 0 -141 27 -190 75c-71 71 -72 151 -72 287s1 216 72 287c49 48 109 75 190 75c166 0 249 -108 268 -228h-140c-16 68 -57 104 -128 104c-38 0 -68 -15 -89 -38c-26 -30 -34 -64 -34 -200
s8 -171 34 -201c21 -23 51 -37 89 -37c43 0 77 15 99 40c23 26 32 58 32 95v26h-131v117h269v-104zM506 781h-101l-83 91l-83 -91h-101l132 169h104z" />
    <glyph glyph-name="gcircumflex" unicode="&#x11d;" horiz-adv-x="555" 
d="M482 19c0 -125 -89 -216 -229 -216c-80 0 -135 16 -189 68l81 82c29 -28 58 -40 102 -40c78 0 105 55 105 108v53c-34 -38 -73 -52 -124 -52s-95 17 -124 46c-49 49 -53 116 -53 207s4 157 53 206c29 29 74 46 125 46c55 0 91 -15 127 -55v49h126v-502zM352 275
c0 69 -9 135 -86 135s-85 -66 -85 -135s8 -136 85 -136s86 67 86 136zM450 604h-101l-83 91l-83 -91h-101l132 169h104z" />
    <glyph glyph-name="Gbreve" unicode="&#x11e;" horiz-adv-x="649" 
d="M590 292c0 -103 -16 -163 -68 -217c-59 -62 -125 -81 -201 -81c-81 0 -141 27 -190 75c-71 71 -72 151 -72 287s1 216 72 287c49 48 109 75 190 75c166 0 249 -108 268 -228h-140c-16 68 -57 104 -128 104c-38 0 -68 -15 -89 -38c-26 -30 -34 -64 -34 -200
s8 -171 34 -201c21 -23 51 -37 89 -37c43 0 77 15 99 40c23 26 32 58 32 95v26h-131v117h269v-104zM485 930c-5 -108 -78 -151 -164 -151s-160 43 -164 151h87c5 -43 39 -60 77 -60s72 17 77 60h87z" />
    <glyph glyph-name="gbreve" unicode="&#x11f;" horiz-adv-x="555" 
d="M482 19c0 -125 -89 -216 -229 -216c-80 0 -135 16 -189 68l81 82c29 -28 58 -40 102 -40c78 0 105 55 105 108v53c-34 -38 -73 -52 -124 -52s-95 17 -124 46c-49 49 -53 116 -53 207s4 157 53 206c29 29 74 46 125 46c55 0 91 -15 127 -55v49h126v-502zM352 275
c0 69 -9 135 -86 135s-85 -66 -85 -135s8 -136 85 -136s86 67 86 136zM430 748c-5 -108 -78 -151 -164 -151s-160 43 -164 151h87c5 -43 39 -60 77 -60s72 17 77 60h87z" />
    <glyph glyph-name="Gdotaccent" unicode="&#x120;" horiz-adv-x="649" 
d="M590 292c0 -103 -16 -163 -68 -217c-59 -62 -125 -81 -201 -81c-81 0 -141 27 -190 75c-71 71 -72 151 -72 287s1 216 72 287c49 48 109 75 190 75c166 0 249 -108 268 -228h-140c-16 68 -57 104 -128 104c-38 0 -68 -15 -89 -38c-26 -30 -34 -64 -34 -200
s8 -171 34 -201c21 -23 51 -37 89 -37c43 0 77 15 99 40c23 26 32 58 32 95v26h-131v117h269v-104zM263 789v116h115v-116h-115z" />
    <glyph glyph-name="gdotaccent" unicode="&#x121;" horiz-adv-x="555" 
d="M482 19c0 -125 -89 -216 -229 -216c-80 0 -135 16 -189 68l81 82c29 -28 58 -40 102 -40c78 0 105 55 105 108v53c-34 -38 -73 -52 -124 -52s-95 17 -124 46c-49 49 -53 116 -53 207s4 157 53 206c29 29 74 46 125 46c55 0 91 -15 127 -55v49h126v-502zM352 275
c0 69 -9 135 -86 135s-85 -66 -85 -135s8 -136 85 -136s86 67 86 136zM208 612v115h115v-115h-115z" />
    <glyph glyph-name="Gcommaaccent" unicode="&#x122;" horiz-adv-x="649" 
d="M590 292c0 -103 -16 -163 -68 -217c-59 -62 -125 -81 -201 -81c-81 0 -141 27 -190 75c-71 71 -72 151 -72 287s1 216 72 287c49 48 109 75 190 75c166 0 249 -108 268 -228h-140c-16 68 -57 104 -128 104c-38 0 -68 -15 -89 -38c-26 -30 -34 -64 -34 -200
s8 -171 34 -201c21 -23 51 -37 89 -37c43 0 77 15 99 40c23 26 32 58 32 95v26h-131v117h269v-104zM399 -60l-44 -146h-121l69 146h96z" />
    <glyph glyph-name="gcommaaccent" unicode="&#x123;" horiz-adv-x="555" 
d="M482 19c0 -125 -89 -216 -229 -216c-80 0 -135 16 -189 68l81 82c29 -28 58 -40 102 -40c78 0 105 55 105 108v53c-34 -38 -73 -52 -124 -52s-95 17 -124 46c-49 49 -53 116 -53 207s4 157 53 206c29 29 74 46 125 46c55 0 91 -15 127 -55v49h126v-502zM352 275
c0 69 -9 135 -86 135s-85 -66 -85 -135s8 -136 85 -136s86 67 86 136zM423 774l-114 -170h-87l64 170h137z" />
    <glyph glyph-name="Hcircumflex" unicode="&#x124;" horiz-adv-x="685" 
d="M602 0h-139v298h-241v-298h-139v712h139v-291h241v291h139v-712zM527 781h-101l-83 91l-83 -91h-101l132 169h104z" />
    <glyph glyph-name="hcircumflex" unicode="&#x125;" horiz-adv-x="573" 
d="M506 0h-130v315c0 71 -45 95 -86 95s-87 -24 -87 -95v-315h-130v712h130v-239c33 36 77 54 127 54c52 0 94 -17 123 -46c42 -42 53 -91 53 -148v-333zM323 781h-101l-83 91l-83 -91h-101l132 169h104z" />
    <glyph glyph-name="Hbar" unicode="&#x126;" horiz-adv-x="731" 
d="M694 508h-69v-508h-139v298h-241v-298h-139v508h-69v106h69v98h139v-98h241v98h139v-98h69v-106zM486 422v86h-241v-86h241z" />
    <glyph glyph-name="hbar" unicode="&#x127;" horiz-adv-x="588" 
d="M521 0h-130v315c0 71 -45 95 -86 95s-87 -24 -87 -95v-315h-130v567h-51v82h51v63h130v-63h85v-82h-85v-94c33 36 77 54 127 54c52 0 94 -17 123 -46c42 -42 53 -91 53 -148v-333z" />
    <glyph glyph-name="Itilde" unicode="&#x128;" horiz-adv-x="305" 
d="M222 0h-139v712h139v-712zM332 849c-44 -44 -75 -59 -113 -59c-30 0 -50 6 -78 23c-19 11 -36 18 -56 18c-17 0 -32 -3 -58 -29l-56 57c43 44 73 59 112 59c29 0 49 -6 77 -23c20 -12 35 -18 55 -18c17 0 32 2 59 29z" />
    <glyph glyph-name="itilde" unicode="&#x129;" horiz-adv-x="275" 
d="M203 0h-130v506h130v-506zM319 671c-44 -44 -74 -58 -113 -58c-29 0 -49 6 -77 22c-19 11 -36 18 -56 18c-17 0 -32 -2 -58 -28l-57 57c44 44 74 58 112 58c30 0 49 -5 78 -22c19 -12 35 -19 55 -19c17 0 32 3 58 29z" />
    <glyph glyph-name="Imacron" unicode="&#x12a;" horiz-adv-x="305" 
d="M222 0h-139v712h139v-712zM-5 793v88h317v-88h-317z" />
    <glyph glyph-name="imacron" unicode="&#x12b;" horiz-adv-x="275" 
d="M203 0h-130v506h130v-506zM296 623h-317v88h317v-88z" />
    <glyph glyph-name="Ibreve" unicode="&#x12c;" horiz-adv-x="305" 
d="M222 0h-139v712h139v-712zM316 930c-5 -108 -78 -151 -164 -151s-160 43 -164 151h87c5 -43 39 -60 77 -60s72 17 77 60h87z" />
    <glyph glyph-name="ibreve" unicode="&#x12d;" horiz-adv-x="275" 
d="M203 0h-130v506h130v-506zM302 748c-5 -108 -78 -151 -164 -151s-160 43 -164 151h87c5 -43 39 -60 77 -60s72 17 77 60h87z" />
    <glyph glyph-name="Iogonek" unicode="&#x12e;" horiz-adv-x="305" 
d="M222 0h-139v712h139v-712zM179 -60l-44 -146h-121l69 146h96z" />
    <glyph glyph-name="iogonek" unicode="&#x12f;" horiz-adv-x="275" 
d="M203 0h-130v506h130v-506zM204 610h-133v106h133v-106zM169 -60l-44 -146h-121l69 146h96z" />
    <glyph glyph-name="Idotaccent" unicode="&#x130;" horiz-adv-x="305" 
d="M222 0h-139v712h139v-712zM94 789v116h115v-116h-115z" />
    <glyph glyph-name="dotlessi" unicode="&#x131;" horiz-adv-x="275" 
d="M203 0h-130v506h130v-506z" />
    <glyph glyph-name="IJ" unicode="&#x132;" horiz-adv-x="816" 
d="M222 0h-139v712h139v-712zM742 234c0 -157 -119 -240 -251 -240c-77 0 -130 20 -183 73l92 91c23 -23 45 -40 91 -40c68 0 112 40 112 122v472h139v-478z" />
    <glyph glyph-name="ij" unicode="&#x133;" horiz-adv-x="550" 
d="M203 0h-130v506h130v-506zM204 610h-133v106h133v-106zM478 -46c0 -74 -45 -149 -152 -149h-74v110h50c33 0 46 16 46 47v544h130v-552zM479 610h-133v106h133v-106z" />
    <glyph glyph-name="Jcircumflex" unicode="&#x134;" horiz-adv-x="511" 
d="M437 234c0 -157 -119 -240 -251 -240c-77 0 -130 20 -183 73l92 91c23 -23 45 -40 91 -40c68 0 112 40 112 122v472h139v-478zM551 781h-101l-83 91l-83 -91h-101l132 169h104z" />
    <glyph glyph-name="jcircumflex" unicode="&#x135;" horiz-adv-x="275" 
d="M203 -46c0 -74 -45 -149 -152 -149h-74v110h50c33 0 46 16 46 47v544h130v-552zM322 604h-101l-83 91l-83 -91h-101l132 169h104z" />
    <glyph glyph-name="Kcommaaccent" unicode="&#x136;" horiz-adv-x="665" 
d="M659 0h-162l-183 324l-92 -110v-214h-139v712h139v-310l251 310h169l-236 -283zM431 -60l-44 -146h-121l69 146h96z" />
    <glyph glyph-name="kcommaaccent" unicode="&#x137;" horiz-adv-x="559" 
d="M547 0h-161l-128 217l-55 -62v-155h-130v712h130v-404l173 213h157l-186 -210zM354 -60l-44 -146h-121l69 146h96z" />
    <glyph glyph-name="kgreenlandic" unicode="&#x138;" horiz-adv-x="559" 
d="M547 0h-161l-128 217l-55 -62v-155h-130v521h130v-213l173 213h157l-186 -210z" />
    <glyph glyph-name="Lacute" unicode="&#x139;" horiz-adv-x="575" 
d="M545 0h-462v712h139v-588h323v-124zM284 951l-114 -170h-87l64 170h137z" />
    <glyph glyph-name="lacute" unicode="&#x13a;" horiz-adv-x="325" 
d="M294 0h-74c-107 0 -152 75 -152 149v563h130v-555c0 -31 13 -47 46 -47h50v-110zM268 951l-114 -170h-87l64 170h137z" />
    <glyph glyph-name="Lcommaaccent" unicode="&#x13b;" horiz-adv-x="575" 
d="M545 0h-462v712h139v-588h323v-124zM362 -60l-44 -146h-121l69 146h96z" />
    <glyph glyph-name="lcommaaccent" unicode="&#x13c;" horiz-adv-x="325" 
d="M294 0h-74c-107 0 -152 75 -152 149v563h130v-555c0 -31 13 -47 46 -47h50v-110zM238 -60l-44 -146h-121l69 146h96z" />
    <glyph glyph-name="Lcaron" unicode="&#x13d;" horiz-adv-x="575" 
d="M545 0h-462v712h139v-588h323v-124zM468 712l-60 -166h-91l36 166h115z" />
    <glyph glyph-name="lcaron" unicode="&#x13e;" horiz-adv-x="325" 
d="M294 0h-74c-107 0 -152 75 -152 149v563h130v-555c0 -31 13 -47 46 -47h50v-110zM409 741l-60 -166h-91l36 166h115z" />
    <glyph glyph-name="Ldot" unicode="&#x13f;" horiz-adv-x="575" 
d="M545 0h-462v712h139v-588h323v-124zM380 300v116h115v-116h-115z" />
    <glyph glyph-name="ldot" unicode="&#x140;" horiz-adv-x="414" 
d="M294 0h-74c-107 0 -152 75 -152 149v563h130v-555c0 -31 13 -47 46 -47h50v-110zM282 228v115h115v-115h-115z" />
    <glyph glyph-name="Lslash" unicode="&#x141;" horiz-adv-x="593" 
d="M563 0h-462v244l-64 -41v116l64 41v352h139v-265l128 81v-115l-128 -81v-208h323v-124z" />
    <glyph glyph-name="lslash" unicode="&#x142;" horiz-adv-x="336" 
d="M309 0h-74c-107 0 -151 75 -151 149v153l-54 -33v109l54 34v300h130v-222l60 37v-109l-60 -38v-223c0 -31 12 -47 45 -47h50v-110z" />
    <glyph glyph-name="Nacute" unicode="&#x143;" horiz-adv-x="711" 
d="M628 0h-124l-282 437v-437h-139v712h124l282 -436v436h139v-712zM501 951l-114 -170h-87l64 170h137z" />
    <glyph glyph-name="nacute" unicode="&#x144;" horiz-adv-x="573" 
d="M506 0h-130v315c0 71 -45 95 -86 95s-87 -24 -87 -95v-315h-130v521h127v-48c34 36 82 54 130 54c52 0 94 -17 123 -46c42 -42 53 -91 53 -148v-333zM429 774l-114 -170h-87l64 170h137z" />
    <glyph glyph-name="Ncommaaccent" unicode="&#x145;" horiz-adv-x="711" 
d="M628 0h-124l-282 437v-437h-139v712h124l282 -436v436h139v-712zM430 -60l-44 -146h-121l69 146h96z" />
    <glyph glyph-name="ncommaaccent" unicode="&#x146;" horiz-adv-x="573" 
d="M506 0h-130v315c0 71 -45 95 -86 95s-87 -24 -87 -95v-315h-130v521h127v-48c34 36 82 54 130 54c52 0 94 -17 123 -46c42 -42 53 -91 53 -148v-333zM361 -60l-44 -146h-121l69 146h96z" />
    <glyph glyph-name="Ncaron" unicode="&#x147;" horiz-adv-x="711" 
d="M628 0h-124l-282 437v-437h-139v712h124l282 -436v436h139v-712zM539 950l-132 -169h-104l-132 169h101l83 -90l83 90h101z" />
    <glyph glyph-name="ncaron" unicode="&#x148;" horiz-adv-x="573" 
d="M506 0h-130v315c0 71 -45 95 -86 95s-87 -24 -87 -95v-315h-130v521h127v-48c34 36 82 54 130 54c52 0 94 -17 123 -46c42 -42 53 -91 53 -148v-333zM470 773l-132 -169h-104l-132 169h101l83 -90l83 90h101z" />
    <glyph glyph-name="napostrophe" unicode="&#x149;" horiz-adv-x="573" 
d="M506 0h-130v315c0 71 -45 95 -86 95s-87 -24 -87 -95v-315h-130v521h127v-48c34 36 82 54 130 54c52 0 94 -17 123 -46c42 -42 53 -91 53 -148v-333zM75 623l-113 -88v206h113v-118z" />
    <glyph glyph-name="Eng" unicode="&#x14a;" horiz-adv-x="711" 
d="M489 23l-267 414v-437h-139v712h124l282 -436v436h139v-769c0 -74 -45 -149 -152 -149h-74v110h41c33 0 46 16 46 47v72z" />
    <glyph glyph-name="eng" unicode="&#x14b;" horiz-adv-x="573" 
d="M376 315c0 71 -45 95 -86 95s-87 -24 -87 -95v-315h-130v521h127v-48c34 36 82 54 130 54c52 0 94 -17 123 -46c42 -42 53 -91 53 -148v-390c0 -74 -45 -149 -152 -149h-74v110h50c33 0 46 16 46 47v364z" />
    <glyph glyph-name="Omacron" unicode="&#x14c;" horiz-adv-x="644" 
d="M585 356c0 -136 -2 -216 -73 -287c-48 -48 -108 -75 -190 -75s-143 27 -191 75c-71 71 -72 151 -72 287s1 216 72 287c48 48 109 75 191 75s142 -27 190 -75c71 -71 73 -151 73 -287zM446 356c0 136 -9 170 -35 200c-20 23 -51 38 -89 38s-69 -15 -90 -38
c-26 -30 -34 -64 -34 -200s8 -169 34 -199c21 -23 52 -39 90 -39s69 16 89 39c26 30 35 63 35 199zM162 793v88h317v-88h-317z" />
    <glyph glyph-name="omacron" unicode="&#x14d;" 
d="M492 261c0 -94 -11 -154 -59 -203c-33 -34 -85 -64 -162 -64s-128 30 -161 64c-47 50 -59 109 -59 203s12 152 59 202c33 34 84 64 161 64s129 -29 162 -64c47 -50 59 -108 59 -202zM362 261c0 53 -3 100 -30 126c-15 15 -35 23 -61 23c-25 0 -45 -8 -60 -23
c-27 -26 -30 -73 -30 -126c0 -54 3 -101 30 -127c15 -15 35 -23 60 -23c26 0 46 8 61 23c27 26 30 73 30 127zM429 623h-317v88h317v-88z" />
    <glyph glyph-name="Obreve" unicode="&#x14e;" horiz-adv-x="644" 
d="M585 356c0 -136 -2 -216 -73 -287c-48 -48 -108 -75 -190 -75s-143 27 -191 75c-71 71 -72 151 -72 287s1 216 72 287c48 48 109 75 191 75s142 -27 190 -75c71 -71 73 -151 73 -287zM446 356c0 136 -9 170 -35 200c-20 23 -51 38 -89 38s-69 -15 -90 -38
c-26 -30 -34 -64 -34 -200s8 -169 34 -199c21 -23 52 -39 90 -39s69 16 89 39c26 30 35 63 35 199zM486 932c-5 -108 -78 -151 -164 -151s-160 43 -164 151h87c5 -43 39 -60 77 -60s72 17 77 60h87z" />
    <glyph glyph-name="obreve" unicode="&#x14f;" 
d="M492 261c0 -94 -11 -154 -59 -203c-33 -34 -85 -64 -162 -64s-128 30 -161 64c-47 50 -59 109 -59 203s12 152 59 202c33 34 84 64 161 64s129 -29 162 -64c47 -50 59 -108 59 -202zM362 261c0 53 -3 100 -30 126c-15 15 -35 23 -61 23c-25 0 -45 -8 -60 -23
c-27 -26 -30 -73 -30 -126c0 -54 3 -101 30 -127c15 -15 35 -23 60 -23c26 0 46 8 61 23c27 26 30 73 30 127zM436 748c-5 -108 -78 -151 -164 -151s-160 43 -164 151h87c5 -43 39 -60 77 -60s72 17 77 60h87z" />
    <glyph glyph-name="Ohungarumlaut" unicode="&#x150;" horiz-adv-x="644" 
d="M585 356c0 -136 -2 -216 -73 -287c-48 -48 -108 -75 -190 -75s-143 27 -191 75c-71 71 -72 151 -72 287s1 216 72 287c48 48 109 75 191 75s142 -27 190 -75c71 -71 73 -151 73 -287zM446 356c0 136 -9 170 -35 200c-20 23 -51 38 -89 38s-69 -15 -90 -38
c-26 -30 -34 -64 -34 -200s8 -169 34 -199c21 -23 52 -39 90 -39s69 16 89 39c26 30 35 63 35 199zM359 951l-113 -170h-88l64 170h137zM561 951l-115 -170h-86l63 170h138z" />
    <glyph glyph-name="ohungarumlaut" unicode="&#x151;" 
d="M492 261c0 -94 -11 -154 -59 -203c-33 -34 -85 -64 -162 -64s-128 30 -161 64c-47 50 -59 109 -59 203s12 152 59 202c33 34 84 64 161 64s129 -29 162 -64c47 -50 59 -108 59 -202zM362 261c0 53 -3 100 -30 126c-15 15 -35 23 -61 23c-25 0 -45 -8 -60 -23
c-27 -26 -30 -73 -30 -126c0 -54 3 -101 30 -127c15 -15 35 -23 60 -23c26 0 46 8 61 23c27 26 30 73 30 127zM309 774l-113 -170h-88l64 170h137zM511 774l-115 -170h-86l63 170h138z" />
    <glyph glyph-name="OE" unicode="&#x152;" horiz-adv-x="966" 
d="M912 0h-466v44c-25 -29 -79 -50 -124 -50c-82 0 -142 27 -191 75c-71 71 -72 151 -72 287s1 216 72 287c49 48 109 75 191 75c47 0 95 -19 124 -50v44h465v-124h-326v-167h278v-124h-278v-173h327v-124zM446 356c0 136 -8 170 -35 200c-20 23 -51 38 -89 38
s-69 -15 -90 -38c-26 -30 -34 -64 -34 -200s8 -169 34 -199c21 -23 52 -39 90 -39s69 16 89 39c27 30 35 63 35 199z" />
    <glyph glyph-name="oe" unicode="&#x153;" horiz-adv-x="863" 
d="M816 220h-326c0 -68 40 -116 114 -116c57 0 85 17 117 49l80 -77c-53 -54 -104 -82 -198 -82c-68 0 -130 18 -173 67c-33 -40 -86 -67 -159 -67c-77 0 -128 30 -161 64c-47 50 -59 108 -59 203c0 94 12 152 59 202c33 34 84 64 161 64c74 0 128 -28 161 -68
c37 44 91 68 157 68c145 0 227 -106 227 -249v-58zM688 309c-1 23 -3 37 -12 56c-14 31 -43 54 -87 54s-73 -23 -87 -54c-9 -19 -11 -33 -12 -56h198zM362 261c0 53 -3 100 -30 126c-15 15 -35 23 -61 23c-25 0 -45 -8 -60 -23c-27 -26 -30 -73 -30 -126
c0 -54 3 -101 30 -127c15 -15 35 -23 60 -23c26 0 46 8 61 23c27 26 30 73 30 127z" />
    <glyph glyph-name="Racute" unicode="&#x154;" horiz-adv-x="654" 
d="M622 0h-161l-139 284h-100v-284h-139v712h279c145 0 231 -99 231 -218c0 -100 -61 -162 -130 -187zM454 494c0 55 -40 94 -101 94h-131v-188h131c61 0 101 39 101 94zM473 951l-114 -170h-87l64 170h137z" />
    <glyph glyph-name="racute" unicode="&#x155;" horiz-adv-x="455" 
d="M454 478l-98 -99c-20 20 -37 31 -69 31c-40 0 -84 -30 -84 -96v-314h-130v521h127v-50c25 30 75 56 131 56c51 0 87 -13 123 -49zM372 774l-114 -170h-87l64 170h137z" />
    <glyph glyph-name="Rcommaaccent" unicode="&#x156;" horiz-adv-x="654" 
d="M622 0h-161l-139 284h-100v-284h-139v712h279c145 0 231 -99 231 -218c0 -100 -61 -162 -130 -187zM454 494c0 55 -40 94 -101 94h-131v-188h131c61 0 101 39 101 94zM402 -60l-44 -146h-121l69 146h96z" />
    <glyph glyph-name="rcommaaccent" unicode="&#x157;" horiz-adv-x="455" 
d="M454 478l-98 -99c-20 20 -37 31 -69 31c-40 0 -84 -30 -84 -96v-314h-130v521h127v-50c25 30 75 56 131 56c51 0 87 -13 123 -49zM188 -60l-44 -146h-121l69 146h96z" />
    <glyph glyph-name="Rcaron" unicode="&#x158;" horiz-adv-x="654" 
d="M622 0h-161l-139 284h-100v-284h-139v712h279c145 0 231 -99 231 -218c0 -100 -61 -162 -130 -187zM454 494c0 55 -40 94 -101 94h-131v-188h131c61 0 101 39 101 94zM511 950l-132 -169h-104l-132 169h101l83 -90l83 90h101z" />
    <glyph glyph-name="rcaron" unicode="&#x159;" horiz-adv-x="455" 
d="M454 478l-98 -99c-20 20 -37 31 -69 31c-40 0 -84 -30 -84 -96v-314h-130v521h127v-50c25 30 75 56 131 56c51 0 87 -13 123 -49zM412 773l-132 -169h-104l-132 169h101l83 -90l83 90h101z" />
    <glyph glyph-name="Sacute" unicode="&#x15a;" horiz-adv-x="591" 
d="M543 210c0 -138 -114 -216 -264 -216c-108 0 -190 23 -260 94l90 90c45 -45 106 -60 171 -60c83 0 127 32 127 89c0 24 -7 44 -22 59c-14 13 -28 19 -64 24l-85 13c-63 9 -106 28 -138 59c-34 33 -51 80 -51 140c0 127 94 216 248 216c98 0 169 -24 230 -83l-88 -87
c-44 43 -99 49 -146 49c-74 0 -109 -41 -109 -90c0 -19 5 -37 20 -51c14 -13 35 -23 65 -27l85 -13c65 -9 105 -26 136 -56c38 -35 55 -86 55 -150zM448 951l-114 -170h-87l64 170h137z" />
    <glyph glyph-name="sacute" unicode="&#x15b;" horiz-adv-x="501" 
d="M465 164c0 -115 -98 -170 -221 -170c-82 0 -155 9 -222 75l85 85c42 -43 99 -49 139 -49c45 0 92 15 92 54c0 26 -13 44 -55 48l-84 8c-92 9 -150 50 -150 146c0 109 95 166 201 166c82 0 149 -15 199 -61l-80 -81c-30 27 -75 35 -121 35c-52 0 -74 -24 -74 -50
s15 -41 54 -45l82 -8c103 -10 155 -64 155 -153zM393 774l-114 -170h-87l64 170h137z" />
    <glyph glyph-name="Scircumflex" unicode="&#x15c;" horiz-adv-x="591" 
d="M543 210c0 -138 -114 -216 -264 -216c-108 0 -190 23 -260 94l90 90c45 -45 106 -60 171 -60c83 0 127 32 127 89c0 24 -7 44 -22 59c-14 13 -28 19 -64 24l-85 13c-63 9 -106 28 -138 59c-34 33 -51 80 -51 140c0 127 94 216 248 216c98 0 169 -24 230 -83l-88 -87
c-44 43 -99 49 -146 49c-74 0 -109 -41 -109 -90c0 -19 5 -37 20 -51c14 -13 35 -23 65 -27l85 -13c65 -9 105 -26 136 -56c38 -35 55 -86 55 -150zM480 781h-101l-83 91l-83 -91h-101l132 169h104z" />
    <glyph glyph-name="scircumflex" unicode="&#x15d;" horiz-adv-x="501" 
d="M465 164c0 -115 -98 -170 -221 -170c-82 0 -155 9 -222 75l85 85c42 -43 99 -49 139 -49c45 0 92 15 92 54c0 26 -13 44 -55 48l-84 8c-92 9 -150 50 -150 146c0 109 95 166 201 166c82 0 149 -15 199 -61l-80 -81c-30 27 -75 35 -121 35c-52 0 -74 -24 -74 -50
s15 -41 54 -45l82 -8c103 -10 155 -64 155 -153zM446 604h-101l-83 91l-83 -91h-101l132 169h104z" />
    <glyph glyph-name="Scedilla" unicode="&#x15e;" horiz-adv-x="591" 
d="M543 210c0 -138 -114 -216 -264 -216c-108 0 -190 23 -260 94l90 90c45 -45 106 -60 171 -60c83 0 127 32 127 89c0 24 -7 44 -22 59c-14 13 -28 19 -64 24l-85 13c-63 9 -106 28 -138 59c-34 33 -51 80 -51 140c0 127 94 216 248 216c98 0 169 -24 230 -83l-88 -87
c-44 43 -99 49 -146 49c-74 0 -109 -41 -109 -90c0 -19 5 -37 20 -51c14 -13 35 -23 65 -27l85 -13c65 -9 105 -26 136 -56c38 -35 55 -86 55 -150zM370 -60l-44 -146h-121l69 146h96z" />
    <glyph glyph-name="scedilla" unicode="&#x15f;" horiz-adv-x="501" 
d="M465 164c0 -115 -98 -170 -221 -170c-82 0 -155 9 -222 75l85 85c42 -43 99 -49 139 -49c45 0 92 15 92 54c0 26 -13 44 -55 48l-84 8c-92 9 -150 50 -150 146c0 109 95 166 201 166c82 0 149 -15 199 -61l-80 -81c-30 27 -75 35 -121 35c-52 0 -74 -24 -74 -50
s15 -41 54 -45l82 -8c103 -10 155 -64 155 -153zM325 -60l-44 -146h-121l69 146h96z" />
    <glyph glyph-name="Scaron" unicode="&#x160;" horiz-adv-x="591" 
d="M543 210c0 -138 -114 -216 -264 -216c-108 0 -190 23 -260 94l90 90c45 -45 106 -60 171 -60c83 0 127 32 127 89c0 24 -7 44 -22 59c-14 13 -28 19 -64 24l-85 13c-63 9 -106 28 -138 59c-34 33 -51 80 -51 140c0 127 94 216 248 216c98 0 169 -24 230 -83l-88 -87
c-44 43 -99 49 -146 49c-74 0 -109 -41 -109 -90c0 -19 5 -37 20 -51c14 -13 35 -23 65 -27l85 -13c65 -9 105 -26 136 -56c38 -35 55 -86 55 -150zM478 950l-132 -169h-104l-132 169h101l83 -90l83 90h101z" />
    <glyph glyph-name="scaron" unicode="&#x161;" horiz-adv-x="501" 
d="M465 164c0 -115 -98 -170 -221 -170c-82 0 -155 9 -222 75l85 85c42 -43 99 -49 139 -49c45 0 92 15 92 54c0 26 -13 44 -55 48l-84 8c-92 9 -150 50 -150 146c0 109 95 166 201 166c82 0 149 -15 199 -61l-80 -81c-30 27 -75 35 -121 35c-52 0 -74 -24 -74 -50
s15 -41 54 -45l82 -8c103 -10 155 -64 155 -153zM434 773l-132 -169h-104l-132 169h101l83 -90l83 90h101z" />
    <glyph glyph-name="Tcommaaccent" unicode="&#x162;" horiz-adv-x="571" 
d="M541 588h-186v-588h-139v588h-186v124h511v-124zM333 -60l-44 -146h-121l69 146h96z" />
    <glyph glyph-name="tcommaaccent" unicode="&#x163;" horiz-adv-x="352" 
d="M307 0h-71c-106 0 -151 75 -151 149v258h-55v99h55v154h130v-154h92v-99h-92v-250c0 -30 14 -47 45 -47h47v-110zM251 -60l-44 -146h-121l69 146h96z" />
    <glyph glyph-name="Tcaron" unicode="&#x164;" horiz-adv-x="571" 
d="M541 588h-186v-588h-139v588h-186v124h511v-124zM461 950l-132 -169h-104l-132 169h101l83 -90l83 90h101z" />
    <glyph glyph-name="tcaron" unicode="&#x165;" horiz-adv-x="352" 
d="M307 0h-71c-106 0 -151 75 -151 149v258h-55v99h55v154h130v-154h92v-99h-92v-250c0 -30 14 -47 45 -47h47v-110zM425 741l-60 -166h-91l36 166h115z" />
    <glyph glyph-name="Tbar" unicode="&#x166;" horiz-adv-x="571" 
d="M541 588h-186v-176h92v-106h-92v-306h-139v306h-93v106h93v176h-186v124h511v-124z" />
    <glyph glyph-name="tbar" unicode="&#x167;" horiz-adv-x="352" 
d="M307 0h-71c-106 0 -151 75 -151 149v88h-55v99h55v71h-55v99h55v154h130v-154h92v-99h-92v-71h92v-99h-92v-80c0 -30 14 -47 45 -47h47v-110z" />
    <glyph glyph-name="Utilde" unicode="&#x168;" horiz-adv-x="668" 
d="M596 244c0 -151 -116 -250 -262 -250s-262 99 -262 250v468h139v-463c0 -82 48 -131 123 -131s124 49 124 131v463h138v-468zM514 849c-44 -44 -75 -59 -113 -59c-30 0 -50 6 -78 23c-19 11 -36 18 -56 18c-17 0 -32 -3 -58 -29l-56 57c43 44 73 59 112 59
c29 0 49 -6 77 -23c20 -12 35 -18 55 -18c17 0 32 2 59 29z" />
    <glyph glyph-name="utilde" unicode="&#x169;" horiz-adv-x="573" 
d="M500 0h-127v48c-34 -36 -82 -54 -130 -54c-52 0 -94 17 -123 46c-42 42 -53 91 -53 148v333h130v-315c0 -71 45 -95 86 -95s87 24 87 95v315h130v-521zM465 671c-44 -44 -74 -58 -113 -58c-29 0 -49 6 -77 22c-19 11 -36 18 -56 18c-17 0 -32 -2 -58 -28l-57 57
c44 44 74 58 112 58c30 0 49 -5 78 -22c19 -12 35 -19 55 -19c17 0 32 3 58 29z" />
    <glyph glyph-name="Umacron" unicode="&#x16a;" horiz-adv-x="668" 
d="M596 244c0 -151 -116 -250 -262 -250s-262 99 -262 250v468h139v-463c0 -82 48 -131 123 -131s124 49 124 131v463h138v-468zM175 793v88h317v-88h-317z" />
    <glyph glyph-name="umacron" unicode="&#x16b;" horiz-adv-x="573" 
d="M500 0h-127v48c-34 -36 -82 -54 -130 -54c-52 0 -94 17 -123 46c-42 42 -53 91 -53 148v333h130v-315c0 -71 45 -95 86 -95s87 24 87 95v315h130v-521zM444 623h-317v88h317v-88z" />
    <glyph glyph-name="Ubreve" unicode="&#x16c;" horiz-adv-x="668" 
d="M596 244c0 -151 -116 -250 -262 -250s-262 99 -262 250v468h139v-463c0 -82 48 -131 123 -131s124 49 124 131v463h138v-468zM498 930c-5 -108 -78 -151 -164 -151s-160 43 -164 151h87c5 -43 39 -60 77 -60s72 17 77 60h87z" />
    <glyph glyph-name="ubreve" unicode="&#x16d;" horiz-adv-x="573" 
d="M500 0h-127v48c-34 -36 -82 -54 -130 -54c-52 0 -94 17 -123 46c-42 42 -53 91 -53 148v333h130v-315c0 -71 45 -95 86 -95s87 24 87 95v315h130v-521zM447 748c-5 -108 -78 -151 -164 -151s-160 43 -164 151h87c5 -43 39 -60 77 -60s72 17 77 60h87z" />
    <glyph glyph-name="Uring" unicode="&#x16e;" horiz-adv-x="668" 
d="M596 244c0 -151 -116 -250 -262 -250s-262 99 -262 250v468h139v-463c0 -82 48 -131 123 -131s124 49 124 131v463h138v-468zM465 892c0 -72 -59 -131 -131 -131s-131 59 -131 131s59 131 131 131s131 -58 131 -131zM392 892c0 32 -26 58 -58 58s-58 -26 -58 -58
s26 -59 58 -59s58 27 58 59z" />
    <glyph glyph-name="uring" unicode="&#x16f;" horiz-adv-x="573" 
d="M500 0h-127v48c-34 -36 -82 -54 -130 -54c-52 0 -94 17 -123 46c-42 42 -53 91 -53 148v333h130v-315c0 -71 45 -95 86 -95s87 24 87 95v315h130v-521zM417 715c0 -72 -59 -131 -131 -131s-131 59 -131 131s59 131 131 131s131 -58 131 -131zM344 715c0 32 -26 58 -58 58
s-58 -26 -58 -58s26 -59 58 -59s58 27 58 59z" />
    <glyph glyph-name="Uhungarumlaut" unicode="&#x170;" horiz-adv-x="668" 
d="M596 244c0 -151 -116 -250 -262 -250s-262 99 -262 250v468h139v-463c0 -82 48 -131 123 -131s124 49 124 131v463h138v-468zM364 951l-113 -170h-88l64 170h137zM566 951l-115 -170h-86l63 170h138z" />
    <glyph glyph-name="uhungarumlaut" unicode="&#x171;" horiz-adv-x="573" 
d="M500 0h-127v48c-34 -36 -82 -54 -130 -54c-52 0 -94 17 -123 46c-42 42 -53 91 -53 148v333h130v-315c0 -71 45 -95 86 -95s87 24 87 95v315h130v-521zM316 774l-113 -170h-88l64 170h137zM518 774l-115 -170h-86l63 170h138z" />
    <glyph glyph-name="Uogonek" unicode="&#x172;" horiz-adv-x="668" 
d="M596 244c0 -151 -116 -250 -262 -250s-262 99 -262 250v468h139v-463c0 -82 48 -131 123 -131s124 49 124 131v463h138v-468zM500 -60l-44 -146h-121l69 146h96z" />
    <glyph glyph-name="uogonek" unicode="&#x173;" horiz-adv-x="573" 
d="M500 0h-127v48c-34 -36 -82 -54 -130 -54c-52 0 -94 17 -123 46c-42 42 -53 91 -53 148v333h130v-315c0 -71 45 -95 86 -95s87 24 87 95v315h130v-521zM469 -60l-44 -146h-121l69 146h96z" />
    <glyph glyph-name="Wcircumflex" unicode="&#x174;" horiz-adv-x="887" 
d="M881 712l-191 -712h-116l-131 432l-131 -432h-116l-190 712h145l110 -449l130 449h104l130 -449l111 449h145zM627 781h-101l-83 91l-83 -91h-101l132 169h104z" />
    <glyph glyph-name="wcircumflex" unicode="&#x175;" horiz-adv-x="759" 
d="M755 521l-159 -521h-107l-109 327l-109 -327h-107l-160 521h138l84 -322l106 322h95l107 -322l84 322h137zM564 604h-101l-83 91l-83 -91h-101l132 169h104z" />
    <glyph glyph-name="Ycircumflex" unicode="&#x176;" horiz-adv-x="572" 
d="M569 712l-214 -420v-292h-138v292l-214 420h151l133 -287l131 287h151zM470 781h-101l-83 91l-83 -91h-101l132 169h104z" />
    <glyph glyph-name="ycircumflex" unicode="&#x177;" horiz-adv-x="494" 
d="M490 521l-223 -605c-11 -29 -23 -51 -39 -67c-30 -30 -69 -40 -112 -40h-51v117h30c37 0 52 9 65 47l22 64l-178 484h137l108 -322l104 322h137zM433 604h-101l-83 91l-83 -91h-101l132 169h104z" />
    <glyph glyph-name="Ydieresis" unicode="&#x178;" horiz-adv-x="572" 
d="M569 712l-214 -420v-292h-138v292l-214 420h151l133 -287l131 287h151zM452 783h-111v125h111v-125zM231 783h-111v125h111v-125z" />
    <glyph glyph-name="Zacute" unicode="&#x179;" horiz-adv-x="548" 
d="M508 0h-468v112l304 476h-291v124h455v-110l-305 -478h305v-124zM428 951l-114 -170h-87l64 170h137z" />
    <glyph glyph-name="zacute" unicode="&#x17a;" horiz-adv-x="478" 
d="M434 0h-397v99l231 305h-218v117h384v-99l-234 -305h234v-117zM381 774l-114 -170h-87l64 170h137z" />
    <glyph glyph-name="Zdotaccent" unicode="&#x17b;" horiz-adv-x="548" 
d="M508 0h-468v112l304 476h-291v124h455v-110l-305 -478h305v-124zM215 789v116h115v-116h-115z" />
    <glyph glyph-name="zdotaccent" unicode="&#x17c;" horiz-adv-x="478" 
d="M434 0h-397v99l231 305h-218v117h384v-99l-234 -305h234v-117zM182 612v115h115v-115h-115z" />
    <glyph glyph-name="Zcaron" unicode="&#x17d;" horiz-adv-x="548" 
d="M508 0h-468v112l304 476h-291v124h455v-110l-305 -478h305v-124zM461 950l-132 -169h-104l-132 169h101l83 -90l83 90h101z" />
    <glyph glyph-name="zcaron" unicode="&#x17e;" horiz-adv-x="478" 
d="M434 0h-397v99l231 305h-218v117h384v-99l-234 -305h234v-117zM426 773l-132 -169h-104l-132 169h101l83 -90l83 90h101z" />
    <glyph glyph-name="longs" unicode="&#x17f;" horiz-adv-x="275" 
d="M203 563v-563h-130v571c0 74 46 149 152 149h74v-110h-51c-31 0 -45 -17 -45 -47z" />
    <glyph glyph-name="uni018F" unicode="&#x18f;" horiz-adv-x="649" 
d="M590 356c0 -136 -1 -217 -72 -287c-49 -48 -109 -75 -190 -75c-77 0 -143 20 -201 81c-52 55 -68 114 -68 217v104h391c-1 101 -10 132 -34 160c-20 23 -50 38 -88 38c-71 0 -112 -36 -128 -104h-140c18 120 102 228 268 228c81 0 141 -27 190 -75
c69 -68 72 -151 72 -287zM449 279h-252v-26c0 -37 9 -69 32 -95c22 -25 56 -40 99 -40c38 0 68 14 88 37c22 24 30 51 33 124z" />
    <glyph glyph-name="florin" unicode="&#x192;" horiz-adv-x="427" 
d="M397 610h-69c-31 0 -49 -17 -54 -47l-29 -166h96v-100h-113l-87 -488h-130l87 488h-67v100h84l31 174c15 87 83 148 174 148h77v-109z" />
    <glyph glyph-name="uni01B5" unicode="&#x1b5;" horiz-adv-x="548" 
d="M508 0h-468v112l124 195h-50v106h118l112 175h-291v124h455v-110l-121 -189h51v-106h-118l-117 -183h305v-124z" />
    <glyph glyph-name="uni01B6" unicode="&#x1b6;" horiz-adv-x="478" 
d="M434 0h-397v99l90 119h-23v82h85l79 104h-218v117h384v-99l-94 -122h43v-82h-106l-77 -101h234v-117z" />
    <glyph glyph-name="uni01C4" unicode="&#x1c4;" horiz-adv-x="1207" 
d="M600 356c0 -118 -1 -191 -45 -252c-51 -71 -118 -104 -215 -104h-257v712h257c97 0 164 -33 215 -104c44 -61 45 -134 45 -252zM461 356c0 112 -3 157 -29 188c-23 29 -57 44 -104 44h-106v-464h106c47 0 81 15 104 44c26 31 29 76 29 188zM1167 0h-468v112l304 476h-291
v124h455v-110l-305 -478h305v-124zM1120 950l-132 -169h-104l-132 169h101l83 -90l83 90h101z" />
    <glyph glyph-name="uni01C5" unicode="&#x1c5;" horiz-adv-x="1137" 
d="M600 356c0 -118 -1 -191 -45 -252c-51 -71 -118 -104 -215 -104h-257v712h257c97 0 164 -33 215 -104c44 -61 45 -134 45 -252zM461 356c0 112 -3 157 -29 188c-23 29 -57 44 -104 44h-106v-464h106c47 0 81 15 104 44c26 31 29 76 29 188zM1093 0h-397v99l231 305h-218
v117h384v-99l-234 -305h234v-117zM1085 773l-132 -169h-104l-132 169h101l83 -90l83 90h101z" />
    <glyph glyph-name="uni01C6" unicode="&#x1c6;" horiz-adv-x="1039" 
d="M488 0h-127v49c-36 -40 -74 -55 -129 -55c-52 0 -98 17 -127 47c-50 51 -54 132 -54 220c0 87 4 168 54 219c29 30 74 47 126 47c53 0 93 -14 127 -52v237h130v-712zM358 261c0 84 -11 149 -89 149s-88 -65 -88 -149s10 -150 88 -150s89 66 89 150zM995 0h-397v99
l231 305h-218v117h384v-99l-234 -305h234v-117zM987 773l-132 -169h-104l-132 169h101l83 -90l83 90h101z" />
    <glyph glyph-name="uni01C7" unicode="&#x1c7;" horiz-adv-x="1086" 
d="M545 0h-462v712h139v-588h323v-124zM1012 234c0 -157 -119 -240 -251 -240c-77 0 -130 20 -183 73l92 91c23 -23 45 -40 91 -40c68 0 112 40 112 122v472h139v-478z" />
    <glyph glyph-name="uni01C8" unicode="&#x1c8;" horiz-adv-x="850" 
d="M545 0h-462v712h139v-588h323v-124zM778 -46c0 -74 -45 -149 -152 -149h-74v110h50c33 0 46 16 46 47v544h130v-552zM779 610h-133v106h133v-106z" />
    <glyph glyph-name="uni01C9" unicode="&#x1c9;" horiz-adv-x="600" 
d="M294 0h-74c-107 0 -152 75 -152 149v563h130v-555c0 -31 13 -47 46 -47h50v-110zM528 -46c0 -74 -45 -149 -152 -149h-74v110h50c33 0 46 16 46 47v544h130v-552zM529 610h-133v106h133v-106z" />
    <glyph glyph-name="uni01CA" unicode="&#x1ca;" horiz-adv-x="1222" 
d="M628 0h-124l-282 437v-437h-139v712h124l282 -436v436h139v-712zM1148 234c0 -157 -119 -240 -251 -240c-77 0 -130 20 -183 73l92 91c23 -23 45 -40 91 -40c68 0 112 40 112 122v472h139v-478z" />
    <glyph glyph-name="uni01CB" unicode="&#x1cb;" horiz-adv-x="986" 
d="M628 0h-124l-282 437v-437h-139v712h124l282 -436v436h139v-712zM914 -46c0 -74 -45 -149 -152 -149h-74v110h50c33 0 46 16 46 47v544h130v-552zM915 610h-133v106h133v-106z" />
    <glyph glyph-name="uni01CC" unicode="&#x1cc;" horiz-adv-x="848" 
d="M506 0h-130v315c0 71 -45 95 -86 95s-87 -24 -87 -95v-315h-130v521h127v-48c34 36 82 54 130 54c52 0 94 -17 123 -46c42 -42 53 -91 53 -148v-333zM776 -46c0 -74 -45 -149 -152 -149h-74v110h50c33 0 46 16 46 47v544h130v-552zM777 610h-133v106h133v-106z" />
    <glyph glyph-name="uni01F1" unicode="&#x1f1;" horiz-adv-x="1207" 
d="M600 356c0 -118 -1 -191 -45 -252c-51 -71 -118 -104 -215 -104h-257v712h257c97 0 164 -33 215 -104c44 -61 45 -134 45 -252zM461 356c0 112 -3 157 -29 188c-23 29 -57 44 -104 44h-106v-464h106c47 0 81 15 104 44c26 31 29 76 29 188zM1167 0h-468v112l304 476h-291
v124h455v-110l-305 -478h305v-124z" />
    <glyph glyph-name="uni01F2" unicode="&#x1f2;" horiz-adv-x="1137" 
d="M600 356c0 -118 -1 -191 -45 -252c-51 -71 -118 -104 -215 -104h-257v712h257c97 0 164 -33 215 -104c44 -61 45 -134 45 -252zM461 356c0 112 -3 157 -29 188c-23 29 -57 44 -104 44h-106v-464h106c47 0 81 15 104 44c26 31 29 76 29 188zM1093 0h-397v99l231 305h-218
v117h384v-99l-234 -305h234v-117z" />
    <glyph glyph-name="uni01F3" unicode="&#x1f3;" horiz-adv-x="1039" 
d="M488 0h-127v49c-36 -40 -74 -55 -129 -55c-52 0 -98 17 -127 47c-50 51 -54 132 -54 220c0 87 4 168 54 219c29 30 74 47 126 47c53 0 93 -14 127 -52v237h130v-712zM358 261c0 84 -11 149 -89 149s-88 -65 -88 -149s10 -150 88 -150s89 66 89 150zM995 0h-397v99
l231 305h-218v117h384v-99l-234 -305h234v-117z" />
    <glyph glyph-name="Aringacute" unicode="&#x1fa;" horiz-adv-x="638" 
d="M633 0h-145l-42 126h-253l-43 -126h-145l259 712h109zM409 243l-87 259l-90 -259h177zM448 884c0 -72 -59 -131 -131 -131s-131 59 -131 131s59 131 131 131s131 -58 131 -131zM375 884c0 32 -26 58 -58 58s-58 -26 -58 -58s26 -59 58 -59s58 27 58 59zM463 1195
l-114 -170h-87l64 170h137z" />
    <glyph glyph-name="aringacute" unicode="&#x1fb;" horiz-adv-x="534" 
d="M467 0h-127v45c-35 -35 -68 -50 -128 -50c-59 0 -103 16 -133 46c-28 29 -43 71 -43 117c0 83 57 151 180 151h121v26c0 57 -28 82 -97 82c-47 0 -72 -13 -100 -45l-82 81c51 56 100 74 187 74c147 0 222 -62 222 -184v-343zM337 192v28h-99c-52 0 -77 -21 -77 -60
c0 -36 25 -59 79 -59c32 0 55 4 77 25c15 13 20 33 20 66zM392 715c0 -72 -59 -131 -131 -131s-131 59 -131 131s59 131 131 131s131 -58 131 -131zM319 715c0 32 -26 58 -58 58s-58 -26 -58 -58s26 -59 58 -59s58 27 58 59zM407 1026l-114 -170h-87l64 170h137z" />
    <glyph glyph-name="AEacute" unicode="&#x1fc;" horiz-adv-x="979" 
d="M926 0h-468v156h-225l-81 -156h-149l372 712h551v-124h-330v-168h282v-124h-282v-172h330v-124zM458 273v315l-165 -315h165zM659 951l-114 -170h-87l64 170h137z" />
    <glyph glyph-name="aeacute" unicode="&#x1fd;" horiz-adv-x="838" 
d="M337 192v28h-99c-52 0 -77 -21 -77 -60c0 -36 25 -59 79 -59c32 0 55 4 77 25c15 13 20 33 20 66zM663 309c-1 23 -3 37 -12 56c-13 31 -43 54 -87 54s-74 -23 -87 -54c-9 -19 -11 -34 -12 -56h198zM395 67c-52 -55 -96 -73 -183 -73c-59 0 -103 17 -133 47
c-28 29 -43 71 -43 117c0 83 57 151 180 151h121v26c0 57 -28 82 -97 82c-47 0 -72 -13 -100 -45l-82 81c51 56 100 74 187 74c80 0 136 -19 171 -57c35 37 88 57 148 57c145 0 227 -104 227 -252v-55h-326c0 -68 40 -116 114 -116c57 0 85 17 118 49l79 -77
c-53 -54 -104 -82 -198 -82c-70 0 -137 20 -183 73zM536 774l-114 -170h-87l64 170h137z" />
    <glyph glyph-name="Oslashacute" unicode="&#x1fe;" horiz-adv-x="644" 
d="M585 356c0 -136 -2 -216 -73 -287c-48 -48 -108 -75 -190 -75c-43 0 -81 7 -113 21l-29 -59h-99l53 110l-3 3c-71 71 -72 151 -72 287s1 216 72 287c48 48 109 75 191 75c43 0 80 -8 113 -22l29 60h98l-53 -110l3 -3c71 -71 73 -151 73 -287zM446 356
c0 77 -3 121 -10 150l-178 -371c18 -11 39 -17 64 -17c38 0 69 16 89 39c26 30 35 63 35 199zM198 356c0 -77 2 -121 9 -150l178 371c-18 11 -39 17 -63 17c-38 0 -69 -15 -90 -38c-26 -30 -34 -64 -34 -200zM468 951l-114 -170h-87l64 170h137z" />
    <glyph glyph-name="oslashacute" unicode="&#x1ff;" 
d="M492 261c0 -95 -12 -154 -59 -203c-32 -34 -85 -64 -162 -64c-42 0 -76 9 -104 23l-36 -61h-79l59 101c-49 51 -60 109 -60 204c0 94 12 153 59 202c32 34 84 64 161 64c42 0 77 -8 105 -22l35 60h80l-59 -100c50 -55 60 -110 60 -204zM362 261c0 32 -2 61 -8 85
l-131 -222c13 -8 29 -13 48 -13c26 0 46 8 61 23c27 27 30 73 30 127zM320 397c-13 8 -30 13 -49 13c-26 0 -45 -8 -60 -23c-27 -27 -30 -72 -30 -126c0 -32 1 -62 7 -86zM418 774l-114 -170h-87l64 170h137z" />
    <glyph glyph-name="Scommaaccent" unicode="&#x218;" horiz-adv-x="591" 
d="M543 210c0 -138 -114 -216 -264 -216c-108 0 -190 23 -260 94l90 90c45 -45 106 -60 171 -60c83 0 127 32 127 89c0 24 -7 44 -22 59c-14 13 -28 19 -64 24l-85 13c-63 9 -106 28 -138 59c-34 33 -51 80 -51 140c0 127 94 216 248 216c98 0 169 -24 230 -83l-88 -87
c-44 43 -99 49 -146 49c-74 0 -109 -41 -109 -90c0 -19 5 -37 20 -51c14 -13 35 -23 65 -27l85 -13c65 -9 105 -26 136 -56c38 -35 55 -86 55 -150zM370 -60l-44 -146h-121l69 146h96z" />
    <glyph glyph-name="scommaaccent" unicode="&#x219;" horiz-adv-x="501" 
d="M465 164c0 -115 -98 -170 -221 -170c-82 0 -155 9 -222 75l85 85c42 -43 99 -49 139 -49c45 0 92 15 92 54c0 26 -13 44 -55 48l-84 8c-92 9 -150 50 -150 146c0 109 95 166 201 166c82 0 149 -15 199 -61l-80 -81c-30 27 -75 35 -121 35c-52 0 -74 -24 -74 -50
s15 -41 54 -45l82 -8c103 -10 155 -64 155 -153zM325 -60l-44 -146h-121l69 146h96z" />
    <glyph glyph-name="uni021A" unicode="&#x21a;" horiz-adv-x="571" 
d="M541 588h-186v-588h-139v588h-186v124h511v-124zM333 -60l-44 -146h-121l69 146h96z" />
    <glyph glyph-name="uni021B" unicode="&#x21b;" horiz-adv-x="352" 
d="M307 0h-71c-106 0 -151 75 -151 149v258h-55v99h55v154h130v-154h92v-99h-92v-250c0 -30 14 -47 45 -47h47v-110zM251 -60l-44 -146h-121l69 146h96z" />
    <glyph glyph-name="uni0237" unicode="&#x237;" horiz-adv-x="275" 
d="M203 -46c0 -74 -45 -149 -152 -149h-74v110h50c33 0 46 16 46 47v544h130v-552z" />
    <glyph glyph-name="uni0259" unicode="&#x259;" horiz-adv-x="548" 
d="M47 301h326c0 68 -40 116 -114 116c-57 0 -85 -17 -118 -49l-79 77c53 54 104 82 198 82c123 0 241 -56 241 -267c0 -170 -92 -266 -227 -266c-145 0 -227 104 -227 252v55zM175 212c1 -23 3 -37 12 -56c14 -31 43 -54 87 -54s73 23 87 54c9 19 11 33 12 56h-198z" />
    <glyph glyph-name="uni02BB" unicode="&#x2bb;" horiz-adv-x="273" 
d="M204 589h-136v123l136 105v-228z" />
    <glyph glyph-name="afii57929" unicode="&#x2bc;" horiz-adv-x="273" 
d="M204 588l-136 -103v227h136v-124z" />
    <glyph glyph-name="circumflex" unicode="&#x2c6;" horiz-adv-x="500" 
d="M434 604h-101l-83 91l-83 -91h-101l132 169h104z" />
    <glyph glyph-name="caron" unicode="&#x2c7;" horiz-adv-x="500" 
d="M434 773l-132 -169h-104l-132 169h101l83 -90l83 90h101z" />
    <glyph glyph-name="breve" unicode="&#x2d8;" horiz-adv-x="500" 
d="M414 748c-5 -108 -78 -151 -164 -151s-160 43 -164 151h87c5 -43 39 -60 77 -60s72 17 77 60h87z" />
    <glyph glyph-name="dotaccent" unicode="&#x2d9;" horiz-adv-x="500" 
d="M308 612h-116v116h116v-116z" />
    <glyph glyph-name="ring" unicode="&#x2da;" horiz-adv-x="500" 
d="M381 715c0 -72 -59 -131 -131 -131s-131 59 -131 131s59 131 131 131s131 -58 131 -131zM308 715c0 32 -26 58 -58 58s-58 -26 -58 -58s26 -59 58 -59s58 27 58 59z" />
    <glyph glyph-name="ogonek" unicode="&#x2db;" horiz-adv-x="500" 
d="M407 -60l-44 -146h-121l69 146h96z" />
    <glyph glyph-name="tilde" unicode="&#x2dc;" horiz-adv-x="500" 
d="M447 671c-44 -44 -74 -58 -113 -58c-29 0 -49 6 -77 22c-19 11 -36 18 -56 18c-17 0 -32 -2 -58 -28l-57 57c44 44 74 58 112 58c30 0 49 -5 78 -22c19 -12 35 -19 55 -19c17 0 32 3 58 29z" />
    <glyph glyph-name="hungarumlaut" unicode="&#x2dd;" horiz-adv-x="500" 
d="M260 774l-113 -170h-88l64 170h137zM462 774l-115 -170h-86l63 170h138z" />
    <glyph glyph-name="uni037E" unicode="&#x37e;" horiz-adv-x="309" 
d="M238 -55l-142 -110v307h142v-197zM241 271h-148v148h148v-148z" />
    <glyph glyph-name="tonos" unicode="&#x384;" horiz-adv-x="360" 
d="M242 622l-116 -49v158h116v-109z" />
    <glyph glyph-name="dieresistonos" unicode="&#x385;" horiz-adv-x="481" 
d="M454 590h-111v125h111v-125zM301 639l-115 -49v158h115v-109zM138 590h-111v125h111v-125z" />
    <glyph glyph-name="Alphatonos" unicode="&#x386;" horiz-adv-x="638" 
d="M633 0h-145l-42 126h-253l-43 -126h-145l259 712h109zM409 243l-87 259l-90 -259h177zM90 603l-116 -49v158h116v-109z" />
    <glyph glyph-name="anoteleia" unicode="&#x387;" horiz-adv-x="285" 
d="M217 212h-149v148h149v-148z" />
    <glyph glyph-name="Epsilontonos" unicode="&#x388;" horiz-adv-x="605" 
d="M552 0h-469v712h469v-124h-330v-167h281v-124h-281v-173h330v-124zM10 603l-116 -49v158h116v-109z" />
    <glyph glyph-name="Etatonos" unicode="&#x389;" horiz-adv-x="685" 
d="M602 0h-139v298h-241v-298h-139v712h139v-291h241v291h139v-712zM10 603l-116 -49v158h116v-109z" />
    <glyph glyph-name="Iotatonos" unicode="&#x38a;" horiz-adv-x="305" 
d="M222 0h-139v712h139v-712zM10 603l-116 -49v158h116v-109z" />
    <glyph glyph-name="Omicrontonos" unicode="&#x38c;" horiz-adv-x="644" 
d="M585 356c0 -136 -2 -216 -73 -287c-48 -48 -108 -75 -190 -75s-143 27 -191 75c-71 71 -72 151 -72 287s1 216 72 287c48 48 109 75 191 75s142 -27 190 -75c71 -71 73 -151 73 -287zM446 356c0 136 -9 170 -35 200c-20 23 -51 38 -89 38s-69 -15 -90 -38
c-26 -30 -34 -64 -34 -200s8 -169 34 -199c21 -23 52 -39 90 -39s69 16 89 39c26 30 35 63 35 199zM30 603l-116 -49v158h116v-109z" />
    <glyph glyph-name="Upsilontonos" unicode="&#x38e;" horiz-adv-x="572" 
d="M569 712l-214 -420v-292h-138v292l-214 420h151l133 -287l131 287h151zM-30 603l-116 -49v158h116v-109z" />
    <glyph glyph-name="Omegatonos" unicode="&#x38f;" horiz-adv-x="644" 
d="M585 356c0 -73 -4 -131 -23 -178c-8 -19 -19 -37 -36 -54h59v-124h-219v110c23 11 41 24 53 43c19 27 27 73 27 196c0 136 -8 176 -35 206c-20 23 -51 39 -89 39s-69 -16 -90 -39c-26 -30 -34 -70 -34 -206c0 -123 7 -169 26 -196c13 -19 30 -32 54 -43v-110h-219v124h59
c-18 17 -29 35 -37 54c-18 47 -22 105 -22 178c0 136 1 216 72 287c49 48 109 75 191 75s142 -27 190 -75c71 -71 73 -151 73 -287zM30 603l-116 -49v158h116v-109z" />
    <glyph glyph-name="iotadieresistonos" unicode="&#x390;" horiz-adv-x="325" 
d="M294 0h-74c-107 0 -152 75 -152 149v372h130v-364c0 -31 13 -47 46 -47h50v-110zM354 590h-111v125h111v-125zM201 639l-115 -49v158h115v-109zM38 590h-111v125h111v-125z" />
    <glyph glyph-name="Alpha" unicode="&#x391;" horiz-adv-x="638" 
d="M633 0h-145l-42 126h-253l-43 -126h-145l259 712h109zM409 243l-87 259l-90 -259h177z" />
    <glyph glyph-name="Beta" unicode="&#x392;" horiz-adv-x="658" 
d="M599 205c0 -133 -91 -205 -218 -205h-298v712h286c139 0 220 -78 220 -200c0 -79 -52 -130 -88 -147c43 -20 98 -65 98 -160zM450 506c0 49 -33 82 -92 82h-136v-164h136c59 0 92 33 92 82zM460 212c0 48 -30 87 -93 87h-145v-175h145c63 0 93 40 93 88z" />
    <glyph glyph-name="Gamma" unicode="&#x393;" horiz-adv-x="568" 
d="M539 588h-317v-588h-139v712h456v-124z" />
    <glyph glyph-name="uni0394" unicode="&#x394;" horiz-adv-x="634" 
d="M631 0h-628l260 712h108zM450 117l-130 385l-134 -385h264z" />
    <glyph glyph-name="Epsilon" unicode="&#x395;" horiz-adv-x="605" 
d="M552 0h-469v712h469v-124h-330v-167h281v-124h-281v-173h330v-124z" />
    <glyph glyph-name="Zeta" unicode="&#x396;" horiz-adv-x="548" 
d="M508 0h-468v112l304 476h-291v124h455v-110l-305 -478h305v-124z" />
    <glyph glyph-name="Eta" unicode="&#x397;" horiz-adv-x="685" 
d="M602 0h-139v298h-241v-298h-139v712h139v-291h241v291h139v-712z" />
    <glyph glyph-name="Theta" unicode="&#x398;" horiz-adv-x="644" 
d="M585 356c0 -136 -2 -216 -73 -287c-48 -48 -108 -75 -190 -75s-142 27 -191 75c-71 71 -72 151 -72 287s1 216 72 287c49 48 109 75 191 75s142 -27 190 -75c71 -71 73 -151 73 -287zM411 157c23 25 32 53 34 143h-247c3 -90 12 -118 34 -143c21 -23 52 -39 90 -39
s69 16 89 39zM232 556c-22 -25 -31 -53 -33 -137h246c-3 84 -12 112 -34 137c-20 23 -51 38 -89 38s-69 -15 -90 -38z" />
    <glyph glyph-name="Iota" unicode="&#x399;" horiz-adv-x="305" 
d="M222 0h-139v712h139v-712z" />
    <glyph glyph-name="Kappa" unicode="&#x39a;" horiz-adv-x="665" 
d="M659 0h-162l-183 324l-92 -110v-214h-139v712h139v-310l251 310h169l-236 -283z" />
    <glyph glyph-name="Lambda" unicode="&#x39b;" horiz-adv-x="611" 
d="M603 0h-145l-149 498l-156 -498h-145l240 712h114z" />
    <glyph glyph-name="Mu" unicode="&#x39c;" horiz-adv-x="811" 
d="M728 0h-139v415l-136 -270h-94l-137 270v-415h-139v712h137l186 -385l185 385h137v-712z" />
    <glyph glyph-name="Nu" unicode="&#x39d;" horiz-adv-x="711" 
d="M628 0h-124l-282 437v-437h-139v712h124l282 -436v436h139v-712z" />
    <glyph glyph-name="Xi" unicode="&#x39e;" horiz-adv-x="597" 
d="M544 0h-491v124h176v173h-128v124h128v167h-176v124h491v-124h-176v-167h128v-124h-128v-173h176v-124z" />
    <glyph glyph-name="Omicron" unicode="&#x39f;" horiz-adv-x="644" 
d="M585 356c0 -136 -2 -216 -73 -287c-48 -48 -108 -75 -190 -75s-143 27 -191 75c-71 71 -72 151 -72 287s1 216 72 287c48 48 109 75 191 75s142 -27 190 -75c71 -71 73 -151 73 -287zM446 356c0 136 -9 170 -35 200c-20 23 -51 38 -89 38s-69 -15 -90 -38
c-26 -30 -34 -64 -34 -200s8 -169 34 -199c21 -23 52 -39 90 -39s69 16 89 39c26 30 35 63 35 199z" />
    <glyph glyph-name="Pi" unicode="&#x3a0;" horiz-adv-x="682" 
d="M599 0h-139v588h-238v-588h-139v712h516v-712z" />
    <glyph glyph-name="Rho" unicode="&#x3a1;" horiz-adv-x="628" 
d="M594 490c0 -121 -87 -222 -235 -222h-137v-268h-139v712h276c148 0 235 -101 235 -222zM455 490c0 58 -40 98 -103 98h-130v-195h130c63 0 103 39 103 97z" />
    <glyph glyph-name="Sigma" unicode="&#x3a3;" horiz-adv-x="547" 
d="M511 588h-287l131 -212l-152 -252h305v-124h-468v111l161 263l-145 232v106h455v-124z" />
    <glyph glyph-name="Tau" unicode="&#x3a4;" horiz-adv-x="571" 
d="M541 588h-186v-588h-139v588h-186v124h511v-124z" />
    <glyph glyph-name="Upsilon" unicode="&#x3a5;" horiz-adv-x="572" 
d="M569 712l-214 -420v-292h-138v292l-214 420h151l133 -287l131 287h151z" />
    <glyph glyph-name="Phi" unicode="&#x3a6;" horiz-adv-x="777" 
d="M729 359c0 -82 -10 -163 -71 -224c-58 -58 -119 -78 -200 -78v-57h-139v57c-81 0 -142 20 -200 78c-61 61 -71 142 -71 224s10 163 71 224c58 58 119 78 200 78v51h139v-51c81 0 142 -20 200 -78c61 -61 71 -142 71 -224zM590 359c0 52 -2 100 -33 137
c-25 29 -58 41 -99 41v-356c41 0 74 11 99 40c31 37 33 86 33 138zM319 181v356c-41 0 -74 -12 -99 -41c-31 -37 -33 -85 -33 -137s2 -101 33 -138c25 -29 58 -40 99 -40z" />
    <glyph glyph-name="Chi" unicode="&#x3a7;" horiz-adv-x="603" 
d="M598 0h-159l-138 248l-137 -248h-159l221 365l-207 347h158l124 -230l125 230h157l-207 -347z" />
    <glyph glyph-name="Psi" unicode="&#x3a8;" horiz-adv-x="745" 
d="M695 363c0 -66 -18 -117 -65 -164c-49 -49 -110 -77 -188 -78v-121h-139v121c-78 1 -139 29 -188 78c-47 47 -65 98 -65 164v349h138v-349c0 -38 11 -60 30 -80c21 -22 53 -37 85 -38v467h139v-467c32 1 64 16 85 38c19 20 30 42 30 80v349h138v-349z" />
    <glyph glyph-name="uni03A9" unicode="&#x3a9;" horiz-adv-x="644" 
d="M585 356c0 -73 -4 -131 -23 -178c-8 -19 -19 -37 -36 -54h59v-124h-219v110c23 11 41 24 53 43c19 27 27 73 27 196c0 136 -8 176 -35 206c-20 23 -51 39 -89 39s-69 -16 -90 -39c-26 -30 -34 -70 -34 -206c0 -123 7 -169 26 -196c13 -19 30 -32 54 -43v-110h-219v124h59
c-18 17 -29 35 -37 54c-18 47 -22 105 -22 178c0 136 1 216 72 287c49 48 109 75 191 75s142 -27 190 -75c71 -71 73 -151 73 -287z" />
    <glyph glyph-name="Iotadieresis" unicode="&#x3aa;" horiz-adv-x="305" 
d="M222 0h-139v712h139v-712zM316 783h-111v125h111v-125zM95 783h-111v125h111v-125z" />
    <glyph glyph-name="Upsilondieresis" unicode="&#x3ab;" horiz-adv-x="572" 
d="M569 712l-214 -420v-292h-138v292l-214 420h151l133 -287l131 287h151zM451 783h-111v125h111v-125zM230 783h-111v125h111v-125z" />
    <glyph glyph-name="alphatonos" unicode="&#x3ac;" horiz-adv-x="561" 
d="M488 0h-127v49c-36 -40 -74 -55 -129 -55c-51 0 -99 18 -128 47c-52 52 -53 142 -53 220s1 167 53 219c29 29 76 47 127 47c55 0 94 -15 129 -54v48h128v-521zM358 261c0 84 -10 149 -88 149s-89 -65 -89 -149s11 -150 89 -150s88 66 88 150zM342 622l-116 -49v158h116
v-109z" />
    <glyph glyph-name="epsilontonos" unicode="&#x3ad;" horiz-adv-x="510" 
d="M490 85c-75 -71 -134 -90 -232 -90c-105 0 -213 44 -213 156c0 70 45 104 77 119c-27 13 -63 48 -63 107c0 94 97 150 205 150c80 0 128 -15 200 -72l-73 -88c-43 34 -73 52 -121 52s-82 -22 -82 -56c0 -28 26 -49 65 -49h98v-99h-99c-58 0 -75 -29 -75 -51
c0 -35 40 -59 92 -59c55 0 94 20 137 58zM332 622l-116 -49v158h116v-109z" />
    <glyph glyph-name="etatonos" unicode="&#x3ae;" horiz-adv-x="573" 
d="M506 0h-130v315c0 71 -45 95 -86 95s-87 -24 -87 -95v-315h-130v521h127v-48c34 36 82 54 130 54c52 0 94 -17 123 -46c42 -42 53 -91 53 -148v-333zM352 622l-116 -49v158h116v-109z" />
    <glyph glyph-name="iotatonos" unicode="&#x3af;" horiz-adv-x="325" 
d="M294 0h-74c-107 0 -152 75 -152 149v372h130v-364c0 -31 13 -47 46 -47h50v-110zM194 622l-116 -49v158h116v-109z" />
    <glyph glyph-name="upsilondieresistonos" unicode="&#x3b0;" horiz-adv-x="545" 
d="M489 240c0 -91 -14 -140 -55 -184c-32 -33 -84 -62 -162 -62c-77 0 -129 29 -161 62c-41 44 -55 93 -55 184v281h130v-314c0 -73 45 -96 86 -96c42 0 87 23 87 96v314h130v-281zM486 590h-111v125h111v-125zM333 639l-115 -49v158h115v-109zM170 590h-111v125h111v-125z
" />
    <glyph glyph-name="alpha" unicode="&#x3b1;" horiz-adv-x="561" 
d="M488 0h-127v49c-36 -40 -74 -55 -129 -55c-51 0 -99 18 -128 47c-52 52 -53 142 -53 220s1 167 53 219c29 29 76 47 127 47c55 0 94 -15 129 -54v48h128v-521zM358 261c0 84 -10 149 -88 149s-89 -65 -89 -149s11 -150 89 -150s88 66 88 150z" />
    <glyph glyph-name="beta" unicode="&#x3b2;" horiz-adv-x="579" 
d="M531 218c0 -59 -16 -126 -58 -169c-32 -32 -79 -55 -140 -55c-66 0 -110 29 -134 55v-49h-126v520c0 126 95 195 221 195c123 0 213 -63 213 -180c0 -38 -9 -77 -29 -103c-16 -20 -33 -33 -52 -41c23 -8 46 -21 63 -40c28 -32 42 -74 42 -133zM402 228
c0 55 -20 78 -44 89c-20 9 -40 13 -72 13h-51v103h61c73 0 87 50 87 88c0 26 -10 47 -21 59c-15 16 -37 25 -65 25c-67 0 -93 -40 -93 -99v-295c0 -60 39 -101 93 -101c30 0 51 6 69 21c27 23 36 63 36 97z" />
    <glyph glyph-name="gamma" unicode="&#x3b3;" horiz-adv-x="494" 
d="M490 521l-179 -506v-206h-129v206l-178 506h138l106 -340l104 340h138z" />
    <glyph glyph-name="delta" unicode="&#x3b4;" horiz-adv-x="537" 
d="M486 265c0 -91 -13 -153 -54 -202c-32 -39 -84 -69 -166 -69c-77 0 -128 29 -160 67c-40 47 -55 107 -55 195c0 89 17 154 65 199c26 25 65 43 106 43c11 0 23 0 35 -4l-147 121v97h344v-101h-180l110 -92c80 -67 102 -153 102 -254zM354 256c0 55 -6 102 -33 126
c-12 10 -28 16 -50 16s-38 -6 -51 -15c-32 -23 -39 -71 -39 -127c0 -53 5 -103 36 -128c12 -10 29 -16 51 -16s39 5 51 15c31 24 35 73 35 129z" />
    <glyph glyph-name="epsilon" unicode="&#x3b5;" horiz-adv-x="510" 
d="M490 85c-75 -71 -134 -90 -232 -90c-105 0 -213 44 -213 156c0 70 45 104 77 119c-27 13 -63 48 -63 107c0 94 97 150 205 150c80 0 128 -15 200 -72l-73 -88c-43 34 -73 52 -121 52s-82 -22 -82 -56c0 -28 26 -49 65 -49h98v-99h-99c-58 0 -75 -29 -75 -51
c0 -35 40 -59 92 -59c55 0 94 20 137 58z" />
    <glyph glyph-name="zeta" unicode="&#x3b6;" horiz-adv-x="500" 
d="M472 -19c0 -38 -18 -146 -179 -146v101c34 0 57 8 57 41c0 24 -26 26 -49 26h-44c-141 0 -214 50 -214 158c0 115 93 191 191 243h-158v117h384v-117h-19c-97 -42 -260 -131 -260 -229c0 -45 33 -59 98 -59h29c93 0 164 -35 164 -135z" />
    <glyph glyph-name="eta" unicode="&#x3b7;" horiz-adv-x="573" 
d="M506 0h-130v315c0 71 -45 95 -86 95s-87 -24 -87 -95v-315h-130v521h127v-48c34 36 82 54 130 54c52 0 94 -17 123 -46c42 -42 53 -91 53 -148v-333z" />
    <glyph glyph-name="theta" unicode="&#x3b8;" horiz-adv-x="575" 
d="M513 356c0 -109 0 -223 -63 -293c-42 -48 -93 -69 -162 -69c-70 0 -121 21 -163 69c-63 70 -63 184 -63 293s0 223 63 293c42 47 93 69 163 69c69 0 120 -22 162 -69c63 -70 63 -184 63 -293zM382 311h-189c0 -89 6 -142 27 -167c16 -20 37 -33 68 -33s51 13 67 33
c21 25 27 78 27 167zM382 420c0 69 -6 123 -27 148c-16 20 -36 33 -67 33s-52 -13 -68 -33c-21 -25 -27 -79 -27 -148h189z" />
    <glyph glyph-name="iota" unicode="&#x3b9;" horiz-adv-x="325" 
d="M294 0h-74c-107 0 -152 75 -152 149v372h130v-364c0 -31 13 -47 46 -47h50v-110z" />
    <glyph glyph-name="kappa" unicode="&#x3ba;" horiz-adv-x="560" 
d="M548 0h-162l-128 217l-55 -62v-155h-131v521h131v-213l173 213h157l-186 -210z" />
    <glyph glyph-name="lambda" unicode="&#x3bb;" horiz-adv-x="514" 
d="M522 0h-54c-88 0 -127 52 -150 127l-60 193l-113 -320h-137l188 486l-21 74c-9 32 -30 42 -57 42h-32v115h48c44 0 83 -10 113 -41c16 -16 28 -37 38 -66l152 -458c8 -25 24 -42 48 -42h37v-110z" />
    <glyph glyph-name="uni03BC" unicode="&#x3bc;" horiz-adv-x="576" 
d="M503 0h-127v48c-34 -36 -82 -54 -130 -54c-19 0 -34 5 -46 14v-199h-130v712h130v-315c0 -71 45 -95 86 -95s87 24 87 95v315h130v-521z" />
    <glyph glyph-name="nu" unicode="&#x3bd;" horiz-adv-x="494" 
d="M490 521l-192 -521h-102l-192 521h138l106 -321l104 321h138z" />
    <glyph glyph-name="xi" unicode="&#x3be;" horiz-adv-x="509" 
d="M497 628l-72 -84c-39 43 -82 67 -134 67c-58 0 -95 -36 -95 -95c0 -56 36 -86 93 -86h120v-109h-110c-28 0 -121 -11 -121 -109c0 -67 46 -96 103 -96h44c94 0 155 -40 155 -135c0 -38 -18 -146 -179 -146v101c34 0 57 8 57 41c0 23 -19 26 -53 26h-44
c-134 0 -218 68 -218 193c0 95 53 158 122 183c-56 19 -95 73 -95 140c0 125 94 201 217 201c79 0 153 -29 210 -92z" />
    <glyph glyph-name="omicron" unicode="&#x3bf;" 
d="M492 261c0 -94 -11 -154 -59 -203c-33 -34 -85 -64 -162 -64s-128 30 -161 64c-47 50 -59 109 -59 203s12 152 59 202c33 34 84 64 161 64s129 -29 162 -64c47 -50 59 -108 59 -202zM362 261c0 53 -3 100 -30 126c-15 15 -35 23 -61 23c-25 0 -45 -8 -60 -23
c-27 -26 -30 -73 -30 -126c0 -54 3 -101 30 -127c15 -15 35 -23 60 -23c26 0 46 8 61 23c27 26 30 73 30 127z" />
    <glyph glyph-name="pi" unicode="&#x3c0;" horiz-adv-x="578" 
d="M511 0h-129v399h-180v-399h-130v521h439v-521z" />
    <glyph glyph-name="rho" unicode="&#x3c1;" horiz-adv-x="536" 
d="M485 259c0 -75 -10 -150 -60 -204c-30 -33 -76 -61 -142 -61c-42 0 -75 22 -102 46v-231h-130v451c0 114 19 157 49 192c25 30 74 75 164 75c80 0 132 -31 163 -64c50 -53 58 -109 58 -204zM355 260c0 59 -4 90 -19 115c-13 20 -38 34 -70 34s-52 -13 -65 -33
c-16 -25 -20 -54 -20 -115c0 -43 1 -82 15 -108c15 -26 32 -40 71 -40c76 0 88 69 88 147z" />
    <glyph glyph-name="sigma1" unicode="&#x3c2;" horiz-adv-x="480" 
d="M452 457l-89 -88c-27 29 -48 41 -82 41c-31 0 -57 -12 -75 -34c-20 -24 -28 -60 -28 -115c0 -85 38 -131 116 -139c89 -10 146 -52 146 -141c0 -38 -18 -146 -179 -146v101c34 0 57 8 57 41c0 26 -30 32 -64 35c-114 9 -207 79 -207 249c0 211 130 266 234 266
c72 0 125 -22 171 -70z" />
    <glyph glyph-name="sigma" unicode="&#x3c3;" horiz-adv-x="567" 
d="M521 410h-83c33 -26 55 -92 55 -149c0 -95 -13 -153 -60 -203c-33 -34 -84 -64 -161 -64s-128 30 -161 64c-47 50 -60 108 -60 203c0 94 12 151 59 200c33 34 83 60 160 60h251v-111zM363 261c0 53 -4 103 -31 130c-15 15 -35 22 -61 22s-45 -9 -60 -24
c-27 -27 -30 -75 -30 -128s3 -100 30 -127c15 -15 35 -23 61 -23s46 8 61 23c27 27 30 74 30 127z" />
    <glyph glyph-name="tau" unicode="&#x3c4;" horiz-adv-x="405" 
d="M383 404h-115v-404h-131v404h-115v117h361v-117z" />
    <glyph glyph-name="upsilon" unicode="&#x3c5;" horiz-adv-x="545" 
d="M489 240c0 -91 -14 -140 -55 -184c-32 -33 -84 -62 -162 -62c-77 0 -129 29 -161 62c-41 44 -55 93 -55 184v281h130v-314c0 -73 45 -96 86 -96c42 0 87 23 87 96v314h130v-281z" />
    <glyph glyph-name="phi" unicode="&#x3c6;" horiz-adv-x="699" 
d="M648 263c0 -155 -62 -266 -232 -269v-185h-130v185c-169 7 -235 124 -235 267c0 115 43 205 158 262l46 -96c-60 -38 -73 -101 -73 -170c0 -73 18 -143 104 -149v413h115c177 0 247 -82 247 -258zM517 265c0 84 -12 144 -101 144v-301c89 3 101 66 101 157z" />
    <glyph glyph-name="chi" unicode="&#x3c7;" horiz-adv-x="527" 
d="M515 0h-156l-96 156l-95 -156h-156l180 266l-173 255h156l88 -149l89 149h156l-173 -255z" />
    <glyph glyph-name="psi" unicode="&#x3c8;" horiz-adv-x="700" 
d="M642 261c0 -94 -13 -155 -56 -202c-33 -37 -88 -62 -170 -62v-188h-131v188c-82 0 -137 25 -170 62c-43 47 -57 108 -57 202v260h131v-284c0 -75 28 -126 96 -126v410h131v-410c69 0 95 48 95 126v284h131v-260z" />
    <glyph glyph-name="omega" unicode="&#x3c9;" horiz-adv-x="759" 
d="M708 261c0 -81 -8 -140 -43 -190c-30 -42 -80 -77 -151 -77c-73 0 -109 31 -135 71c-26 -40 -62 -71 -135 -71c-71 0 -120 35 -150 77c-35 50 -43 109 -43 190c0 84 14 153 56 199c30 32 78 67 161 67v-118c-28 0 -49 -13 -62 -29c-20 -24 -25 -52 -25 -119
c0 -42 2 -90 22 -121c11 -16 26 -28 49 -28c29 0 47 23 55 51c6 22 7 46 7 64v142h130v-142c0 -18 0 -43 6 -64c8 -29 26 -51 56 -51c23 0 38 12 49 28c20 31 22 79 22 121c0 67 -4 95 -24 119c-13 16 -35 29 -63 29v118c83 0 131 -35 161 -67c42 -46 57 -115 57 -199z" />
    <glyph glyph-name="iotadieresis" unicode="&#x3ca;" horiz-adv-x="325" 
d="M294 0h-74c-107 0 -152 75 -152 149v372h130v-364c0 -31 13 -47 46 -47h50v-110zM304 606h-111v125h111v-125zM83 606h-111v125h111v-125z" />
    <glyph glyph-name="upsilondieresis" unicode="&#x3cb;" horiz-adv-x="545" 
d="M489 240c0 -91 -14 -140 -55 -184c-32 -33 -84 -62 -162 -62c-77 0 -129 29 -161 62c-41 44 -55 93 -55 184v281h130v-314c0 -73 45 -96 86 -96c42 0 87 23 87 96v314h130v-281zM443 606h-111v125h111v-125zM222 606h-111v125h111v-125z" />
    <glyph glyph-name="omicrontonos" unicode="&#x3cc;" 
d="M492 261c0 -94 -11 -154 -59 -203c-33 -34 -85 -64 -162 -64s-128 30 -161 64c-47 50 -59 109 -59 203s12 152 59 202c33 34 84 64 161 64s129 -29 162 -64c47 -50 59 -108 59 -202zM362 261c0 53 -3 100 -30 126c-15 15 -35 23 -61 23c-25 0 -45 -8 -60 -23
c-27 -26 -30 -73 -30 -126c0 -54 3 -101 30 -127c15 -15 35 -23 60 -23c26 0 46 8 61 23c27 26 30 73 30 127zM332 622l-116 -49v158h116v-109z" />
    <glyph glyph-name="upsilontonos" unicode="&#x3cd;" horiz-adv-x="545" 
d="M489 240c0 -91 -14 -140 -55 -184c-32 -33 -84 -62 -162 -62c-77 0 -129 29 -161 62c-41 44 -55 93 -55 184v281h130v-314c0 -73 45 -96 86 -96c42 0 87 23 87 96v314h130v-281zM332 622l-116 -49v158h116v-109z" />
    <glyph glyph-name="omegatonos" unicode="&#x3ce;" horiz-adv-x="759" 
d="M708 261c0 -81 -8 -140 -43 -190c-30 -42 -80 -77 -151 -77c-73 0 -109 31 -135 71c-26 -40 -62 -71 -135 -71c-71 0 -120 35 -150 77c-35 50 -43 109 -43 190c0 84 14 153 56 199c30 32 78 67 161 67v-118c-28 0 -49 -13 -62 -29c-20 -24 -25 -52 -25 -119
c0 -42 2 -90 22 -121c11 -16 26 -28 49 -28c29 0 47 23 55 51c6 22 7 46 7 64v142h130v-142c0 -18 0 -43 6 -64c8 -29 26 -51 56 -51c23 0 38 12 49 28c20 31 22 79 22 121c0 67 -4 95 -24 119c-13 16 -35 29 -63 29v118c83 0 131 -35 161 -67c42 -46 57 -115 57 -199z
M440 622l-116 -49v158h116v-109z" />
    <glyph glyph-name="uni03D0" unicode="&#x3d0;" horiz-adv-x="579" 
d="M531 218c0 -59 -16 -126 -58 -169c-32 -32 -79 -55 -140 -55c-66 0 -106 26 -130 52v-237h-130v712c0 126 95 194 221 194c123 0 213 -63 213 -180c0 -38 -9 -77 -29 -103c-16 -20 -33 -33 -52 -41c23 -8 46 -21 63 -40c28 -32 42 -74 42 -133zM402 228
c0 55 -20 78 -44 89c-20 9 -40 13 -72 13h-51v103h61c73 0 87 50 87 88c0 26 -10 47 -21 59c-15 16 -37 25 -65 25c-67 0 -94 -40 -94 -99v-295c0 -60 40 -101 94 -101c30 0 51 6 69 21c27 23 36 63 36 97z" />
    <glyph glyph-name="uni0400" unicode="&#x400;" horiz-adv-x="605" 
d="M365 781h-87l-114 170h137zM552 0h-469v712h469v-124h-330v-167h281v-124h-281v-173h330v-124z" />
    <glyph glyph-name="afii10023" unicode="&#x401;" horiz-adv-x="605" 
d="M552 0h-469v712h469v-124h-330v-167h281v-124h-281v-173h330v-124zM476 783h-111v125h111v-125zM255 783h-111v125h111v-125z" />
    <glyph glyph-name="afii10051" unicode="&#x402;" horiz-adv-x="748" 
d="M684 225c0 -140 -94 -225 -231 -225h-42v119h31c62 0 103 37 103 105s-41 104 -103 104h-119v-328h-138v588h-157v124h512v-124h-217v-140h130c138 0 231 -83 231 -223z" />
    <glyph glyph-name="afii10052" unicode="&#x403;" horiz-adv-x="561" 
d="M534 588h-309v-588h-139v712h448v-124zM440 951l-114 -170h-87l64 170h137z" />
    <glyph glyph-name="afii10053" unicode="&#x404;" horiz-adv-x="619" 
d="M582 216c-25 -146 -129 -222 -261 -222c-81 0 -141 27 -190 75c-71 71 -72 151 -72 287s1 216 72 287c49 48 109 75 190 75c133 0 236 -76 261 -222h-139c-14 58 -52 101 -121 101c-39 0 -70 -15 -91 -39c-23 -26 -32 -56 -35 -140h218v-121h-218c3 -87 11 -117 35 -143
c21 -24 52 -39 91 -39c69 0 107 43 122 101h138z" />
    <glyph glyph-name="afii10054" unicode="&#x405;" horiz-adv-x="591" 
d="M543 210c0 -138 -114 -216 -264 -216c-108 0 -190 23 -260 94l90 90c45 -45 106 -60 171 -60c83 0 127 32 127 89c0 24 -7 44 -22 59c-14 13 -28 19 -64 24l-85 13c-63 9 -106 28 -138 59c-34 33 -51 80 -51 140c0 127 94 216 248 216c98 0 169 -24 230 -83l-88 -87
c-44 43 -99 49 -146 49c-74 0 -109 -41 -109 -90c0 -19 5 -37 20 -51c14 -13 35 -23 65 -27l85 -13c65 -9 105 -26 136 -56c38 -35 55 -86 55 -150z" />
    <glyph glyph-name="afii10055" unicode="&#x406;" horiz-adv-x="305" 
d="M222 0h-139v712h139v-712z" />
    <glyph glyph-name="afii10056" unicode="&#x407;" horiz-adv-x="305" 
d="M222 0h-139v712h139v-712zM319 783h-111v125h111v-125zM98 783h-111v125h111v-125z" />
    <glyph glyph-name="afii10057" unicode="&#x408;" horiz-adv-x="511" 
d="M437 234c0 -157 -119 -240 -251 -240c-77 0 -130 20 -183 73l92 91c23 -23 45 -40 91 -40c68 0 112 40 112 122v472h139v-478z" />
    <glyph glyph-name="afii10058" unicode="&#x409;" horiz-adv-x="1008" 
d="M732 319h-130v-195h130c63 0 103 39 103 98c0 58 -40 97 -103 97zM159 712h443v-268h141c139 0 231 -92 231 -222s-93 -222 -231 -222h-280v588h-170v-207c0 -299 -73 -381 -221 -381h-55v124h20c71 0 122 42 122 265v323z" />
    <glyph glyph-name="afii10059" unicode="&#x40a;" horiz-adv-x="1008" 
d="M974 222c0 -130 -93 -222 -231 -222h-280v320h-241v-320h-139v712h139v-268h241v268h139v-268h141c139 0 231 -92 231 -222zM732 319h-130v-195h130c63 0 103 39 103 98c0 58 -40 97 -103 97z" />
    <glyph glyph-name="afii10060" unicode="&#x40b;" horiz-adv-x="748" 
d="M684 0h-139v231c0 58 -41 97 -103 97h-119v-328h-138v588h-156v124h511v-124h-217v-140h130c138 0 231 -87 231 -217v-231z" />
    <glyph glyph-name="afii10061" unicode="&#x40c;" horiz-adv-x="641" 
d="M224 0h-139v712h139v-712zM645 0h-170l-250 373l230 339h166l-239 -334zM487 951l-114 -170h-87l64 170h137z" />
    <glyph glyph-name="uni040D" unicode="&#x40d;" horiz-adv-x="706" 
d="M623 0h-139v457l-277 -457h-124v712h139v-456l277 456h124v-712zM401 781h-87l-114 170h137z" />
    <glyph glyph-name="afii10062" unicode="&#x40e;" horiz-adv-x="581" 
d="M460 893c-4 -108 -83 -143 -162 -143s-158 35 -162 143h98c3 -44 28 -62 64 -62s61 18 64 62h98zM577 712l-252 -592c-27 -64 -76 -120 -159 -120h-85v124h56c38 0 61 16 74 45l21 49l-228 494h145l149 -343l135 343h144z" />
    <glyph glyph-name="afii10145" unicode="&#x40f;" horiz-adv-x="686" 
d="M602 0h-192v-158h-134v158h-193v712h139v-588h241v588h139v-712z" />
    <glyph glyph-name="afii10017" unicode="&#x410;" horiz-adv-x="638" 
d="M633 0h-145l-42 126h-253l-43 -126h-145l259 712h109zM409 243l-87 259l-90 -259h177z" />
    <glyph glyph-name="afii10018" unicode="&#x411;" horiz-adv-x="654" 
d="M599 222c0 -130 -87 -222 -231 -222h-285v712h471v-124h-332v-144h146c143 0 231 -92 231 -222zM460 222c0 58 -37 98 -99 98h-139v-196h139c62 0 99 39 99 98z" />
    <glyph glyph-name="afii10019" unicode="&#x412;" horiz-adv-x="658" 
d="M501 365c28 -15 39 -23 54 -38c31 -33 44 -73 44 -123c0 -125 -84 -204 -218 -204h-298v712h286c134 0 220 -76 220 -196c0 -68 -29 -118 -88 -151zM222 424h136c57 0 92 31 92 82s-35 82 -92 82h-136v-164zM222 124h145c57 0 93 34 93 88s-36 87 -93 87h-145v-175z" />
    <glyph glyph-name="afii10020" unicode="&#x413;" horiz-adv-x="561" 
d="M534 588h-309v-588h-139v712h448v-124z" />
    <glyph glyph-name="afii10021" unicode="&#x414;" horiz-adv-x="705" 
d="M677 -158h-134v158h-395v-158h-134v282h67c59 91 85 242 85 406v182h429v-588h82v-282zM456 124v464h-157v-103c0 -141 -14 -262 -63 -361h220z" />
    <glyph glyph-name="afii10022" unicode="&#x415;" horiz-adv-x="605" 
d="M552 0h-469v712h469v-124h-330v-167h281v-124h-281v-173h330v-124z" />
    <glyph glyph-name="afii10024" unicode="&#x416;" horiz-adv-x="941" 
d="M947 0h-168l-238 373l218 339h164l-233 -334zM162 0h-168l257 378l-233 334h164l218 -339zM540 0h-139v712h139v-712z" />
    <glyph glyph-name="afii10025" unicode="&#x417;" horiz-adv-x="606" 
d="M293 -6c-130 0 -234 76 -259 222h138c15 -57 53 -101 122 -101c70 0 114 39 114 96c0 60 -36 96 -108 96h-92v114h93c61 0 97 33 97 90c0 55 -40 88 -103 88c-69 0 -107 -46 -121 -103h-139c25 146 129 222 261 222c139 0 241 -77 241 -197c0 -69 -37 -123 -93 -153
c63 -28 103 -84 103 -162c0 -129 -107 -212 -254 -212z" />
    <glyph glyph-name="afii10026" unicode="&#x418;" horiz-adv-x="706" 
d="M623 0h-139v457l-277 -457h-124v712h139v-456l277 456h124v-712z" />
    <glyph glyph-name="afii10027" unicode="&#x419;" horiz-adv-x="706" 
d="M516 893c-4 -108 -83 -143 -162 -143s-158 35 -162 143h98c3 -44 28 -62 64 -62s61 18 64 62h98zM623 0h-139v457l-277 -457h-124v712h139v-456l277 456h124v-712z" />
    <glyph glyph-name="afii10028" unicode="&#x41a;" horiz-adv-x="641" 
d="M224 0h-139v712h139v-712zM645 0h-170l-250 373l230 339h166l-239 -334z" />
    <glyph glyph-name="afii10029" unicode="&#x41b;" horiz-adv-x="686" 
d="M602 0h-139v588h-170v-207c0 -299 -73 -381 -221 -381h-55v124h20c71 0 122 42 122 265v323h443v-712z" />
    <glyph glyph-name="afii10030" unicode="&#x41c;" horiz-adv-x="811" 
d="M728 0h-139v415l-136 -270h-94l-137 270v-415h-139v712h137l186 -385l185 385h137v-712z" />
    <glyph glyph-name="afii10031" unicode="&#x41d;" horiz-adv-x="685" 
d="M602 0h-139v298h-241v-298h-139v712h139v-291h241v291h139v-712z" />
    <glyph glyph-name="afii10032" unicode="&#x41e;" horiz-adv-x="644" 
d="M585 356c0 -136 -2 -216 -73 -287c-48 -48 -108 -75 -190 -75s-143 27 -191 75c-71 71 -72 151 -72 287s1 216 72 287c48 48 109 75 191 75s142 -27 190 -75c71 -71 73 -151 73 -287zM446 356c0 136 -9 170 -35 200c-20 23 -51 38 -89 38s-69 -15 -90 -38
c-26 -30 -34 -64 -34 -200s8 -169 34 -199c21 -23 52 -39 90 -39s69 16 89 39c26 30 35 63 35 199z" />
    <glyph glyph-name="afii10033" unicode="&#x41f;" horiz-adv-x="685" 
d="M602 0h-139v588h-241v-588h-139v712h519v-712z" />
    <glyph glyph-name="afii10034" unicode="&#x420;" horiz-adv-x="628" 
d="M594 490c0 -121 -87 -222 -235 -222h-137v-268h-139v712h276c148 0 235 -101 235 -222zM455 490c0 58 -40 98 -103 98h-130v-195h130c63 0 103 39 103 97z" />
    <glyph glyph-name="afii10035" unicode="&#x421;" horiz-adv-x="620" 
d="M583 219c-26 -149 -129 -225 -261 -225c-82 0 -142 27 -191 75c-71 71 -72 151 -72 287s1 216 72 287c49 48 109 75 191 75c133 0 235 -76 261 -225h-142c-14 58 -50 101 -119 101c-38 0 -69 -14 -89 -37c-26 -30 -35 -65 -35 -201s9 -171 35 -201c20 -23 51 -37 89 -37
c69 0 106 43 120 101h141z" />
    <glyph glyph-name="afii10036" unicode="&#x422;" horiz-adv-x="571" 
d="M541 588h-186v-588h-139v588h-186v124h511v-124z" />
    <glyph glyph-name="afii10037" unicode="&#x423;" horiz-adv-x="581" 
d="M577 712l-252 -592c-27 -64 -76 -120 -159 -120h-85v124h56c38 0 61 16 74 45l21 49l-228 494h145l149 -343l135 343h144z" />
    <glyph glyph-name="afii10038" unicode="&#x424;" horiz-adv-x="814" 
d="M778 378c0 -181 -89 -288 -301 -296v-87h-139v87c-212 8 -300 115 -300 296s88 287 300 296v70h139v-70c212 -9 301 -115 301 -296zM340 200v356c-119 -6 -163 -62 -163 -178s44 -173 163 -178zM639 378c0 116 -44 172 -164 178v-356c120 5 164 62 164 178z" />
    <glyph glyph-name="afii10039" unicode="&#x425;" horiz-adv-x="603" 
d="M598 0h-159l-138 248l-137 -248h-159l221 365l-207 347h158l124 -230l125 230h157l-207 -347z" />
    <glyph glyph-name="afii10040" unicode="&#x426;" horiz-adv-x="712" 
d="M685 -158h-134v158h-468v712h139v-588h241v588h139v-588h83v-282z" />
    <glyph glyph-name="afii10041" unicode="&#x427;" horiz-adv-x="648" 
d="M565 0h-138v267c-37 -6 -105 -19 -181 -19c-91 0 -182 55 -182 173v291h139v-255c0 -62 39 -85 89 -85c43 0 106 9 135 15v325h138v-712z" />
    <glyph glyph-name="afii10042" unicode="&#x428;" horiz-adv-x="988" 
d="M905 0h-822v712h139v-588h203v588h139v-588h202v588h139v-712z" />
    <glyph glyph-name="afii10043" unicode="&#x429;" horiz-adv-x="1014" 
d="M987 -158h-134v158h-770v712h139v-588h203v588h139v-588h202v588h139v-588h82v-282z" />
    <glyph glyph-name="afii10044" unicode="&#x42a;" horiz-adv-x="727" 
d="M693 222c0 -130 -94 -222 -231 -222h-280v588h-152v124h291v-268h141c138 0 231 -92 231 -222zM554 222c0 58 -41 98 -103 98h-130v-196h130c62 0 103 39 103 98z" />
    <glyph glyph-name="afii10045" unicode="&#x42b;" horiz-adv-x="893" 
d="M810 0h-139v712h139v-712zM594 222c0 -130 -93 -222 -231 -222h-280v712h139v-268h141c139 0 231 -92 231 -222zM455 222c0 58 -40 98 -103 98h-130v-196h130c63 0 103 39 103 98z" />
    <glyph glyph-name="afii10046" unicode="&#x42c;" horiz-adv-x="628" 
d="M594 222c0 -130 -93 -222 -231 -222h-280v712h139v-268h141c139 0 231 -92 231 -222zM455 222c0 58 -40 98 -103 98h-130v-196h130c63 0 103 39 103 98z" />
    <glyph glyph-name="afii10047" unicode="&#x42d;" horiz-adv-x="619" 
d="M37 216h138c15 -58 53 -101 122 -101c39 0 70 15 91 39c23 26 32 56 35 143h-221v121h221c-3 84 -12 114 -35 140c-21 24 -52 39 -91 39c-69 0 -107 -43 -121 -101h-139c25 146 128 222 261 222c81 0 141 -27 190 -75c71 -71 72 -151 72 -287s-1 -216 -72 -287
c-49 -48 -109 -75 -190 -75c-132 0 -236 76 -261 222z" />
    <glyph glyph-name="afii10048" unicode="&#x42e;" horiz-adv-x="914" 
d="M855 356c0 -136 -2 -216 -73 -287c-48 -48 -108 -75 -190 -75s-143 27 -191 75c-61 60 -71 127 -72 229h-107v-298h-139v712h139v-290h107c2 97 13 162 72 221c48 48 109 75 191 75s142 -27 190 -75c71 -71 73 -151 73 -287zM716 356c0 136 -9 170 -35 200
c-20 23 -51 38 -89 38s-69 -15 -90 -38c-26 -30 -34 -64 -34 -200s8 -169 34 -199c21 -23 52 -39 90 -39s69 16 89 39c26 30 35 63 35 199z" />
    <glyph glyph-name="afii10049" unicode="&#x42f;" horiz-adv-x="650" 
d="M314 268l-117 -268h-165l147 296c-75 34 -122 104 -122 194c0 136 97 222 234 222h276v-712h-139v268h-114zM428 391v199h-130c-62 0 -103 -39 -103 -98c0 -58 41 -101 103 -101h130z" />
    <glyph glyph-name="afii10065" unicode="&#x430;" horiz-adv-x="534" 
d="M467 0h-127v45c-35 -35 -68 -50 -128 -50c-59 0 -103 16 -133 46c-28 29 -43 71 -43 117c0 83 57 151 180 151h121v26c0 57 -28 82 -97 82c-47 0 -72 -13 -100 -45l-82 81c51 56 100 74 187 74c147 0 222 -62 222 -184v-343zM337 192v28h-99c-52 0 -77 -21 -77 -60
c0 -36 25 -59 79 -59c32 0 55 4 77 25c15 13 20 33 20 66z" />
    <glyph glyph-name="afii10066" unicode="&#x431;" horiz-adv-x="548" 
d="M280 111c25 0 47 7 63 26c17 21 27 62 27 123c0 57 -9 97 -26 118c-15 20 -38 28 -64 28s-49 -7 -65 -27c-16 -21 -26 -61 -26 -118c0 -64 10 -104 29 -125c15 -18 37 -25 62 -25zM282 -6c-77 0 -146 26 -181 81c-31 49 -42 132 -42 229c0 244 17 304 83 356
c65 50 159 57 313 58v-112c-66 -5 -154 1 -213 -30c-48 -25 -66 -57 -66 -120c20 34 73 60 130 60c65 0 99 -16 128 -42c46 -43 66 -122 66 -211c0 -104 -19 -162 -64 -209c-37 -39 -92 -60 -154 -60z" />
    <glyph glyph-name="afii10067" unicode="&#x432;" horiz-adv-x="550" 
d="M498 150c0 -92 -62 -150 -160 -150h-266v521h257c98 0 161 -56 161 -143c0 -49 -21 -84 -66 -110c50 -26 74 -62 74 -118zM298 425h-97v-112h97c41 0 63 21 63 57c0 35 -22 55 -63 55zM369 157c0 38 -24 61 -65 61h-103v-122h103c41 0 65 24 65 61z" />
    <glyph glyph-name="afii10068" unicode="&#x433;" horiz-adv-x="434" 
d="M421 406h-215v-406h-130v521h345v-115z" />
    <glyph glyph-name="afii10069" unicode="&#x434;" horiz-adv-x="580" 
d="M557 -128h-123v128h-298v-128h-123v243h53c27 48 51 111 51 247v159h374v-406h66v-243zM361 115v291h-119v-68c0 -105 -14 -170 -40 -223h159z" />
    <glyph glyph-name="afii10070" unicode="&#x435;" horiz-adv-x="548" 
d="M501 220h-326c0 -68 40 -116 114 -116c57 0 85 17 118 49l79 -77c-53 -54 -104 -82 -198 -82c-123 0 -241 56 -241 267c0 170 92 266 227 266c145 0 227 -104 227 -252v-55zM373 309c-1 23 -3 37 -12 56c-14 31 -43 54 -87 54s-73 -23 -87 -54c-9 -19 -11 -33 -12 -56
h198z" />
    <glyph glyph-name="afii10072" unicode="&#x436;" horiz-adv-x="763" 
d="M769 0h-152l-169 273l161 248h149l-171 -243zM447 0h-131v521h131v-521zM147 0h-153l183 278l-171 243h149l160 -248z" />
    <glyph glyph-name="afii10073" unicode="&#x437;" horiz-adv-x="496" 
d="M444 154c0 -97 -93 -160 -199 -160c-82 0 -166 18 -228 74l75 81c36 -32 83 -45 131 -45c47 0 92 19 92 59c0 39 -29 56 -75 56h-79v93h77c43 0 71 22 71 57c0 36 -36 53 -89 53c-39 0 -79 -12 -113 -36l-72 80c59 46 133 61 210 61c101 0 191 -49 191 -141
c0 -49 -29 -92 -71 -113c47 -19 79 -63 79 -119z" />
    <glyph glyph-name="afii10074" unicode="&#x438;" horiz-adv-x="589" 
d="M517 0h-131v318l-183 -318h-131v521h131v-310l183 310h131v-521z" />
    <glyph glyph-name="afii10075" unicode="&#x439;" horiz-adv-x="589" 
d="M456 722c-3 -108 -83 -143 -162 -143s-158 35 -162 143h98c3 -44 28 -62 64 -62s61 18 64 62h98zM517 0h-131v318l-183 -318h-131v521h131v-310l183 310h131v-521z" />
    <glyph glyph-name="afii10076" unicode="&#x43a;" horiz-adv-x="534" 
d="M204 0h-131v521h131v-521zM540 0h-156l-179 273l171 248h152l-184 -243z" />
    <glyph glyph-name="afii10077" unicode="&#x43b;" horiz-adv-x="571" 
d="M498 0h-130v406h-125v-125c0 -223 -61 -281 -167 -281h-62v115h16c44 0 87 8 87 195v211h381v-521z" />
    <glyph glyph-name="afii10078" unicode="&#x43c;" horiz-adv-x="677" 
d="M604 0h-130v301l-98 -193h-74l-99 193v-301h-131v521h129l138 -274l137 274h128v-521z" />
    <glyph glyph-name="afii10079" unicode="&#x43d;" horiz-adv-x="573" 
d="M501 0h-131v209h-167v-209h-131v521h131v-197h167v197h131v-521z" />
    <glyph glyph-name="afii10080" unicode="&#x43e;" 
d="M492 261c0 -94 -11 -154 -59 -203c-33 -34 -85 -64 -162 -64s-128 30 -161 64c-47 50 -59 109 -59 203s12 152 59 202c33 34 84 64 161 64s129 -29 162 -64c47 -50 59 -108 59 -202zM362 261c0 53 -3 100 -30 126c-15 15 -35 23 -61 23c-25 0 -45 -8 -60 -23
c-27 -26 -30 -73 -30 -126c0 -54 3 -101 30 -127c15 -15 35 -23 60 -23c26 0 46 8 61 23c27 26 30 73 30 127z" />
    <glyph glyph-name="afii10081" unicode="&#x43f;" horiz-adv-x="568" 
d="M501 0h-131v406h-167v-406h-131v521h429v-521z" />
    <glyph glyph-name="afii10082" unicode="&#x440;" horiz-adv-x="560" 
d="M509 261c0 -87 -4 -169 -54 -220c-29 -30 -75 -47 -126 -47c-53 0 -93 14 -126 52v-237h-130v712h126v-49c36 40 74 55 130 55c51 0 97 -17 126 -47c50 -51 54 -132 54 -219zM379 261c0 84 -10 149 -88 149s-88 -65 -88 -149s10 -150 88 -150s88 66 88 150z" />
    <glyph glyph-name="afii10083" unicode="&#x441;" horiz-adv-x="480" 
d="M452 65c-46 -48 -100 -71 -172 -71c-104 0 -233 56 -233 267s129 266 233 266c72 0 126 -22 172 -70l-88 -88c-27 29 -50 41 -84 41c-31 0 -55 -11 -74 -34c-20 -25 -29 -60 -29 -115s9 -91 29 -116c19 -23 43 -34 74 -34c34 0 57 12 84 41z" />
    <glyph glyph-name="afii10084" unicode="&#x442;" horiz-adv-x="456" 
d="M445 406h-150v-406h-131v406h-153v115h434v-115z" />
    <glyph glyph-name="afii10085" unicode="&#x443;" horiz-adv-x="494" 
d="M490 521l-223 -605c-28 -75 -72 -107 -151 -107h-51v117h30c38 0 52 10 65 47l22 64l-178 484h137l108 -322l104 322h137z" />
    <glyph glyph-name="afii10086" unicode="&#x444;" horiz-adv-x="726" 
d="M681 264c0 -176 -100 -260 -253 -269v-186h-130v186c-153 9 -253 93 -253 269c0 175 98 253 253 262v186h130v-186c155 -9 253 -87 253 -262zM550 263c0 100 -41 146 -124 147v-299c81 2 124 52 124 152zM300 111v299c-83 -1 -124 -47 -124 -147s43 -150 124 -152z" />
    <glyph glyph-name="afii10087" unicode="&#x445;" horiz-adv-x="527" 
d="M515 0h-156l-96 156l-95 -156h-156l180 266l-173 255h156l88 -149l89 149h156l-173 -255z" />
    <glyph glyph-name="afii10088" unicode="&#x446;" horiz-adv-x="594" 
d="M571 -128h-124v128h-375v521h131v-406h167v406h131v-406h70v-243z" />
    <glyph glyph-name="afii10089" unicode="&#x447;" horiz-adv-x="548" 
d="M476 0h-130v183c-34 -6 -82 -14 -142 -14c-83 0 -146 52 -146 142v210h130v-174c0 -43 24 -63 64 -63c34 0 71 6 94 9v228h130v-521z" />
    <glyph glyph-name="afii10090" unicode="&#x448;" horiz-adv-x="822" 
d="M749 0h-677v521h131v-406h143v406h130v-406h143v406h130v-521z" />
    <glyph glyph-name="afii10091" unicode="&#x449;" horiz-adv-x="843" 
d="M819 -128h-123v128h-624v521h131v-406h143v406h130v-406h143v406h130v-406h70v-243z" />
    <glyph glyph-name="afii10092" unicode="&#x44a;" horiz-adv-x="590" 
d="M558 167c0 -98 -70 -167 -173 -167h-251v406h-122v115h253v-188h120c103 0 173 -68 173 -166zM361 231h-100v-129h100c42 0 69 25 69 65c0 39 -27 64 -69 64z" />
    <glyph glyph-name="afii10093" unicode="&#x44b;" horiz-adv-x="763" 
d="M687 0h-131v521h131v-521zM495 167c0 -98 -71 -167 -174 -167h-249v521h131v-188h118c103 0 174 -68 174 -166zM297 231h-98v-129h98c42 0 69 25 69 65c0 39 -27 64 -69 64z" />
    <glyph glyph-name="afii10094" unicode="&#x44c;" horiz-adv-x="529" 
d="M496 167c0 -98 -71 -167 -173 -167h-251v521h131v-188h120c103 0 173 -68 173 -166zM299 231h-100v-129h100c42 0 68 25 68 65c0 39 -26 64 -68 64z" />
    <glyph glyph-name="afii10095" unicode="&#x44d;" horiz-adv-x="480" 
d="M199 527c148 0 234 -97 234 -263c0 -173 -84 -270 -234 -270c-73 0 -118 21 -171 70l87 86c30 -30 50 -42 85 -42c65 0 96 45 103 111h-153v89h153c-9 64 -42 105 -104 105c-34 0 -55 -13 -84 -42l-87 86c53 49 98 70 171 70z" />
    <glyph glyph-name="afii10096" unicode="&#x44e;" horiz-adv-x="774" 
d="M722 261c0 -94 -11 -154 -59 -203c-33 -34 -85 -64 -162 -64s-128 30 -161 64c-38 40 -53 87 -58 153h-79v-211h-131v521h131v-200h80c5 60 21 103 57 142c33 34 84 64 161 64s129 -29 162 -64c47 -50 59 -108 59 -202zM592 261c0 53 -3 100 -30 126
c-15 15 -35 23 -61 23c-25 0 -45 -8 -60 -23c-27 -26 -30 -73 -30 -126c0 -54 3 -101 30 -127c15 -15 35 -23 60 -23c26 0 46 8 61 23c27 26 30 73 30 127z" />
    <glyph glyph-name="afii10097" unicode="&#x44f;" horiz-adv-x="535" 
d="M335 288v129h-102c-43 0 -69 -26 -69 -65c0 -38 26 -64 69 -64h102zM177 0h-148l105 213c-58 22 -97 74 -97 145c0 95 71 163 173 163h253v-521h-130v185h-70z" />
    <glyph glyph-name="uni0450" unicode="&#x450;" horiz-adv-x="548" 
d="M332 604h-87l-114 170h137zM501 220h-326c0 -68 40 -116 114 -116c57 0 85 17 118 49l79 -77c-53 -54 -104 -82 -198 -82c-123 0 -241 56 -241 267c0 170 92 266 227 266c145 0 227 -104 227 -252v-55zM373 309c-1 23 -3 37 -12 56c-14 31 -43 54 -87 54s-73 -23 -87 -54
c-9 -19 -11 -33 -12 -56h198z" />
    <glyph glyph-name="afii10071" unicode="&#x451;" horiz-adv-x="548" 
d="M501 220h-326c0 -68 40 -116 114 -116c57 0 85 17 118 49l79 -77c-53 -54 -104 -82 -198 -82c-123 0 -241 56 -241 267c0 170 92 266 227 266c145 0 227 -104 227 -252v-55zM373 309c-1 23 -3 37 -12 56c-14 31 -43 54 -87 54s-73 -23 -87 -54c-9 -19 -11 -33 -12 -56
h198zM443 606h-111v125h111v-125zM222 606h-111v125h111v-125z" />
    <glyph glyph-name="afii10099" unicode="&#x452;" horiz-adv-x="573" 
d="M506 -26c0 -90 -39 -169 -171 -169h-60v110h36c46 0 65 36 65 68v281c0 71 -45 95 -86 95s-87 -24 -87 -95v-264h-130v525h-47v100h47v87h130v-87h229v-100h-229v-103c33 36 77 54 127 54c52 0 94 -17 123 -46c42 -42 53 -91 53 -148v-308z" />
    <glyph glyph-name="afii10100" unicode="&#x453;" horiz-adv-x="434" 
d="M421 406h-215v-406h-130v521h345v-115zM368 774l-114 -170h-87l64 170h137z" />
    <glyph glyph-name="afii10101" unicode="&#x454;" horiz-adv-x="480" 
d="M452 64c-52 -49 -97 -70 -171 -70c-149 0 -234 97 -234 270c0 166 87 263 234 263c74 0 118 -21 171 -70l-86 -86c-30 29 -50 42 -85 42c-62 0 -95 -41 -103 -105h155v-89h-155c7 -66 38 -111 103 -111c35 0 55 12 85 42z" />
    <glyph glyph-name="afii10102" unicode="&#x455;" horiz-adv-x="501" 
d="M465 164c0 -115 -98 -170 -221 -170c-82 0 -156 9 -222 75l85 85c43 -43 99 -49 139 -49c45 0 92 15 92 54c0 26 -14 44 -55 48l-82 8c-94 9 -152 50 -152 146c0 108 95 166 201 166c81 0 149 -14 199 -61l-80 -81c-30 27 -76 35 -121 35c-52 0 -74 -24 -74 -50
c0 -19 8 -41 54 -45l82 -8c103 -10 155 -65 155 -153z" />
    <glyph glyph-name="afii10103" unicode="&#x456;" horiz-adv-x="275" 
d="M203 0h-130v506h130v-506zM204 610h-133v106h133v-106z" />
    <glyph glyph-name="afii10104" unicode="&#x457;" horiz-adv-x="275" 
d="M203 0h-130v506h130v-506zM304 606h-111v125h111v-125zM83 606h-111v125h111v-125z" />
    <glyph glyph-name="afii10105" unicode="&#x458;" horiz-adv-x="275" 
d="M203 -46c0 -74 -45 -149 -152 -149h-74v110h50c33 0 46 16 46 47v544h130v-552zM204 610h-133v106h133v-106z" />
    <glyph glyph-name="afii10106" unicode="&#x459;" horiz-adv-x="824" 
d="M664 167c0 39 -27 64 -69 64h-100v-129h100c42 0 69 25 69 65zM117 521h381v-188h121c103 0 174 -68 174 -166s-71 -167 -174 -167h-251v406h-125v-125c0 -223 -61 -281 -167 -281h-62v115h16c44 0 87 8 87 195v211z" />
    <glyph glyph-name="afii10107" unicode="&#x45a;" horiz-adv-x="827" 
d="M795 167c0 -98 -71 -167 -173 -167h-252v218h-167v-218h-131v521h131v-188h167v188h131v-188h121c103 0 173 -68 173 -166zM666 167c0 39 -26 64 -69 64h-100v-129h100c43 0 69 25 69 65z" />
    <glyph glyph-name="afii10108" unicode="&#x45b;" horiz-adv-x="573" 
d="M506 0h-130v264c0 71 -45 95 -86 95s-87 -24 -87 -95v-264h-130v525h-47v100h47v87h130v-87h229v-100h-229v-103c33 36 77 54 127 54c52 0 94 -17 123 -46c42 -42 53 -91 53 -148v-282z" />
    <glyph glyph-name="afii10109" unicode="&#x45c;" horiz-adv-x="534" 
d="M204 0h-131v521h131v-521zM540 0h-156l-179 273l171 248h152l-184 -243zM426 774l-114 -170h-87l64 170h137z" />
    <glyph glyph-name="uni045D" unicode="&#x45d;" horiz-adv-x="589" 
d="M517 0h-131v318l-183 -318h-131v521h131v-310l183 310h131v-521zM343 604h-87l-114 170h137z" />
    <glyph glyph-name="afii10110" unicode="&#x45e;" horiz-adv-x="494" 
d="M411 722c-3 -108 -83 -143 -162 -143s-158 35 -162 143h98c3 -44 28 -62 64 -62s61 18 64 62h98zM490 521l-223 -605c-28 -75 -72 -107 -151 -107h-51v117h30c38 0 52 10 65 47l22 64l-178 484h137l108 -322l104 322h137z" />
    <glyph glyph-name="afii10193" unicode="&#x45f;" horiz-adv-x="573" 
d="M501 0h-154v-128h-123v128h-152v521h131v-406h167v406h131v-521z" />
    <glyph glyph-name="afii10146" unicode="&#x462;" horiz-adv-x="651" 
d="M617 222c0 -130 -93 -222 -231 -222h-280v528h-69v106h69v78h139v-78h116v-106h-116v-84h141c139 0 231 -92 231 -222zM478 222c0 58 -40 98 -103 98h-130v-196h130c63 0 103 39 103 98z" />
    <glyph glyph-name="afii10194" unicode="&#x463;" horiz-adv-x="553" 
d="M520 167c0 -98 -71 -167 -173 -167h-251v400h-59v82h59v39h131v-39h89v-82h-89v-67h120c103 0 173 -68 173 -166zM323 231h-100v-129h100c42 0 68 25 68 65c0 39 -26 64 -68 64z" />
    <glyph glyph-name="afii10147" unicode="&#x472;" horiz-adv-x="644" 
d="M585 356c0 -136 -2 -216 -73 -287c-48 -48 -108 -75 -190 -75s-142 27 -191 75c-71 71 -72 151 -72 287s1 216 72 287c49 48 109 75 191 75s142 -27 190 -75c71 -71 73 -151 73 -287zM411 157c23 25 32 53 34 143h-247c3 -90 12 -118 34 -143c21 -23 52 -39 90 -39
s69 16 89 39zM232 556c-22 -25 -31 -53 -33 -137h246c-3 84 -12 112 -34 137c-20 23 -51 38 -89 38s-69 -15 -90 -38z" />
    <glyph glyph-name="afii10195" unicode="&#x473;" 
d="M492 261c0 -95 -12 -154 -59 -203c-32 -34 -85 -64 -162 -64s-129 30 -161 64c-47 49 -59 108 -59 203c0 94 12 153 59 202c32 34 84 64 161 64s130 -30 162 -64c47 -49 59 -108 59 -202zM332 134c20 20 26 50 29 86h-179c2 -36 9 -66 29 -86c15 -15 34 -23 60 -23
s46 8 61 23zM211 387c-19 -19 -26 -46 -29 -78h178c-2 32 -10 59 -28 78c-15 15 -35 23 -61 23s-45 -8 -60 -23z" />
    <glyph glyph-name="afii10148" unicode="&#x474;" horiz-adv-x="581" 
d="M290 248l106 344c20 66 76 120 159 120h85v-124h-44c-38 0 -64 -15 -74 -45l-180 -543h-104l-235 712h144z" />
    <glyph glyph-name="afii10196" unicode="&#x475;" horiz-adv-x="493" 
d="M429 357l-131 -357h-102l-192 521h137l106 -322l70 215c24 74 72 107 151 107h51v-117h-25c-38 0 -51 -10 -65 -47z" />
    <glyph glyph-name="afii10050" unicode="&#x490;" horiz-adv-x="561" 
d="M534 588h-309v-588h-139v712h314v158h134v-282z" />
    <glyph glyph-name="afii10098" unicode="&#x491;" horiz-adv-x="434" 
d="M421 406h-215v-406h-130v521h222v128h123v-243z" />
    <glyph glyph-name="uni0492" unicode="&#x492;" horiz-adv-x="581" 
d="M554 588h-309v-176h116v-106h-116v-306h-139v306h-69v106h69v300h448v-124z" />
    <glyph glyph-name="uni0493" unicode="&#x493;" horiz-adv-x="455" 
d="M316 245h-89v-245h-130v245h-60v82h60v194h345v-115h-215v-79h89v-82z" />
    <glyph glyph-name="uni0496" unicode="&#x496;" horiz-adv-x="941" 
d="M923 712l-233 -334l172 -254h85v-282h-134v158h-34l-238 373l218 339h164zM162 0h-168l257 378l-233 334h164l218 -339zM540 0h-139v712h139v-712z" />
    <glyph glyph-name="uni0497" unicode="&#x497;" horiz-adv-x="763" 
d="M758 521l-171 -243l106 -163h76v-243h-123v128h-29l-169 273l161 248h149zM147 0h-153l183 278l-171 243h149l160 -248zM447 0h-131v521h131v-521z" />
    <glyph glyph-name="uni049A" unicode="&#x49a;" horiz-adv-x="640" 
d="M621 712l-239 -334l176 -254h87v-282h-134v158h-36l-250 373l230 339h166zM224 0h-139v712h139v-712z" />
    <glyph glyph-name="uni049B" unicode="&#x49b;" horiz-adv-x="533" 
d="M540 -128h-123v128h-33l-179 273l171 248h152l-184 -243l115 -163h81v-243zM204 0h-131v521h131v-521z" />
    <glyph glyph-name="uni049C" unicode="&#x49c;" horiz-adv-x="721" 
d="M725 0h-167l-171 301h-27v-138h-92v138h-44v-301h-139v712h139v-287h44v138h92v-138h27l151 287h163l-199 -346z" />
    <glyph glyph-name="uni049D" unicode="&#x49d;" horiz-adv-x="609" 
d="M615 0h-155l-101 211h-29v-117h-91v117h-36v-211h-130v521h130v-202h36v117h91v-117h24l98 202h152l-134 -244z" />
    <glyph glyph-name="uni04A2" unicode="&#x4a2;" horiz-adv-x="685" 
d="M602 712v-588h64v-282h-134v158h-69v298h-241v-298h-139v712h139v-291h241v291h139z" />
    <glyph glyph-name="uni04A3" unicode="&#x4a3;" horiz-adv-x="573" 
d="M501 521v-406h57v-243h-123v128h-65v209h-167v-209h-131v521h131v-197h167v197h131z" />
    <glyph glyph-name="uni04AE" unicode="&#x4ae;" horiz-adv-x="572" 
d="M569 712l-214 -420v-292h-138v292l-214 420h151l133 -287l131 287h151z" />
    <glyph glyph-name="uni04AF" unicode="&#x4af;" horiz-adv-x="494" 
d="M490 521l-179 -506v-206h-129v206l-178 506h138l106 -340l104 340h138z" />
    <glyph glyph-name="uni04B0" unicode="&#x4b0;" horiz-adv-x="572" 
d="M569 712l-214 -420h94v-106h-94v-186h-138v186h-92v106h92l-214 420h151l133 -287l131 287h151z" />
    <glyph glyph-name="uni04B1" unicode="&#x4b1;" horiz-adv-x="494" 
d="M490 521l-179 -506h77v-82h-77v-124h-129v124h-73v82h73l-178 506h138l106 -340l104 340h138z" />
    <glyph glyph-name="uni04B2" unicode="&#x4b2;" horiz-adv-x="603" 
d="M583 712l-207 -347l146 -241h76v-282h-134v158h-25l-138 248l-137 -248h-159l221 365l-207 347h158l124 -230l125 230h157z" />
    <glyph glyph-name="uni04B3" unicode="&#x4b3;" horiz-adv-x="527" 
d="M508 521l-173 -255l102 -151h78v-243h-123v128h-33l-96 156l-95 -156h-156l180 266l-173 255h156l88 -149l89 149h156z" />
    <glyph glyph-name="uni04B6" unicode="&#x4b6;" horiz-adv-x="649" 
d="M565 712v-588h65v-282h-134v158h-69v267c-37 -6 -105 -19 -181 -19c-91 0 -182 55 -182 173v291h139v-255c0 -62 39 -85 89 -85c43 0 106 9 135 15v325h138z" />
    <glyph glyph-name="uni04B7" unicode="&#x4b7;" horiz-adv-x="548" 
d="M476 521v-406h58v-243h-123v128h-65v183c-34 -6 -82 -14 -142 -14c-83 0 -146 52 -146 142v210h130v-174c0 -43 24 -63 64 -63c34 0 71 6 94 9v228h130z" />
    <glyph glyph-name="uni04B8" unicode="&#x4b8;" horiz-adv-x="664" 
d="M371 111h-99v137h-19c-95 0 -189 55 -189 173v291h139v-255c0 -52 26 -72 69 -81v134h99v-134c22 2 53 7 70 11v325h139v-712h-139v267c-23 -5 -51 -9 -70 -11v-145z" />
    <glyph glyph-name="uni04B9" unicode="&#x4b9;" horiz-adv-x="564" 
d="M315 55h-80v114h-14c-92 0 -163 52 -163 142v210h130v-174c0 -33 17 -49 47 -57v108h80v-111c17 1 34 4 47 7v227h130v-521h-130v183c-14 -3 -29 -6 -47 -8v-120z" />
    <glyph glyph-name="uni04BA" unicode="&#x4ba;" horiz-adv-x="648" 
d="M83 712h138v-267c37 6 105 19 181 19c91 0 182 -55 182 -173v-291h-139v255c0 62 -39 85 -89 85c-43 0 -106 -9 -135 -15v-325h-138v712z" />
    <glyph glyph-name="uni04BB" unicode="&#x4bb;" horiz-adv-x="548" 
d="M72 521h130v-183c34 6 82 14 142 14c83 0 146 -52 146 -142v-210h-130v174c0 43 -24 63 -64 63c-34 0 -71 -6 -94 -9v-228h-130v521z" />
    <glyph glyph-name="uni04C0" unicode="&#x4c0;" horiz-adv-x="305" 
d="M222 0h-139v712h139v-712z" />
    <glyph glyph-name="uni04CF" unicode="&#x4cf;" horiz-adv-x="266" 
d="M198 0h-130v712h130v-712z" />
    <glyph glyph-name="uni04D8" unicode="&#x4d8;" horiz-adv-x="649" 
d="M590 356c0 -136 -1 -217 -72 -287c-49 -48 -109 -75 -190 -75c-77 0 -143 20 -201 81c-52 55 -68 114 -68 217v104h391c-1 101 -10 132 -34 160c-20 23 -50 38 -88 38c-71 0 -112 -36 -128 -104h-140c18 120 102 228 268 228c81 0 141 -27 190 -75
c69 -68 72 -151 72 -287zM449 279h-252v-26c0 -37 9 -69 32 -95c22 -25 56 -40 99 -40c38 0 68 14 88 37c22 24 30 51 33 124z" />
    <glyph glyph-name="afii10846" unicode="&#x4d9;" horiz-adv-x="548" 
d="M47 301h326c0 68 -40 116 -114 116c-57 0 -85 -17 -118 -49l-79 77c53 54 104 82 198 82c123 0 241 -56 241 -267c0 -170 -92 -266 -227 -266c-145 0 -227 104 -227 252v55zM175 212c1 -23 3 -37 12 -56c14 -31 43 -54 87 -54s73 23 87 54c9 19 11 33 12 56h-198z" />
    <glyph glyph-name="uni04E2" unicode="&#x4e2;" horiz-adv-x="706" 
d="M623 0h-139v457l-277 -457h-124v712h139v-456l277 456h124v-712zM194 793v88h317v-88h-317z" />
    <glyph glyph-name="uni04E3" unicode="&#x4e3;" horiz-adv-x="589" 
d="M517 0h-131v318l-183 -318h-131v521h131v-310l183 310h131v-521zM453 623h-317v88h317v-88z" />
    <glyph glyph-name="uni04E8" unicode="&#x4e8;" horiz-adv-x="644" 
d="M585 356c0 -136 -2 -216 -73 -287c-48 -48 -108 -75 -190 -75s-142 27 -191 75c-71 71 -72 151 -72 287s1 216 72 287c49 48 109 75 191 75s142 -27 190 -75c71 -71 73 -151 73 -287zM411 157c23 25 32 53 34 143h-247c3 -90 12 -118 34 -143c21 -23 52 -39 90 -39
s69 16 89 39zM232 556c-22 -25 -31 -53 -33 -137h246c-3 84 -12 112 -34 137c-20 23 -51 38 -89 38s-69 -15 -90 -38z" />
    <glyph glyph-name="uni04E9" unicode="&#x4e9;" 
d="M492 261c0 -95 -12 -154 -59 -203c-32 -34 -85 -64 -162 -64s-129 30 -161 64c-47 49 -59 108 -59 203c0 94 12 153 59 202c32 34 84 64 161 64s130 -30 162 -64c47 -49 59 -108 59 -202zM332 134c20 20 26 50 29 86h-179c2 -36 9 -66 29 -86c15 -15 34 -23 60 -23
s46 8 61 23zM211 387c-19 -19 -26 -46 -29 -78h178c-2 32 -10 59 -28 78c-15 15 -35 23 -61 23s-45 -8 -60 -23z" />
    <glyph glyph-name="uni04EE" unicode="&#x4ee;" horiz-adv-x="581" 
d="M577 712l-252 -592c-27 -64 -76 -120 -159 -120h-85v124h56c38 0 61 16 74 45l21 49l-228 494h145l149 -343l135 343h144zM141 793v88h317v-88h-317z" />
    <glyph glyph-name="uni04EF" unicode="&#x4ef;" horiz-adv-x="494" 
d="M490 521l-223 -605c-28 -75 -72 -107 -151 -107h-51v117h30c38 0 52 10 65 47l22 64l-178 484h137l108 -322l104 322h137zM406 623h-317v88h317v-88z" />
    <glyph glyph-name="Wgrave" unicode="&#x1e80;" horiz-adv-x="887" 
d="M881 712l-191 -712h-116l-131 432l-131 -432h-116l-190 712h145l110 -449l130 449h104l130 -449l111 449h145zM488 781h-87l-114 170h137z" />
    <glyph glyph-name="wgrave" unicode="&#x1e81;" horiz-adv-x="759" 
d="M755 521l-159 -521h-107l-109 327l-109 -327h-107l-160 521h138l84 -322l106 322h95l107 -322l84 322h137zM424 604h-87l-114 170h137z" />
    <glyph glyph-name="Wacute" unicode="&#x1e82;" horiz-adv-x="887" 
d="M881 712l-191 -712h-116l-131 432l-131 -432h-116l-190 712h145l110 -449l130 449h104l130 -449l111 449h145zM600 951l-114 -170h-87l64 170h137z" />
    <glyph glyph-name="wacute" unicode="&#x1e83;" horiz-adv-x="759" 
d="M755 521l-159 -521h-107l-109 327l-109 -327h-107l-160 521h138l84 -322l106 322h95l107 -322l84 322h137zM537 774l-114 -170h-87l64 170h137z" />
    <glyph glyph-name="Wdieresis" unicode="&#x1e84;" horiz-adv-x="887" 
d="M881 712l-191 -712h-116l-131 432l-131 -432h-116l-190 712h145l110 -449l130 449h104l130 -449l111 449h145zM609 783h-111v125h111v-125zM388 783h-111v125h111v-125z" />
    <glyph glyph-name="wdieresis" unicode="&#x1e85;" horiz-adv-x="759" 
d="M755 521l-159 -521h-107l-109 327l-109 -327h-107l-160 521h138l84 -322l106 322h95l107 -322l84 322h137zM545 606h-111v125h111v-125zM324 606h-111v125h111v-125z" />
    <glyph glyph-name="uni1E8A" unicode="&#x1e8a;" horiz-adv-x="603" 
d="M598 0h-159l-138 248l-137 -248h-159l221 365l-207 347h158l124 -230l125 230h157l-207 -347zM244 789v116h115v-116h-115z" />
    <glyph glyph-name="uni1E8B" unicode="&#x1e8b;" horiz-adv-x="527" 
d="M515 0h-156l-96 156l-95 -156h-156l180 266l-173 255h156l88 -149l89 149h156l-173 -255zM206 612v115h115v-115h-115z" />
    <glyph glyph-name="Ygrave" unicode="&#x1ef2;" horiz-adv-x="572" 
d="M569 712l-214 -420v-292h-138v292l-214 420h151l133 -287l131 287h151zM332 781h-87l-114 170h137z" />
    <glyph glyph-name="ygrave" unicode="&#x1ef3;" horiz-adv-x="494" 
d="M490 521l-223 -605c-11 -29 -23 -51 -39 -67c-30 -30 -69 -40 -112 -40h-51v117h30c37 0 52 9 65 47l22 64l-178 484h137l108 -322l104 322h137zM283 604h-87l-114 170h137z" />
    <glyph glyph-name="uni2007" unicode="&#x2007;" 
 />
    <glyph glyph-name="uni2008" unicode="&#x2008;" horiz-adv-x="285" 
 />
    <glyph glyph-name="uni200B" unicode="&#x200b;" horiz-adv-x="0" 
 />
    <glyph glyph-name="endash" unicode="&#x2013;" 
d="M493 225h-443v121h443v-121z" />
    <glyph glyph-name="emdash" unicode="&#x2014;" horiz-adv-x="1027" 
d="M968 226h-909v125h909v-125z" />
    <glyph glyph-name="afii00208" unicode="&#x2015;" horiz-adv-x="1027" 
d="M968 226h-909v125h909v-125z" />
    <glyph glyph-name="quoteleft" unicode="&#x2018;" horiz-adv-x="273" 
d="M204 589h-136v123l136 105v-228z" />
    <glyph glyph-name="quoteright" unicode="&#x2019;" horiz-adv-x="273" 
d="M204 588l-136 -103v227h136v-124z" />
    <glyph glyph-name="quotesinglbase" unicode="&#x201a;" horiz-adv-x="271" 
d="M204 0l-136 -104v228h136v-124z" />
    <glyph glyph-name="quotedblleft" unicode="&#x201c;" horiz-adv-x="482" 
d="M414 589h-136v123l136 105v-228zM203 589h-135v123l135 105v-228z" />
    <glyph glyph-name="quotedblright" unicode="&#x201d;" horiz-adv-x="482" 
d="M414 588l-136 -103v227h136v-124zM203 588l-135 -103v227h135v-124z" />
    <glyph glyph-name="quotedblbase" unicode="&#x201e;" horiz-adv-x="485" 
d="M414 0l-136 -104v228h136v-124zM203 0l-135 -104v228h135v-124z" />
    <glyph glyph-name="dagger" unicode="&#x2020;" horiz-adv-x="579" 
d="M522 410h-168v-410h-130v410h-167v117h167v185h130v-185h168v-117z" />
    <glyph glyph-name="daggerdbl" unicode="&#x2021;" horiz-adv-x="579" 
d="M522 -6h-168v-185h-130v185h-167v117h167v299h-167v117h167v185h130v-185h168v-117h-168v-299h168v-117z" />
    <glyph glyph-name="bullet" unicode="&#x2022;" horiz-adv-x="493" 
d="M409 334c0 -90 -73 -163 -163 -163s-163 73 -163 163s73 163 163 163s163 -73 163 -163z" />
    <glyph glyph-name="ellipsis" unicode="&#x2026;" horiz-adv-x="846" 
d="M210 0h-142v141h142v-141zM493 0h-141v141h141v-141zM778 0h-141v141h141v-141z" />
    <glyph glyph-name="perthousand" unicode="&#x2030;" horiz-adv-x="1211" 
d="M1158 131c0 -90 -67 -137 -145 -137c-79 0 -145 47 -145 137v99c0 90 66 137 145 137c78 0 145 -47 145 -137v-99zM796 131c0 -90 -67 -137 -145 -137c-79 0 -145 47 -145 137v99c0 90 66 137 145 137c78 0 145 -47 145 -137v-99zM342 482c0 -90 -67 -137 -145 -137
c-79 0 -145 47 -145 137v99c0 90 66 137 145 137c78 0 145 -47 145 -137v-99zM644 712l-337 -712h-102l337 712h102zM1064 134v92c0 38 -19 57 -51 57c-33 0 -51 -19 -51 -57v-91c0 -38 18 -57 51 -57c32 0 51 18 51 56zM702 135v91c0 38 -19 57 -51 57
c-33 0 -51 -19 -51 -57v-91c0 -38 18 -57 51 -57c32 0 51 19 51 57zM248 486v91c0 38 -19 57 -51 57c-33 0 -51 -19 -51 -57v-91c0 -38 19 -57 51 -57s51 19 51 57z" />
    <glyph glyph-name="guilsinglleft" unicode="&#x2039;" horiz-adv-x="350" 
d="M283 27l-249 248l249 248v-155l-94 -93l94 -93v-155z" />
    <glyph glyph-name="guilsinglright" unicode="&#x203a;" horiz-adv-x="350" 
d="M316 275l-249 -248v155l95 93l-95 93v155z" />
    <glyph glyph-name="fraction" unicode="&#x2044;" horiz-adv-x="208" 
d="M323 712l-337 -712h-101l337 712h101z" />
    <glyph glyph-name="uni2070" unicode="&#x2070;" horiz-adv-x="332" 
d="M302 414c0 -87 -65 -133 -136 -133c-70 0 -136 46 -136 133v170c0 86 66 132 136 132c71 0 136 -46 136 -132v-170zM208 412v172c0 31 -19 48 -42 48s-41 -17 -41 -48v-172c0 -31 18 -46 41 -46s42 16 42 46z" />
    <glyph glyph-name="uni2074" unicode="&#x2074;" horiz-adv-x="332" 
d="M317 342h-33v-57h-90v57h-176v89l143 281h103l-144 -281h74v62h90v-62h33v-89z" />
    <glyph glyph-name="uni2075" unicode="&#x2075;" horiz-adv-x="332" 
d="M305 429c0 -50 -9 -82 -39 -112c-17 -17 -51 -36 -98 -36s-82 17 -100 36c-29 29 -34 57 -37 95h94c3 -29 16 -46 43 -46c12 0 23 4 30 12c10 10 13 29 13 51c0 45 -13 64 -43 64c-26 0 -38 -14 -42 -30h-87v249h257v-85h-171v-73c14 11 33 18 58 18c37 0 65 -12 83 -30
c34 -34 39 -72 39 -113z" />
    <glyph glyph-name="uni2076" unicode="&#x2076;" horiz-adv-x="332" 
d="M305 418c0 -89 -64 -137 -141 -137c-76 0 -140 47 -140 137c0 31 9 59 36 115l88 179h103l-85 -169c8 3 16 3 25 3c53 0 114 -45 114 -128zM210 418c0 34 -19 53 -46 53c-25 0 -45 -18 -45 -53s20 -54 45 -54c26 0 46 19 46 54z" />
    <glyph glyph-name="uni2077" unicode="&#x2077;" horiz-adv-x="332" 
d="M311 628l-135 -343h-94l134 342h-108v-69h-86v154h289v-84z" />
    <glyph glyph-name="uni2078" unicode="&#x2078;" horiz-adv-x="332" 
d="M308 412c0 -88 -64 -131 -142 -131s-142 43 -142 131c0 47 25 75 49 93c-20 16 -44 42 -44 85c0 80 64 126 137 126s138 -46 138 -126c0 -43 -24 -69 -45 -85c24 -18 49 -46 49 -93zM214 414c0 27 -21 49 -48 49s-48 -22 -48 -49s21 -48 48 -48s48 21 48 48zM209 588
c0 24 -18 43 -43 43s-43 -19 -43 -43c0 -25 19 -45 43 -45c25 0 43 20 43 45z" />
    <glyph glyph-name="uni2079" unicode="&#x2079;" horiz-adv-x="332" 
d="M308 579c0 -37 -12 -66 -36 -115l-88 -179h-103l85 169c-7 -3 -16 -3 -25 -3c-53 0 -114 45 -114 128c0 89 64 137 141 137c76 0 140 -47 140 -137zM214 580c0 32 -20 51 -46 51s-46 -19 -46 -51c0 -31 19 -53 46 -53c25 0 46 20 46 53z" />
    <glyph glyph-name="uni2080" unicode="&#x2080;" horiz-adv-x="332" 
d="M302 -21c0 -87 -65 -133 -136 -133c-70 0 -136 46 -136 133v170c0 86 66 132 136 132c71 0 136 -46 136 -132v-170zM208 -23v172c0 31 -19 48 -42 48s-41 -17 -41 -48v-172c0 -31 18 -46 41 -46s42 16 42 46z" />
    <glyph glyph-name="uni2081" unicode="&#x2081;" horiz-adv-x="332" 
d="M239 -150h-95v321l-90 -78v106l90 78h95v-427z" />
    <glyph glyph-name="uni2082" unicode="&#x2082;" horiz-adv-x="332" 
d="M306 -150h-272v85l156 171c16 17 22 29 22 47c0 26 -15 43 -42 43c-20 0 -42 -9 -42 -44h-94c0 83 61 129 136 129c78 0 136 -48 136 -128c0 -44 -19 -68 -52 -104l-105 -114h157v-85z" />
    <glyph glyph-name="uni2083" unicode="&#x2083;" horiz-adv-x="332" 
d="M310 -23c0 -89 -66 -131 -141 -131c-71 0 -141 38 -141 132h94c0 -32 21 -48 47 -48c28 0 47 18 47 50c0 28 -19 48 -49 48h-13v81h13c31 0 44 22 44 43c0 29 -20 44 -42 44c-23 0 -42 -15 -42 -42h-94c0 79 61 127 136 127c78 0 136 -52 136 -126c0 -47 -22 -70 -45 -84
c25 -16 50 -43 50 -94z" />
    <glyph glyph-name="uni2084" unicode="&#x2084;" horiz-adv-x="332" 
d="M317 -93h-33v-57h-90v57h-176v89l143 281h103l-144 -281h74v62h90v-62h33v-89z" />
    <glyph glyph-name="uni2085" unicode="&#x2085;" horiz-adv-x="332" 
d="M305 -6c0 -50 -9 -82 -39 -112c-17 -17 -51 -36 -98 -36s-82 17 -100 36c-29 29 -34 57 -37 95h94c3 -29 16 -46 43 -46c12 0 23 4 30 12c10 10 13 29 13 51c0 45 -13 64 -43 64c-26 0 -38 -14 -42 -30h-87v249h257v-85h-171v-73c14 11 33 18 58 18c37 0 65 -12 83 -30
c34 -34 39 -72 39 -113z" />
    <glyph glyph-name="uni2086" unicode="&#x2086;" horiz-adv-x="332" 
d="M305 -17c0 -89 -64 -137 -141 -137c-76 0 -140 47 -140 137c0 31 9 59 36 115l88 179h103l-85 -169c8 3 16 3 25 3c53 0 114 -45 114 -128zM210 -17c0 34 -19 53 -46 53c-25 0 -45 -18 -45 -53s20 -54 45 -54c26 0 46 19 46 54z" />
    <glyph glyph-name="uni2087" unicode="&#x2087;" horiz-adv-x="332" 
d="M311 193l-135 -343h-94l134 342h-108v-69h-86v154h289v-84z" />
    <glyph glyph-name="uni2088" unicode="&#x2088;" horiz-adv-x="332" 
d="M308 -23c0 -88 -64 -131 -142 -131s-142 43 -142 131c0 47 25 75 49 93c-20 16 -44 42 -44 85c0 80 64 126 137 126s138 -46 138 -126c0 -43 -24 -69 -45 -85c24 -18 49 -46 49 -93zM214 -21c0 27 -21 49 -48 49s-48 -22 -48 -49s21 -48 48 -48s48 21 48 48zM209 153
c0 24 -18 43 -43 43s-43 -19 -43 -43c0 -25 19 -45 43 -45c25 0 43 20 43 45z" />
    <glyph glyph-name="uni2089" unicode="&#x2089;" horiz-adv-x="332" 
d="M308 144c0 -37 -12 -66 -36 -115l-88 -179h-103l85 169c-7 -3 -16 -3 -25 -3c-53 0 -114 45 -114 128c0 89 64 137 141 137c76 0 140 -47 140 -137zM214 145c0 32 -20 51 -46 51s-46 -19 -46 -51c0 -31 19 -53 46 -53c25 0 46 20 46 53z" />
    <glyph glyph-name="Euro" unicode="&#x20ac;" horiz-adv-x="684" 
d="M632 219c-25 -149 -129 -225 -261 -225c-80 0 -142 27 -191 76c-46 46 -62 96 -68 167h-73v83h69v75h-69v83h73c6 69 23 119 68 164c49 49 111 76 191 76c133 0 236 -76 261 -225h-141c-14 58 -50 101 -120 101c-38 0 -68 -14 -88 -37c-17 -19 -25 -39 -29 -79h148v-83
h-155v-75h155v-83h-149c5 -42 12 -63 30 -82c20 -23 50 -37 88 -37c70 0 107 43 121 101h140z" />
    <glyph glyph-name="uni20B4" unicode="&#x20b4;" horiz-adv-x="675" 
d="M584 478h52v-83h-77c-7 -12 -15 -23 -25 -33c-19 -18 -41 -32 -69 -42h171v-83h-407c-3 -10 -4 -20 -4 -31c0 -57 44 -88 126 -88c66 0 127 15 172 60l90 -90c-70 -71 -152 -94 -260 -94c-149 0 -264 78 -264 216c0 9 0 18 1 27h-51v83h74c8 15 18 29 31 41
c14 13 32 25 53 34h-158v83h406c4 9 6 19 6 29c0 49 -36 90 -110 90c-47 0 -101 -6 -146 -49l-88 87c61 59 132 83 230 83c154 0 248 -89 248 -216c0 -9 -1 -16 -1 -24z" />
    <glyph glyph-name="afii61352" unicode="&#x2116;" horiz-adv-x="965" 
d="M568 0h-115l-254 456v-456h-130v712h115l254 -456v456h130v-712zM915 225h-290v93h290v-93zM820 538c0 48 -3 69 -17 84c-7 8 -17 12 -32 12s-26 -4 -33 -12c-15 -15 -17 -47 -17 -84c0 -38 2 -69 17 -84c7 -7 18 -13 33 -13s25 6 32 13c16 15 17 46 17 84zM921 534
c0 -66 -11 -109 -41 -139c-22 -23 -62 -44 -109 -44c-48 0 -87 21 -109 44c-30 30 -41 74 -41 139c0 66 10 108 41 140c22 23 61 43 109 43c47 0 87 -20 109 -43c29 -31 41 -75 41 -140z" />
    <glyph glyph-name="trademark" unicode="&#x2122;" horiz-adv-x="924" 
d="M860 285h-95v252l-80 -157h-84l-80 157v-252h-95v427h95l122 -228l122 228h95v-427zM360 627h-110v-342h-95v342h-110v85h315v-85z" />
    <glyph glyph-name="Omega" unicode="&#x2126;" horiz-adv-x="644" 
d="M585 356c0 -73 -4 -131 -23 -178c-8 -19 -19 -37 -36 -54h59v-124h-219v110c23 11 41 24 53 43c19 27 27 73 27 196c0 136 -8 176 -35 206c-20 23 -51 39 -89 39s-69 -16 -90 -39c-26 -30 -34 -70 -34 -206c0 -123 7 -169 26 -196c13 -19 30 -32 54 -43v-110h-219v124h59
c-18 17 -29 35 -37 54c-18 47 -22 105 -22 178c0 136 1 216 72 287c49 48 109 75 191 75s142 -27 190 -75c71 -71 73 -151 73 -287z" />
    <glyph glyph-name="onethird" unicode="&#x2153;" horiz-adv-x="872" 
d="M239 285h-95v321l-90 -78v106l90 78h95v-427zM655 712l-337 -712h-101l337 712h101zM850 127c0 -89 -66 -131 -141 -131c-71 0 -141 38 -141 132h94c0 -32 21 -48 47 -48c28 0 47 18 47 50c0 28 -19 48 -49 48h-13v81h13c31 0 44 22 44 43c0 29 -20 44 -42 44
c-23 0 -42 -15 -42 -42h-94c0 79 61 127 136 127c78 0 136 -52 136 -126c0 -47 -22 -70 -45 -84c25 -16 50 -43 50 -94z" />
    <glyph glyph-name="twothirds" unicode="&#x2154;" horiz-adv-x="872" 
d="M306 285h-272v85l156 171c16 17 22 29 22 47c0 26 -15 43 -42 43c-20 0 -42 -9 -42 -44h-94c0 83 61 129 136 129c78 0 136 -48 136 -128c0 -44 -19 -68 -52 -104l-105 -114h157v-85zM655 712l-337 -712h-101l337 712h101zM850 127c0 -89 -66 -131 -141 -131
c-71 0 -141 38 -141 132h94c0 -32 21 -48 47 -48c28 0 47 18 47 50c0 28 -19 48 -49 48h-13v81h13c31 0 44 22 44 43c0 29 -20 44 -42 44c-23 0 -42 -15 -42 -42h-94c0 79 61 127 136 127c78 0 136 -52 136 -126c0 -47 -22 -70 -45 -84c25 -16 50 -43 50 -94z" />
    <glyph glyph-name="uni2155" unicode="&#x2155;" horiz-adv-x="872" 
d="M239 285h-95v321l-90 -78v106l90 78h95v-427zM655 712l-337 -712h-101l337 712h101zM845 144c0 -50 -9 -82 -39 -112c-17 -17 -51 -36 -98 -36s-82 17 -100 36c-29 29 -34 57 -37 95h94c3 -29 16 -46 43 -46c12 0 23 4 30 12c10 10 13 29 13 51c0 45 -13 64 -43 64
c-26 0 -38 -14 -42 -30h-87v249h257v-85h-171v-73c14 11 33 18 58 18c37 0 65 -12 83 -30c34 -34 39 -72 39 -113z" />
    <glyph glyph-name="uni2156" unicode="&#x2156;" horiz-adv-x="872" 
d="M306 285h-272v85l156 171c16 17 22 29 22 47c0 26 -15 43 -42 43c-20 0 -42 -9 -42 -44h-94c0 83 61 129 136 129c78 0 136 -48 136 -128c0 -44 -19 -68 -52 -104l-105 -114h157v-85zM655 712l-337 -712h-101l337 712h101zM845 144c0 -50 -9 -82 -39 -112
c-17 -17 -51 -36 -98 -36s-82 17 -100 36c-29 29 -34 57 -37 95h94c3 -29 16 -46 43 -46c12 0 23 4 30 12c10 10 13 29 13 51c0 45 -13 64 -43 64c-26 0 -38 -14 -42 -30h-87v249h257v-85h-171v-73c14 11 33 18 58 18c37 0 65 -12 83 -30c34 -34 39 -72 39 -113z" />
    <glyph glyph-name="uni2157" unicode="&#x2157;" horiz-adv-x="872" 
d="M310 412c0 -89 -66 -131 -141 -131c-71 0 -141 38 -141 132h94c0 -32 21 -48 47 -48c28 0 47 18 47 50c0 28 -19 48 -49 48h-13v81h13c31 0 44 22 44 43c0 29 -20 44 -42 44c-23 0 -42 -15 -42 -42h-94c0 79 61 127 136 127c78 0 136 -52 136 -126c0 -47 -22 -70 -45 -84
c25 -16 50 -43 50 -94zM655 712l-337 -712h-101l337 712h101zM845 144c0 -50 -9 -82 -39 -112c-17 -17 -51 -36 -98 -36s-82 17 -100 36c-29 29 -34 57 -37 95h94c3 -29 16 -46 43 -46c12 0 23 4 30 12c10 10 13 29 13 51c0 45 -13 64 -43 64c-26 0 -38 -14 -42 -30h-87v249
h257v-85h-171v-73c14 11 33 18 58 18c37 0 65 -12 83 -30c34 -34 39 -72 39 -113z" />
    <glyph glyph-name="uni2158" unicode="&#x2158;" horiz-adv-x="872" 
d="M317 342h-33v-57h-90v57h-176v89l143 281h103l-144 -281h74v62h90v-62h33v-89zM655 712l-337 -712h-101l337 712h101zM845 144c0 -50 -9 -82 -39 -112c-17 -17 -51 -36 -98 -36s-82 17 -100 36c-29 29 -34 57 -37 95h94c3 -29 16 -46 43 -46c12 0 23 4 30 12
c10 10 13 29 13 51c0 45 -13 64 -43 64c-26 0 -38 -14 -42 -30h-87v249h257v-85h-171v-73c14 11 33 18 58 18c37 0 65 -12 83 -30c34 -34 39 -72 39 -113z" />
    <glyph glyph-name="uni2159" unicode="&#x2159;" horiz-adv-x="872" 
d="M239 285h-95v321l-90 -78v106l90 78h95v-427zM655 712l-337 -712h-101l337 712h101zM845 133c0 -89 -64 -137 -141 -137c-76 0 -140 47 -140 137c0 31 9 59 36 115l88 179h103l-85 -169c8 3 16 3 25 3c53 0 114 -45 114 -128zM750 133c0 34 -19 53 -46 53
c-25 0 -45 -18 -45 -53s20 -54 45 -54c26 0 46 19 46 54z" />
    <glyph glyph-name="uni215A" unicode="&#x215a;" horiz-adv-x="872" 
d="M305 429c0 -50 -9 -82 -39 -112c-17 -17 -51 -36 -98 -36s-82 17 -100 36c-29 29 -34 57 -37 95h94c3 -29 16 -46 43 -46c12 0 23 4 30 12c10 10 13 29 13 51c0 45 -13 64 -43 64c-26 0 -38 -14 -42 -30h-87v249h257v-85h-171v-73c14 11 33 18 58 18c37 0 65 -12 83 -30
c34 -34 39 -72 39 -113zM655 712l-337 -712h-101l337 712h101zM845 133c0 -89 -64 -137 -141 -137c-76 0 -140 47 -140 137c0 31 9 59 36 115l88 179h103l-85 -169c8 3 16 3 25 3c53 0 114 -45 114 -128zM750 133c0 34 -19 53 -46 53c-25 0 -45 -18 -45 -53s20 -54 45 -54
c26 0 46 19 46 54z" />
    <glyph glyph-name="oneeighth" unicode="&#x215b;" horiz-adv-x="872" 
d="M239 285h-95v321l-90 -78v106l90 78h95v-427zM655 712l-337 -712h-101l337 712h101zM848 127c0 -88 -64 -131 -142 -131s-142 43 -142 131c0 47 25 75 49 93c-20 16 -44 42 -44 85c0 80 64 126 137 126s138 -46 138 -126c0 -43 -24 -69 -45 -85c24 -18 49 -46 49 -93z
M754 129c0 27 -21 49 -48 49s-48 -22 -48 -49s21 -48 48 -48s48 21 48 48zM749 303c0 24 -18 43 -43 43s-43 -19 -43 -43c0 -25 19 -45 43 -45c25 0 43 20 43 45z" />
    <glyph glyph-name="threeeighths" unicode="&#x215c;" horiz-adv-x="872" 
d="M310 412c0 -89 -66 -131 -141 -131c-71 0 -141 38 -141 132h94c0 -32 21 -48 47 -48c28 0 47 18 47 50c0 28 -19 48 -49 48h-13v81h13c31 0 44 22 44 43c0 29 -20 44 -42 44c-23 0 -42 -15 -42 -42h-94c0 79 61 127 136 127c78 0 136 -52 136 -126c0 -47 -22 -70 -45 -84
c25 -16 50 -43 50 -94zM655 712l-337 -712h-101l337 712h101zM848 127c0 -88 -64 -131 -142 -131s-142 43 -142 131c0 47 25 75 49 93c-20 16 -44 42 -44 85c0 80 64 126 137 126s138 -46 138 -126c0 -43 -24 -69 -45 -85c24 -18 49 -46 49 -93zM754 129c0 27 -21 49 -48 49
s-48 -22 -48 -49s21 -48 48 -48s48 21 48 48zM749 303c0 24 -18 43 -43 43s-43 -19 -43 -43c0 -25 19 -45 43 -45c25 0 43 20 43 45z" />
    <glyph glyph-name="fiveeighths" unicode="&#x215d;" horiz-adv-x="872" 
d="M305 429c0 -50 -9 -82 -39 -112c-17 -17 -51 -36 -98 -36s-82 17 -100 36c-29 29 -34 57 -37 95h94c3 -29 16 -46 43 -46c12 0 23 4 30 12c10 10 13 29 13 51c0 45 -13 64 -43 64c-26 0 -38 -14 -42 -30h-87v249h257v-85h-171v-73c14 11 33 18 58 18c37 0 65 -12 83 -30
c34 -34 39 -72 39 -113zM655 712l-337 -712h-101l337 712h101zM848 127c0 -88 -64 -131 -142 -131s-142 43 -142 131c0 47 25 75 49 93c-20 16 -44 42 -44 85c0 80 64 126 137 126s138 -46 138 -126c0 -43 -24 -69 -45 -85c24 -18 49 -46 49 -93zM754 129
c0 27 -21 49 -48 49s-48 -22 -48 -49s21 -48 48 -48s48 21 48 48zM749 303c0 24 -18 43 -43 43s-43 -19 -43 -43c0 -25 19 -45 43 -45c25 0 43 20 43 45z" />
    <glyph glyph-name="seveneighths" unicode="&#x215e;" horiz-adv-x="872" 
d="M311 628l-135 -343h-94l134 342h-108v-69h-86v154h289v-84zM655 712l-337 -712h-101l337 712h101zM848 127c0 -88 -64 -131 -142 -131s-142 43 -142 131c0 47 25 75 49 93c-20 16 -44 42 -44 85c0 80 64 126 137 126s138 -46 138 -126c0 -43 -24 -69 -45 -85
c24 -18 49 -46 49 -93zM754 129c0 27 -21 49 -48 49s-48 -22 -48 -49s21 -48 48 -48s48 21 48 48zM749 303c0 24 -18 43 -43 43s-43 -19 -43 -43c0 -25 19 -45 43 -45c25 0 43 20 43 45z" />
    <glyph glyph-name="uni215F" unicode="&#x215f;" horiz-adv-x="540" 
d="M239 285h-95v321l-90 -78v106l90 78h95v-427zM655 712l-337 -712h-101l337 712h101z" />
    <glyph glyph-name="arrowleft" unicode="&#x2190;" horiz-adv-x="1027" 
d="M436 -100l-386 385l386 385h164l-327 -324h704v-123h-704l327 -323h-164z" />
    <glyph glyph-name="arrowup" unicode="&#x2191;" horiz-adv-x="1027" 
d="M899 200l-324 327v-705h-122v705l-324 -327v164l385 385l385 -385v-164z" />
    <glyph glyph-name="arrowright" unicode="&#x2192;" horiz-adv-x="1027" 
d="M429 -100l327 324h-705v122h705l-327 324h164l385 -385l-385 -385h-164z" />
    <glyph glyph-name="arrowdown" unicode="&#x2193;" horiz-adv-x="1027" 
d="M898 208l-385 -386l-385 386v164l324 -327v704h123v-704l323 327v-164z" />
    <glyph glyph-name="uni2196" unicode="&#x2196;" horiz-adv-x="1027" 
d="M884 1l-87 -87l-497 498l1 -460l-116 116v545h546l116 -116l-460 2z" />
    <glyph glyph-name="uni2197" unicode="&#x2197;" horiz-adv-x="1027" 
d="M841 69l-116 -116l2 459l-498 -498l-87 87l498 498l-460 -2l116 116h545v-544z" />
    <glyph glyph-name="uni2198" unicode="&#x2198;" horiz-adv-x="1027" 
d="M850 -63h-545l-115 115l459 -2l-498 498l87 87l498 -498l-2 459l116 -116v-543z" />
    <glyph glyph-name="uni2199" unicode="&#x2199;" horiz-adv-x="1027" 
d="M874 548l-497 -497l460 1l-116 -115l-546 -1l1 545l116 116l-2 -459l497 497z" />
    <glyph glyph-name="partialdiff" unicode="&#x2202;" horiz-adv-x="555" 
d="M482 254c0 -92 -12 -150 -57 -198c-31 -33 -82 -62 -156 -62s-124 29 -155 62c-45 48 -58 106 -58 198c0 94 13 151 58 199c29 31 76 60 150 60c31 0 62 -6 87 -29v27c0 36 -23 97 -104 97c-44 0 -73 -12 -102 -40l-81 82c54 52 109 68 189 68c153 0 229 -99 229 -237
v-227zM352 254c0 51 -3 94 -27 120c-14 14 -33 22 -56 22s-42 -8 -56 -22c-24 -26 -27 -69 -27 -120s3 -95 27 -121c14 -14 33 -22 56 -22s42 8 56 22c24 26 27 70 27 121z" />
    <glyph glyph-name="Delta" unicode="&#x2206;" horiz-adv-x="634" 
d="M631 0h-628l260 712h108zM450 117l-130 385l-134 -385h264z" />
    <glyph glyph-name="product" unicode="&#x220f;" horiz-adv-x="685" 
d="M602 -191h-139v828h-241v-828h-139v951h519v-951z" />
    <glyph glyph-name="summation" unicode="&#x2211;" horiz-adv-x="552" 
d="M515 -191h-475v110l189 376l-186 355v110h468v-124h-306l141 -279v-129l-146 -295h315v-124z" />
    <glyph glyph-name="minus" unicode="&#x2212;" 
d="M493 225h-443v121h443v-121z" />
    <glyph glyph-name="uni2219" unicode="&#x2219;" 
d="M434 334c0 -90 -73 -163 -163 -163s-163 73 -163 163s73 163 163 163s163 -73 163 -163z" />
    <glyph glyph-name="radical" unicode="&#x221a;" horiz-adv-x="596" 
d="M566 588h-92l-194 -588h-105l-172 521h141l84 -273l143 464h195v-124z" />
    <glyph glyph-name="infinity" unicode="&#x221e;" horiz-adv-x="851" 
d="M796 284c0 -105 -66 -188 -190 -188c-71 0 -130 36 -181 94c-51 -58 -110 -94 -180 -94c-124 0 -190 83 -190 188s66 190 190 190c70 0 129 -37 180 -95c51 58 110 95 181 95c124 0 190 -85 190 -190zM337 281c-30 36 -56 66 -92 66c-35 0 -64 -25 -64 -66s29 -65 64 -65
c36 0 62 29 92 65zM670 281c0 41 -30 65 -65 65c-36 0 -61 -29 -91 -65c30 -36 55 -65 91 -65c35 0 65 24 65 65z" />
    <glyph glyph-name="integral" unicode="&#x222b;" horiz-adv-x="490" 
d="M433 615h-49c-45 0 -71 -23 -71 -71v-549c0 -117 -77 -181 -191 -181h-65v110h49c45 0 71 22 71 70v549c0 117 77 182 191 182h65v-110z" />
    <glyph glyph-name="approxequal" unicode="&#x2248;" horiz-adv-x="606" 
d="M569 393c-62 -62 -104 -86 -165 -86c-41 0 -74 10 -117 33c-29 15 -53 24 -82 24c-27 0 -49 -5 -86 -42l-82 82c62 62 103 86 164 86c41 0 74 -10 117 -33c29 -15 52 -25 81 -25c27 0 50 6 87 43zM569 167c-62 -62 -103 -86 -164 -86c-41 0 -74 10 -117 33
c-29 15 -52 25 -81 25c-27 0 -50 -6 -87 -43l-83 82c62 62 105 86 166 86c41 0 73 -10 116 -33c29 -15 53 -24 82 -24c27 0 49 5 86 42z" />
    <glyph glyph-name="notequal" unicode="&#x2260;" horiz-adv-x="602" 
d="M552 116h-320l-103 -129l-79 62l55 67h-55v122h149l78 95h-227v122h320l103 129l79 -62l-55 -67h55v-122h-148l-78 -95h226v-122z" />
    <glyph glyph-name="lessequal" unicode="&#x2264;" 
d="M475 175l-406 187v114l406 186v-137l-241 -106l241 -107v-137zM475 -42l-406 187v137l406 -187v-137z" />
    <glyph glyph-name="greaterequal" unicode="&#x2265;" 
d="M475 362l-406 -187v137l241 107l-241 106v137l406 -186v-114zM475 145l-406 -187v137l406 187v-137z" />
    <glyph glyph-name="dotmath" unicode="&#x22c5;" 
d="M346 212h-149v148h149v-148z" />
    <glyph glyph-name="lozenge" unicode="&#x25ca;" horiz-adv-x="636" 
d="M581 341l-263 -367l-263 367l263 366zM435 341l-117 164l-117 -164l117 -165z" />
    <glyph glyph-name="fi" unicode="&#xfb01;" horiz-adv-x="606" 
d="M315 407h-96v-407h-130v407h-54v99h54v65c0 74 46 149 152 149h74v-110h-51c-31 0 -45 -17 -45 -47v-57h96v-99zM534 0h-130v506h130v-506zM535 610h-133v106h133v-106z" />
    <glyph glyph-name="fl" unicode="&#xfb02;" horiz-adv-x="659" 
d="M315 407h-96v-407h-130v407h-54v99h54v65c0 74 46 149 152 149h74v-110h-51c-31 0 -45 -17 -45 -47v-57h96v-99zM628 0h-74c-107 0 -152 75 -152 149v563h130v-555c0 -31 13 -47 46 -47h50v-110z" />
    <glyph glyph-name="i.latn_TRK" horiz-adv-x="275" 
d="M203 0h-130v506h130v-506zM204 610h-133v106h133v-106z" />
    <glyph glyph-name="Ldot.latn_CAT" horiz-adv-x="575" 
d="M545 0h-462v712h139v-588h323v-124zM380 300v116h115v-116h-115z" />
    <glyph glyph-name="ldot.latn_CAT" horiz-adv-x="414" 
d="M294 0h-74c-107 0 -152 75 -152 149v563h130v-555c0 -31 13 -47 46 -47h50v-110zM282 228v115h115v-115h-115z" />
    <glyph glyph-name="zero.numr" horiz-adv-x="332" 
d="M302 414c0 -87 -65 -133 -136 -133c-70 0 -136 46 -136 133v170c0 86 66 132 136 132c71 0 136 -46 136 -132v-170zM208 412v172c0 31 -19 48 -42 48s-41 -17 -41 -48v-172c0 -31 18 -46 41 -46s42 16 42 46z" />
    <glyph glyph-name="one.numr" horiz-adv-x="332" 
d="M239 285h-95v321l-90 -78v106l90 78h95v-427z" />
    <glyph glyph-name="two.numr" horiz-adv-x="332" 
d="M306 285h-272v85l156 171c16 17 22 29 22 47c0 26 -15 43 -42 43c-20 0 -42 -9 -42 -44h-94c0 83 61 129 136 129c78 0 136 -48 136 -128c0 -44 -19 -68 -52 -104l-105 -114h157v-85z" />
    <glyph glyph-name="three.numr" horiz-adv-x="332" 
d="M310 412c0 -89 -66 -131 -141 -131c-71 0 -141 38 -141 132h94c0 -32 21 -48 47 -48c28 0 47 18 47 50c0 28 -19 48 -49 48h-13v81h13c31 0 44 22 44 43c0 29 -20 44 -42 44c-23 0 -42 -15 -42 -42h-94c0 79 61 127 136 127c78 0 136 -52 136 -126c0 -47 -22 -70 -45 -84
c25 -16 50 -43 50 -94z" />
    <glyph glyph-name="four.numr" horiz-adv-x="332" 
d="M317 342h-33v-57h-90v57h-176v89l143 281h103l-144 -281h74v62h90v-62h33v-89z" />
    <glyph glyph-name="five.numr" horiz-adv-x="332" 
d="M305 429c0 -50 -9 -82 -39 -112c-17 -17 -51 -36 -98 -36s-82 17 -100 36c-29 29 -34 57 -37 95h94c3 -29 16 -46 43 -46c12 0 23 4 30 12c10 10 13 29 13 51c0 45 -13 64 -43 64c-26 0 -38 -14 -42 -30h-87v249h257v-85h-171v-73c14 11 33 18 58 18c37 0 65 -12 83 -30
c34 -34 39 -72 39 -113z" />
    <glyph glyph-name="six.numr" horiz-adv-x="332" 
d="M305 418c0 -89 -64 -137 -141 -137c-76 0 -140 47 -140 137c0 31 9 59 36 115l88 179h103l-85 -169c8 3 16 3 25 3c53 0 114 -45 114 -128zM210 418c0 34 -19 53 -46 53c-25 0 -45 -18 -45 -53s20 -54 45 -54c26 0 46 19 46 54z" />
    <glyph glyph-name="seven.numr" horiz-adv-x="332" 
d="M311 628l-135 -343h-94l134 342h-108v-69h-86v154h289v-84z" />
    <glyph glyph-name="eight.numr" horiz-adv-x="332" 
d="M308 412c0 -88 -64 -131 -142 -131s-142 43 -142 131c0 47 25 75 49 93c-20 16 -44 42 -44 85c0 80 64 126 137 126s138 -46 138 -126c0 -43 -24 -69 -45 -85c24 -18 49 -46 49 -93zM214 414c0 27 -21 49 -48 49s-48 -22 -48 -49s21 -48 48 -48s48 21 48 48zM209 588
c0 24 -18 43 -43 43s-43 -19 -43 -43c0 -25 19 -45 43 -45c25 0 43 20 43 45z" />
    <glyph glyph-name="nine.numr" horiz-adv-x="332" 
d="M308 579c0 -37 -12 -66 -36 -115l-88 -179h-103l85 169c-7 -3 -16 -3 -25 -3c-53 0 -114 45 -114 128c0 89 64 137 141 137c76 0 140 -47 140 -137zM214 580c0 32 -20 51 -46 51s-46 -19 -46 -51c0 -31 19 -53 46 -53c25 0 46 20 46 53z" />
    <glyph glyph-name="zero.dnom" horiz-adv-x="332" 
d="M302 129c0 -87 -65 -133 -136 -133c-70 0 -136 46 -136 133v170c0 86 66 132 136 132c71 0 136 -46 136 -132v-170zM208 127v172c0 31 -19 48 -42 48s-41 -17 -41 -48v-172c0 -31 18 -46 41 -46s42 16 42 46z" />
    <glyph glyph-name="one.dnom" horiz-adv-x="332" 
d="M239 0h-95v321l-90 -78v106l90 78h95v-427z" />
    <glyph glyph-name="two.dnom" horiz-adv-x="332" 
d="M306 0h-272v85l156 171c16 17 22 29 22 47c0 26 -15 43 -42 43c-20 0 -42 -9 -42 -44h-94c0 83 61 129 136 129c78 0 136 -48 136 -128c0 -44 -19 -68 -52 -104l-105 -114h157v-85z" />
    <glyph glyph-name="three.dnom" horiz-adv-x="332" 
d="M310 127c0 -89 -66 -131 -141 -131c-71 0 -141 38 -141 132h94c0 -32 21 -48 47 -48c28 0 47 18 47 50c0 28 -19 48 -49 48h-13v81h13c31 0 44 22 44 43c0 29 -20 44 -42 44c-23 0 -42 -15 -42 -42h-94c0 79 61 127 136 127c78 0 136 -52 136 -126c0 -47 -22 -70 -45 -84
c25 -16 50 -43 50 -94z" />
    <glyph glyph-name="four.dnom" horiz-adv-x="332" 
d="M317 57h-33v-57h-90v57h-176v89l143 281h103l-144 -281h74v62h90v-62h33v-89z" />
    <glyph glyph-name="five.dnom" horiz-adv-x="332" 
d="M305 144c0 -50 -9 -82 -39 -112c-17 -17 -51 -36 -98 -36s-82 17 -100 36c-29 29 -34 57 -37 95h94c3 -29 16 -46 43 -46c12 0 23 4 30 12c10 10 13 29 13 51c0 45 -13 64 -43 64c-26 0 -38 -14 -42 -30h-87v249h257v-85h-171v-73c14 11 33 18 58 18c37 0 65 -12 83 -30
c34 -34 39 -72 39 -113z" />
    <glyph glyph-name="six.dnom" horiz-adv-x="332" 
d="M305 133c0 -89 -64 -137 -141 -137c-76 0 -140 47 -140 137c0 31 9 59 36 115l88 179h103l-85 -169c8 3 16 3 25 3c53 0 114 -45 114 -128zM210 133c0 34 -19 53 -46 53c-25 0 -45 -18 -45 -53s20 -54 45 -54c26 0 46 19 46 54z" />
    <glyph glyph-name="seven.dnom" horiz-adv-x="332" 
d="M311 343l-135 -343h-94l134 342h-108v-69h-86v154h289v-84z" />
    <glyph glyph-name="eight.dnom" horiz-adv-x="332" 
d="M308 127c0 -88 -64 -131 -142 -131s-142 43 -142 131c0 47 25 75 49 93c-20 16 -44 42 -44 85c0 80 64 126 137 126s138 -46 138 -126c0 -43 -24 -69 -45 -85c24 -18 49 -46 49 -93zM214 129c0 27 -21 49 -48 49s-48 -22 -48 -49s21 -48 48 -48s48 21 48 48zM209 303
c0 24 -18 43 -43 43s-43 -19 -43 -43c0 -25 19 -45 43 -45c25 0 43 20 43 45z" />
    <glyph glyph-name="nine.dnom" horiz-adv-x="332" 
d="M308 294c0 -37 -12 -66 -36 -115l-88 -179h-103l85 169c-7 -3 -16 -3 -25 -3c-53 0 -114 45 -114 128c0 89 64 137 141 137c76 0 140 -47 140 -137zM214 295c0 32 -20 51 -46 51s-46 -19 -46 -51c0 -31 19 -53 46 -53c25 0 46 20 46 53z" />
    <glyph glyph-name="space.frac" horiz-adv-x="46" 
 />
    <glyph glyph-name="zero.osf" horiz-adv-x="544" 
d="M489 206c0 -136 -101 -212 -217 -212s-217 76 -217 212v185c0 136 101 212 217 212s217 -76 217 -212v-185zM359 207v182c0 60 -36 97 -87 97s-87 -37 -87 -97v-182c0 -60 36 -96 87 -96s87 36 87 96z" />
    <glyph glyph-name="one.osf" horiz-adv-x="438" 
d="M329 0h-130v457l-146 -126v140l146 126h130v-597z" />
    <glyph glyph-name="two.osf" horiz-adv-x="548" 
d="M490 0h-447v117l233 199c44 38 71 70 71 108c0 48 -34 82 -86 82c-44 0 -87 -26 -87 -88h-130c0 128 97 205 217 205c123 0 216 -78 216 -197c0 -77 -55 -130 -127 -194l-129 -115h269v-117z" />
    <glyph glyph-name="three.osf" horiz-adv-x="535" 
d="M486 91c0 -142 -104 -213 -226 -213c-116 0 -225 61 -227 210h130c2 -64 46 -93 97 -93c56 0 96 35 96 99c0 59 -36 98 -100 98h-19v113h19c63 0 90 40 90 90c0 60 -40 91 -87 91c-49 0 -85 -32 -88 -86h-130c3 127 98 203 218 203c126 0 217 -84 217 -204
c0 -77 -35 -121 -82 -146c51 -27 92 -76 92 -162z" />
    <glyph glyph-name="four.osf" horiz-adv-x="590" 
d="M550 30h-80v-153h-124v153h-307v123l244 488h139l-243 -488h167v147h124v-147h80v-123z" />
    <glyph glyph-name="five.osf" horiz-adv-x="551" 
d="M499 125c0 -80 -11 -136 -63 -188c-32 -32 -83 -58 -157 -58s-128 26 -159 57c-44 44 -54 96 -58 148h130c7 -56 33 -88 87 -88c25 0 46 7 62 23c23 23 28 61 28 106c0 82 -24 128 -87 128c-53 0 -77 -30 -86 -58h-119v402h406v-117h-288v-153c19 18 59 36 107 36
c59 0 104 -19 133 -48c56 -56 64 -123 64 -190z" />
    <glyph glyph-name="six.osf" horiz-adv-x="549" 
d="M508 225c0 -147 -101 -231 -233 -231s-234 81 -234 228c0 83 23 144 69 227l155 279h139l-170 -297c22 11 44 15 76 15c105 0 198 -79 198 -221zM378 223c0 70 -42 117 -104 117c-60 0 -103 -44 -103 -117s43 -117 103 -117s104 44 104 117z" />
    <glyph glyph-name="seven.osf" horiz-adv-x="553" 
d="M518 480l-263 -598h-140l263 598h-209v-112h-124v229h473v-117z" />
    <glyph glyph-name="eight.osf" horiz-adv-x="560" 
d="M508 207c0 -138 -102 -213 -228 -213s-228 75 -228 213c0 87 51 134 90 160c-36 25 -80 72 -80 148c0 126 99 203 218 203s218 -77 218 -203c0 -76 -44 -123 -80 -148c39 -26 90 -73 90 -160zM378 209c0 55 -43 99 -98 99s-98 -44 -98 -99s43 -98 98 -98s98 43 98 98z
M368 511c0 51 -37 90 -88 90s-88 -39 -88 -90c0 -52 37 -90 88 -90s88 38 88 90z" />
    <glyph glyph-name="nine.osf" horiz-adv-x="549" 
d="M508 375c0 -83 -23 -144 -69 -227l-154 -279h-140l170 297c-22 -11 -44 -15 -76 -15c-105 0 -198 79 -198 221c0 147 101 231 233 231s234 -81 234 -228zM378 374c0 73 -43 117 -103 117s-104 -44 -104 -117c0 -70 42 -117 104 -117c60 0 103 44 103 117z" />
    <glyph glyph-name="zero.lf" 
d="M488 206c0 -136 -100 -212 -216 -212s-217 76 -217 212v300c0 136 101 212 217 212s216 -76 216 -212v-300zM358 207v297c0 60 -35 97 -86 97s-87 -37 -87 -97v-297c0 -60 36 -96 87 -96s86 36 86 96z" />
    <glyph glyph-name="one.lf" horiz-adv-x="430" 
d="M328 0h-130v572l-145 -126v140l145 126h130v-712z" />
    <glyph glyph-name="two.lf" horiz-adv-x="527" 
d="M476 0h-433v117l266 309c26 31 37 53 37 86c0 53 -31 89 -86 89c-43 0 -87 -22 -87 -91h-130c0 130 95 208 217 208c126 0 216 -79 216 -207c0 -69 -27 -106 -76 -163l-199 -231h275v-117z" />
    <glyph glyph-name="three.lf" horiz-adv-x="534" 
d="M486 206c0 -142 -104 -212 -226 -212c-116 0 -225 61 -227 210h130c2 -64 46 -93 97 -93c56 0 96 35 96 99c0 59 -36 98 -100 98h-19v113h19c63 0 90 39 90 89c0 60 -40 91 -87 91c-49 0 -85 -32 -88 -86h-130c3 127 98 203 218 203c126 0 217 -84 217 -204
c0 -77 -35 -121 -82 -146c51 -27 92 -76 92 -162z" />
    <glyph glyph-name="four.lf" horiz-adv-x="560" 
d="M520 101h-65v-101h-125v101h-291v123l244 488h142l-244 -488h149v133h125v-133h65v-123z" />
    <glyph glyph-name="five.lf" horiz-adv-x="550" 
d="M498 240c0 -80 -11 -136 -63 -188c-32 -32 -83 -58 -157 -58s-128 26 -159 57c-44 44 -54 96 -58 148h130c7 -56 33 -88 87 -88c25 0 46 7 62 23c23 23 28 61 28 106c0 82 -24 128 -87 128c-53 0 -77 -30 -86 -58h-119v402h406v-117h-288v-153c19 18 59 36 107 36
c59 0 104 -19 133 -48c56 -56 64 -123 64 -190z" />
    <glyph glyph-name="six.lf" horiz-adv-x="524" 
d="M485 216c0 -140 -96 -222 -222 -222s-222 79 -222 220c0 65 28 125 60 190l150 308h142l-148 -294c17 7 36 9 53 9c96 0 187 -79 187 -211zM355 215c0 63 -37 104 -92 104c-53 0 -92 -38 -92 -104s39 -104 92 -104s92 38 92 104z" />
    <glyph glyph-name="seven.lf" horiz-adv-x="531" 
d="M496 595l-231 -595h-141l231 595h-188v-112h-124v229h453v-117z" />
    <glyph glyph-name="eight.lf" horiz-adv-x="560" 
d="M508 207c0 -138 -102 -213 -228 -213s-228 75 -228 213c0 87 50 134 89 160c-36 25 -80 72 -80 148c0 126 100 203 219 203s218 -77 218 -203c0 -76 -44 -123 -80 -148c39 -26 90 -73 90 -160zM378 209c0 55 -43 99 -98 99s-98 -44 -98 -99s43 -98 98 -98s98 43 98 98z
M368 511c0 51 -37 90 -88 90s-89 -39 -89 -90c0 -52 38 -90 89 -90s88 38 88 90z" />
    <glyph glyph-name="nine.lf" horiz-adv-x="524" 
d="M483 498c0 -65 -27 -125 -59 -190l-151 -308h-141l148 294c-17 -7 -36 -9 -53 -9c-96 0 -188 79 -188 211c0 140 96 222 222 222s222 -79 222 -220zM353 497c0 66 -39 104 -92 104s-92 -38 -92 -104c0 -63 37 -104 92 -104c53 0 92 38 92 104z" />
    <glyph glyph-name="zero.tosf" 
d="M489 206c0 -136 -101 -212 -217 -212s-217 76 -217 212v185c0 136 101 212 217 212s217 -76 217 -212v-185zM359 207v182c0 60 -36 97 -87 97s-87 -37 -87 -97v-182c0 -60 36 -96 87 -96s87 36 87 96z" />
    <glyph glyph-name="one.tosf" 
d="M379 0h-130v457l-146 -126v140l146 126h130v-597z" />
    <glyph glyph-name="two.tosf" 
d="M499 0h-447v117l233 199c44 38 71 70 71 108c0 48 -34 82 -86 82c-44 0 -87 -26 -87 -88h-130c0 128 97 205 217 205c123 0 216 -78 216 -197c0 -77 -55 -130 -127 -194l-129 -115h269v-117z" />
    <glyph glyph-name="three.tosf" 
d="M495 91c0 -142 -104 -213 -226 -213c-116 0 -225 61 -227 210h130c2 -64 46 -93 97 -93c56 0 96 35 96 99c0 59 -36 98 -100 98h-19v113h19c63 0 90 40 90 90c0 60 -40 91 -87 91c-49 0 -85 -32 -88 -86h-130c3 127 98 203 218 203c126 0 217 -84 217 -204
c0 -77 -35 -121 -82 -146c51 -27 92 -76 92 -162z" />
    <glyph glyph-name="four.tosf" 
d="M515 30h-65v-153h-125v153h-291v123l244 488h142l-244 -488h149v133h125v-133h65v-123z" />
    <glyph glyph-name="five.tosf" 
d="M493 125c0 -80 -11 -136 -63 -188c-32 -32 -83 -58 -157 -58s-128 26 -159 57c-44 44 -54 96 -58 148h130c7 -56 33 -88 87 -88c25 0 46 7 62 23c23 23 28 61 28 106c0 82 -24 128 -87 128c-53 0 -77 -30 -86 -58h-119v402h406v-117h-288v-153c19 18 59 36 107 36
c59 0 104 -19 133 -48c56 -56 64 -123 64 -190z" />
    <glyph glyph-name="six.tosf" 
d="M506 225c0 -147 -101 -231 -233 -231s-234 81 -234 228c0 83 23 144 69 227l155 279h139l-170 -297c22 11 44 15 76 15c105 0 198 -79 198 -221zM376 223c0 70 -42 117 -104 117c-60 0 -103 -44 -103 -117s43 -117 103 -117s104 44 104 117z" />
    <glyph glyph-name="seven.tosf" 
d="M501 480l-231 -595h-141l231 595h-188v-112h-124v229h453v-117z" />
    <glyph glyph-name="eight.tosf" 
d="M500 207c0 -138 -102 -213 -228 -213s-228 75 -228 213c0 87 51 134 90 160c-36 25 -80 72 -80 148c0 126 99 203 218 203s218 -77 218 -203c0 -76 -44 -123 -80 -148c39 -26 90 -73 90 -160zM370 209c0 55 -43 99 -98 99s-98 -44 -98 -99s43 -98 98 -98s98 43 98 98z
M360 511c0 51 -37 90 -88 90s-88 -39 -88 -90c0 -52 37 -90 88 -90s88 38 88 90z" />
    <glyph glyph-name="nine.tosf" 
d="M504 375c0 -83 -23 -144 -69 -227l-154 -279h-140l170 297c-22 -11 -44 -15 -76 -15c-105 0 -198 79 -198 221c0 147 101 231 233 231s234 -81 234 -228zM374 374c0 73 -43 117 -103 117s-104 -44 -104 -117c0 -70 42 -117 104 -117c60 0 103 44 103 117z" />
    <glyph glyph-name="uni2007.tosf" 
 />
    <glyph glyph-name="hyphen.case" horiz-adv-x="426" 
d="M367 295h-308v121h308v-121z" />
    <glyph glyph-name="exclamdown.case" horiz-adv-x="347" 
d="M236 0h-161l32 489h97zM224 579h-137v133h137v-133z" />
    <glyph glyph-name="guillemotleft.case" horiz-adv-x="628" 
d="M562 108l-250 248l250 248v-155l-96 -93l96 -93v-155zM283 108l-249 248l249 248v-155l-94 -93l94 -93v-155z" />
    <glyph glyph-name="uni00AD.case" horiz-adv-x="426" 
d="M367 295h-308v121h308v-121z" />
    <glyph glyph-name="guillemotright.case" horiz-adv-x="628" 
d="M595 356l-250 -248v155l94 93l-94 93v155zM316 356l-249 -248v155l95 93l-95 93v155z" />
    <glyph glyph-name="questiondown.case" horiz-adv-x="523" 
d="M457 195c0 -124 -95 -201 -211 -201c-113 0 -210 73 -210 200c0 50 21 88 49 125l74 99c10 13 18 34 18 51v20h130v-30c0 -43 -12 -70 -38 -104l-74 -95c-16 -21 -29 -45 -29 -67c0 -47 30 -82 80 -82c53 0 81 38 81 84h130zM311 579h-138v133h138v-133z" />
    <glyph glyph-name="endash.case" 
d="M493 295h-443v121h443v-121z" />
    <glyph glyph-name="emdash.case" horiz-adv-x="1027" 
d="M968 293h-909v125h909v-125z" />
    <glyph glyph-name="afii00208.case" horiz-adv-x="1027" 
d="M968 293h-909v125h909v-125z" />
    <glyph glyph-name="guilsinglleft.case" horiz-adv-x="350" 
d="M283 108l-249 248l249 248v-155l-94 -93l94 -93v-155z" />
    <glyph glyph-name="guilsinglright.case" horiz-adv-x="350" 
d="M316 356l-249 -248v155l95 93l-95 93v155z" />
    <glyph glyph-name="caroncomma.ss01" 
d="M690 629l-113 -88v206h113v-118z" />
    <glyph glyph-name="commaaccent.ss01" horiz-adv-x="279" 
d="M196 -133c0 -57 -44 -101 -112 -101v64c24 0 39 17 39 37s-15 37 -39 37v64c69 0 112 -44 112 -101z" />
    <glyph glyph-name="commaturn.ss01" horiz-adv-x="279" 
d="M193 579c-69 0 -112 45 -112 101c0 57 43 101 112 101v-64c-24 0 -39 -17 -39 -37c0 -19 15 -37 39 -37v-64z" />
    <glyph glyph-name="exclam.ss01" horiz-adv-x="347" 
d="M273 712l-33 -489h-96l-32 489h161zM271 75c0 -43 -36 -78 -79 -78s-78 35 -78 78s35 79 78 79s79 -36 79 -79z" />
    <glyph glyph-name="period.ss01" horiz-adv-x="295" 
d="M235 84c0 -48 -40 -87 -88 -87s-87 39 -87 87s39 87 87 87s88 -39 88 -87z" />
    <glyph glyph-name="colon.ss01" horiz-adv-x="319" 
d="M259 349c0 -48 -39 -87 -87 -87s-87 39 -87 87s39 88 87 88s87 -40 87 -88zM259 84c0 -48 -39 -87 -87 -87s-87 39 -87 87s39 87 87 87s87 -39 87 -87z" />
    <glyph glyph-name="semicolon.ss01" horiz-adv-x="309" 
d="M243 -55l-142 -110v307h142v-197zM259 349c0 -48 -39 -87 -87 -87s-87 39 -87 87s39 88 87 88s87 -40 87 -88z" />
    <glyph glyph-name="question.ss01" horiz-adv-x="523" 
d="M487 518c0 -50 -21 -88 -49 -125l-74 -98c-10 -13 -18 -34 -18 -51v-21h-130v30c0 43 12 70 38 104l74 95c16 21 29 45 29 67c0 47 -31 82 -81 82c-53 0 -80 -37 -80 -83h-130c0 124 94 200 210 200c113 0 211 -73 211 -200zM360 75c0 -43 -36 -78 -79 -78s-78 35 -78 78
s35 79 78 79s79 -36 79 -79z" />
    <glyph glyph-name="at.ss01" horiz-adv-x="970" 
d="M919 338c0 -160 -123 -301 -303 -301h-104l10 47c-34 -36 -69 -53 -113 -53c-90 0 -140 59 -140 135c0 26 4 57 12 95c17 85 32 144 82 188c36 32 77 41 118 41c53 0 86 -21 106 -52l9 46h119l-74 -370c119 7 182 112 182 224c0 168 -120 275 -300 275
c-204 0 -363 -156 -363 -358c0 -222 140 -356 368 -356h75l-16 -83h-76c-273 0 -452 183 -452 439c0 255 201 448 464 448c237 0 396 -152 396 -365zM558 322c0 44 -26 64 -58 64c-21 0 -39 -7 -54 -20c-20 -18 -36 -48 -47 -105c-4 -20 -6 -42 -6 -62c0 -44 25 -64 57 -64
c21 0 41 7 56 21c20 18 34 50 45 105c4 20 7 41 7 61z" />
    <glyph glyph-name="C.ss01" horiz-adv-x="562" 
d="M519 76c-50 -50 -107 -82 -198 -82c-81 0 -141 27 -190 75c-71 71 -72 151 -72 287s1 216 72 287c49 48 109 75 190 75c91 0 148 -32 198 -82l-92 -92c-31 30 -56 50 -106 50c-38 0 -68 -14 -88 -37c-26 -30 -35 -65 -35 -201s9 -171 35 -201c20 -23 50 -37 88 -37
c50 0 75 20 106 50z" />
    <glyph glyph-name="G.ss01" horiz-adv-x="637" 
d="M585 294c0 -102 -16 -166 -66 -218c-52 -53 -117 -82 -198 -82s-141 27 -190 75c-71 71 -72 151 -72 287s1 216 72 287c49 48 109 75 190 75c99 0 154 -28 218 -91l-95 -95c-40 40 -68 62 -123 62c-38 0 -68 -15 -89 -38c-26 -30 -34 -64 -34 -200s8 -171 34 -201
c21 -23 51 -37 89 -37c43 0 72 15 95 40c22 25 31 62 31 97v24h-126v117h264v-102z" />
    <glyph glyph-name="i.ss01" horiz-adv-x="275" 
d="M203 0h-130v506h130v-506zM219 668c0 -45 -36 -82 -81 -82s-82 37 -82 82s37 81 82 81s81 -36 81 -81z" />
    <glyph glyph-name="j.ss01" horiz-adv-x="275" 
d="M203 -46c0 -74 -45 -149 -152 -149h-74v110h50c33 0 46 16 46 47v544h130v-552zM219 668c0 -45 -36 -82 -81 -82s-82 37 -82 82s37 81 82 81s81 -36 81 -81z" />
    <glyph glyph-name="exclamdown.ss01" horiz-adv-x="347" 
d="M264 -191h-161l32 489h96zM262 446c0 -43 -36 -79 -79 -79s-78 36 -78 79s35 78 78 78s79 -35 79 -78z" />
    <glyph glyph-name="dieresis.ss01" horiz-adv-x="500" 
d="M430 667c0 -37 -30 -67 -67 -67s-67 30 -67 67s30 67 67 67s67 -30 67 -67zM204 667c0 -37 -30 -67 -67 -67s-67 30 -67 67s30 67 67 67s67 -30 67 -67z" />
    <glyph glyph-name="periodcentered.ss01" horiz-adv-x="295" 
d="M235 284c0 -48 -40 -87 -88 -87s-87 39 -87 87s39 88 87 88s88 -40 88 -88z" />
    <glyph glyph-name="cedilla.ss01" horiz-adv-x="500" 
d="M326 -133c0 -57 -44 -101 -112 -101v64c24 0 39 17 39 37s-15 37 -39 37v64c69 0 112 -44 112 -101z" />
    <glyph glyph-name="questiondown.ss01" horiz-adv-x="523" 
d="M478 4c0 -124 -95 -201 -211 -201c-113 0 -210 73 -210 200c0 50 21 88 49 125l74 99c10 13 18 34 18 51v20h130v-30c0 -43 -12 -70 -38 -104l-74 -95c-16 -21 -29 -45 -29 -67c0 -47 30 -82 80 -82c53 0 81 38 81 84h130zM341 446c0 -43 -35 -79 -78 -79s-79 36 -79 79
s36 78 79 78s78 -35 78 -78z" />
    <glyph glyph-name="Adieresis.ss01" horiz-adv-x="638" 
d="M633 0h-145l-42 126h-253l-43 -126h-145l259 712h109zM409 243l-87 259l-90 -259h177zM497 844c0 -37 -30 -67 -67 -67s-67 30 -67 67s30 67 67 67s67 -30 67 -67zM271 844c0 -37 -30 -67 -67 -67s-67 30 -67 67s30 67 67 67s67 -30 67 -67z" />
    <glyph glyph-name="Ccedilla.ss01" horiz-adv-x="562" 
d="M519 76c-50 -50 -107 -82 -198 -82c-81 0 -141 27 -190 75c-71 71 -72 151 -72 287s1 216 72 287c49 48 109 75 190 75c91 0 148 -32 198 -82l-92 -92c-31 30 -56 50 -106 50c-38 0 -68 -14 -88 -37c-26 -30 -35 -65 -35 -201s9 -171 35 -201c20 -23 50 -37 88 -37
c50 0 75 20 106 50zM368 -133c0 -57 -44 -101 -112 -101v64c24 0 39 17 39 37s-15 37 -39 37v64c69 0 112 -44 112 -101z" />
    <glyph glyph-name="Edieresis.ss01" horiz-adv-x="605" 
d="M552 0h-469v712h469v-124h-330v-167h281v-124h-281v-173h330v-124zM490 844c0 -37 -30 -67 -67 -67s-67 30 -67 67s30 67 67 67s67 -30 67 -67zM264 844c0 -37 -30 -67 -67 -67s-67 30 -67 67s30 67 67 67s67 -30 67 -67z" />
    <glyph glyph-name="Idieresis.ss01" horiz-adv-x="305" 
d="M222 0h-139v712h139v-712zM336 844c0 -37 -30 -67 -67 -67s-67 30 -67 67s30 67 67 67s67 -30 67 -67zM110 844c0 -37 -30 -67 -67 -67s-67 30 -67 67s30 67 67 67s67 -30 67 -67z" />
    <glyph glyph-name="Odieresis.ss01" horiz-adv-x="644" 
d="M585 356c0 -136 -2 -216 -73 -287c-48 -48 -108 -75 -190 -75s-143 27 -191 75c-71 71 -72 151 -72 287s1 216 72 287c48 48 109 75 191 75s142 -27 190 -75c71 -71 73 -151 73 -287zM446 356c0 136 -9 170 -35 200c-20 23 -51 38 -89 38s-69 -15 -90 -38
c-26 -30 -34 -64 -34 -200s8 -169 34 -199c21 -23 52 -39 90 -39s69 16 89 39c26 30 35 63 35 199zM502 844c0 -37 -30 -67 -67 -67s-67 30 -67 67s30 67 67 67s67 -30 67 -67zM276 844c0 -37 -30 -67 -67 -67s-67 30 -67 67s30 67 67 67s67 -30 67 -67z" />
    <glyph glyph-name="Udieresis.ss01" horiz-adv-x="668" 
d="M596 244c0 -151 -116 -250 -262 -250s-262 99 -262 250v468h139v-463c0 -82 48 -131 123 -131s124 49 124 131v463h138v-468zM514 844c0 -37 -30 -67 -67 -67s-67 30 -67 67s30 67 67 67s67 -30 67 -67zM288 844c0 -37 -30 -67 -67 -67s-67 30 -67 67s30 67 67 67
s67 -30 67 -67z" />
    <glyph glyph-name="adieresis.ss01" horiz-adv-x="534" 
d="M467 0h-127v45c-35 -35 -68 -50 -128 -50c-59 0 -103 16 -133 46c-28 29 -43 71 -43 117c0 83 57 151 180 151h121v26c0 57 -28 82 -97 82c-47 0 -72 -13 -100 -45l-82 81c51 56 100 74 187 74c147 0 222 -62 222 -184v-343zM337 192v28h-99c-52 0 -77 -21 -77 -60
c0 -36 25 -59 79 -59c32 0 55 4 77 25c15 13 20 33 20 66zM441 667c0 -37 -30 -67 -67 -67s-67 30 -67 67s30 67 67 67s67 -30 67 -67zM215 667c0 -37 -30 -67 -67 -67s-67 30 -67 67s30 67 67 67s67 -30 67 -67z" />
    <glyph glyph-name="ccedilla.ss01" horiz-adv-x="480" 
d="M452 65c-46 -48 -100 -71 -172 -71c-104 0 -233 56 -233 267s129 266 233 266c72 0 126 -22 172 -70l-88 -88c-27 29 -50 41 -84 41c-31 0 -55 -11 -74 -34c-20 -25 -29 -60 -29 -115s9 -91 29 -116c19 -23 43 -34 74 -34c34 0 57 12 84 41zM326 -133
c0 -57 -44 -101 -112 -101v64c24 0 39 17 39 37s-15 37 -39 37v64c69 0 112 -44 112 -101z" />
    <glyph glyph-name="edieresis.ss01" horiz-adv-x="548" 
d="M501 220h-326c0 -68 40 -116 114 -116c57 0 85 17 118 49l79 -77c-53 -54 -104 -82 -198 -82c-123 0 -241 56 -241 267c0 170 92 266 227 266c145 0 227 -104 227 -252v-55zM373 309c-1 23 -3 37 -12 56c-14 31 -43 54 -87 54s-73 -23 -87 -54c-9 -19 -11 -33 -12 -56
h198zM457 667c0 -37 -30 -67 -67 -67s-67 30 -67 67s30 67 67 67s67 -30 67 -67zM231 667c0 -37 -30 -67 -67 -67s-67 30 -67 67s30 67 67 67s67 -30 67 -67z" />
    <glyph glyph-name="idieresis.ss01" horiz-adv-x="275" 
d="M203 0h-130v506h130v-506zM319 667c0 -37 -30 -67 -67 -67s-67 30 -67 67s30 67 67 67s67 -30 67 -67zM93 667c0 -37 -30 -67 -67 -67s-67 30 -67 67s30 67 67 67s67 -30 67 -67z" />
    <glyph glyph-name="odieresis.ss01" 
d="M492 261c0 -94 -11 -154 -59 -203c-33 -34 -85 -64 -162 -64s-128 30 -161 64c-47 50 -59 109 -59 203s12 152 59 202c33 34 84 64 161 64s129 -29 162 -64c47 -50 59 -108 59 -202zM362 261c0 53 -3 100 -30 126c-15 15 -35 23 -61 23c-25 0 -45 -8 -60 -23
c-27 -26 -30 -73 -30 -126c0 -54 3 -101 30 -127c15 -15 35 -23 60 -23c26 0 46 8 61 23c27 26 30 73 30 127zM452 667c0 -37 -30 -67 -67 -67s-67 30 -67 67s30 67 67 67s67 -30 67 -67zM226 667c0 -37 -30 -67 -67 -67s-67 30 -67 67s30 67 67 67s67 -30 67 -67z" />
    <glyph glyph-name="divide.ss01" 
d="M497 225h-451v121h451v-121zM359 79c0 -48 -39 -88 -87 -88s-88 40 -88 88s40 87 88 87s87 -39 87 -87zM359 492c0 -48 -39 -87 -87 -87s-88 39 -88 87s40 88 88 88s87 -40 87 -88z" />
    <glyph glyph-name="udieresis.ss01" horiz-adv-x="573" 
d="M500 0h-127v48c-34 -36 -82 -54 -130 -54c-52 0 -94 17 -123 46c-42 42 -53 91 -53 148v333h130v-315c0 -71 45 -95 86 -95s87 24 87 95v315h130v-521zM463 667c0 -37 -30 -67 -67 -67s-67 30 -67 67s30 67 67 67s67 -30 67 -67zM237 667c0 -37 -30 -67 -67 -67
s-67 30 -67 67s30 67 67 67s67 -30 67 -67z" />
    <glyph glyph-name="ydieresis.ss01" horiz-adv-x="494" 
d="M490 521l-223 -605c-11 -29 -23 -51 -39 -67c-30 -30 -69 -40 -112 -40h-51v117h30c37 0 52 9 65 47l22 64l-178 484h137l108 -322l104 322h137zM424 667c0 -37 -30 -67 -67 -67s-67 30 -67 67s30 67 67 67s67 -30 67 -67zM198 667c0 -37 -30 -67 -67 -67s-67 30 -67 67
s30 67 67 67s67 -30 67 -67z" />
    <glyph glyph-name="Aogonek.ss01" horiz-adv-x="638" 
d="M633 0h-145l-42 126h-253l-43 -126h-145l259 712h109zM409 243l-87 259l-90 -259h177zM620 -234c-69 0 -112 44 -112 101s43 101 112 101v-64c-24 0 -39 -17 -39 -37s15 -37 39 -37v-64z" />
    <glyph glyph-name="aogonek.ss01" horiz-adv-x="534" 
d="M467 0h-127v45c-35 -35 -68 -50 -128 -50c-59 0 -103 16 -133 46c-28 29 -43 71 -43 117c0 83 57 151 180 151h121v26c0 57 -28 82 -97 82c-47 0 -72 -13 -100 -45l-82 81c51 56 100 74 187 74c147 0 222 -62 222 -184v-343zM337 192v28h-99c-52 0 -77 -21 -77 -60
c0 -36 25 -59 79 -59c32 0 55 4 77 25c15 13 20 33 20 66zM453 -234c-69 0 -112 44 -112 101s43 101 112 101v-64c-24 0 -39 -17 -39 -37s15 -37 39 -37v-64z" />
    <glyph glyph-name="Cacute.ss01" horiz-adv-x="562" 
d="M519 76c-50 -50 -107 -82 -198 -82c-81 0 -141 27 -190 75c-71 71 -72 151 -72 287s1 216 72 287c49 48 109 75 190 75c91 0 148 -32 198 -82l-92 -92c-31 30 -56 50 -106 50c-38 0 -68 -14 -88 -37c-26 -30 -35 -65 -35 -201s9 -171 35 -201c20 -23 50 -37 88 -37
c50 0 75 20 106 50zM447 951l-114 -170h-87l64 170h137z" />
    <glyph glyph-name="Ccircumflex.ss01" horiz-adv-x="562" 
d="M519 76c-50 -50 -107 -82 -198 -82c-81 0 -141 27 -190 75c-71 71 -72 151 -72 287s1 216 72 287c49 48 109 75 190 75c91 0 148 -32 198 -82l-92 -92c-31 30 -56 50 -106 50c-38 0 -68 -14 -88 -37c-26 -30 -35 -65 -35 -201s9 -171 35 -201c20 -23 50 -37 88 -37
c50 0 75 20 106 50zM506 781h-101l-83 91l-83 -91h-101l132 169h104z" />
    <glyph glyph-name="Cdotaccent.ss01" horiz-adv-x="562" 
d="M520 76c-50 -50 -107 -82 -198 -82c-81 0 -141 27 -190 75c-71 71 -72 151 -72 287s1 216 72 287c49 48 109 75 190 75c91 0 148 -32 198 -82l-92 -92c-31 30 -56 50 -106 50c-38 0 -68 -14 -88 -37c-26 -30 -35 -65 -35 -201s9 -171 35 -201c20 -23 50 -37 88 -37
c50 0 75 20 106 50zM400 847c0 -37 -30 -68 -67 -68s-67 31 -67 67c0 38 30 68 67 68s67 -30 67 -67z" />
    <glyph glyph-name="cdotaccent.ss01" horiz-adv-x="480" 
d="M452 65c-46 -48 -100 -71 -172 -71c-104 0 -233 56 -233 267s129 266 233 266c72 0 126 -22 172 -70l-88 -88c-27 29 -50 41 -84 41c-31 0 -55 -11 -74 -34c-20 -25 -29 -60 -29 -115s9 -91 29 -116c19 -23 43 -34 74 -34c34 0 57 12 84 41zM347 672
c0 -37 -31 -67 -67 -67c-38 0 -68 30 -68 67s30 67 67 67s68 -30 68 -67z" />
    <glyph glyph-name="Ccaron.ss01" horiz-adv-x="562" 
d="M519 76c-50 -50 -107 -82 -198 -82c-81 0 -141 27 -190 75c-71 71 -72 151 -72 287s1 216 72 287c49 48 109 75 190 75c91 0 148 -32 198 -82l-92 -92c-31 30 -56 50 -106 50c-38 0 -68 -14 -88 -37c-26 -30 -35 -65 -35 -201s9 -171 35 -201c20 -23 50 -37 88 -37
c50 0 75 20 106 50zM506 950l-132 -169h-104l-132 169h101l83 -90l83 90h101z" />
    <glyph glyph-name="dcaron.ss01" horiz-adv-x="560" 
d="M488 0h-127v49c-36 -40 -74 -55 -129 -55c-52 0 -98 17 -127 47c-50 51 -54 132 -54 220c0 87 4 168 54 219c29 30 74 47 126 47c53 0 93 -14 127 -52v237h130v-712zM358 261c0 84 -11 149 -89 149s-88 -65 -88 -149s10 -150 88 -150s89 66 89 150zM690 629l-113 -88v206
h113v-118z" />
    <glyph glyph-name="Edotaccent.ss01" horiz-adv-x="605" 
d="M552 0h-469v712h469v-124h-330v-167h281v-124h-281v-173h330v-124zM373 847c0 -37 -30 -68 -67 -68s-67 31 -67 67c0 38 30 68 67 68s67 -30 67 -67z" />
    <glyph glyph-name="edotaccent.ss01" horiz-adv-x="548" 
d="M501 220h-326c0 -68 40 -116 114 -116c57 0 85 17 118 49l79 -77c-53 -54 -104 -82 -198 -82c-123 0 -241 56 -241 267c0 170 92 266 227 266c145 0 227 -104 227 -252v-55zM373 309c-1 23 -3 37 -12 56c-14 31 -43 54 -87 54s-73 -23 -87 -54c-9 -19 -11 -33 -12 -56
h198zM346 672c0 -37 -31 -67 -67 -67c-38 0 -68 30 -68 67s30 67 67 67s68 -30 68 -67z" />
    <glyph glyph-name="Eogonek.ss01" horiz-adv-x="605" 
d="M552 0h-469v712h469v-124h-330v-167h281v-124h-281v-173h330v-124zM532 -234c-69 0 -112 44 -112 101s43 101 112 101v-64c-24 0 -39 -17 -39 -37s15 -37 39 -37v-64z" />
    <glyph glyph-name="eogonek.ss01" horiz-adv-x="548" 
d="M501 220h-326c0 -68 40 -116 114 -116c57 0 85 17 118 49l79 -77c-53 -54 -104 -82 -198 -82c-123 0 -241 56 -241 267c0 170 92 266 227 266c145 0 227 -104 227 -252v-55zM373 309c-1 23 -3 37 -12 56c-14 31 -43 54 -87 54s-73 -23 -87 -54c-9 -19 -11 -33 -12 -56
h198zM450 -234c-69 0 -112 44 -112 101s43 101 112 101v-64c-24 0 -39 -17 -39 -37s15 -37 39 -37v-64z" />
    <glyph glyph-name="Gcircumflex.ss01" horiz-adv-x="637" 
d="M585 294c0 -102 -16 -166 -66 -218c-52 -53 -117 -82 -198 -82s-141 27 -190 75c-71 71 -72 151 -72 287s1 216 72 287c49 48 109 75 190 75c99 0 154 -28 218 -91l-95 -95c-40 40 -68 62 -123 62c-38 0 -68 -15 -89 -38c-26 -30 -34 -64 -34 -200s8 -171 34 -201
c21 -23 51 -37 89 -37c43 0 72 15 95 40c22 25 31 62 31 97v24h-126v117h264v-102zM505 781h-101l-83 91l-83 -91h-101l132 169h104z" />
    <glyph glyph-name="Gbreve.ss01" horiz-adv-x="637" 
d="M585 294c0 -102 -16 -166 -66 -218c-52 -53 -117 -82 -198 -82s-141 27 -190 75c-71 71 -72 151 -72 287s1 216 72 287c49 48 109 75 190 75c99 0 154 -28 218 -91l-95 -95c-40 40 -68 62 -123 62c-38 0 -68 -15 -89 -38c-26 -30 -34 -64 -34 -200s8 -171 34 -201
c21 -23 51 -37 89 -37c43 0 72 15 95 40c22 25 31 62 31 97v24h-126v117h264v-102zM485 930c-5 -108 -78 -151 -164 -151s-160 43 -164 151h87c5 -43 39 -60 77 -60s72 17 77 60h87z" />
    <glyph glyph-name="Gdotaccent.ss01" horiz-adv-x="637" 
d="M585 294c0 -102 -16 -166 -66 -218c-52 -53 -117 -82 -198 -82s-141 27 -190 75c-71 71 -72 151 -72 287s1 216 72 287c49 48 109 75 190 75c99 0 154 -28 218 -91l-95 -95c-40 40 -68 62 -123 62c-38 0 -68 -15 -89 -38c-26 -30 -34 -64 -34 -200s8 -171 34 -201
c21 -23 51 -37 89 -37c43 0 72 15 95 40c22 25 31 62 31 97v24h-126v117h264v-102zM399 847c0 -37 -30 -68 -67 -68s-67 31 -67 67c0 38 30 68 67 68s67 -30 67 -67z" />
    <glyph glyph-name="gdotaccent.ss01" horiz-adv-x="555" 
d="M482 19c0 -125 -89 -216 -229 -216c-80 0 -135 16 -189 68l81 82c29 -28 58 -40 102 -40c78 0 105 55 105 108v53c-34 -38 -73 -52 -124 -52s-95 17 -124 46c-49 49 -53 116 -53 207s4 157 53 206c29 29 74 46 125 46c55 0 91 -15 127 -55v49h126v-502zM352 275
c0 69 -9 135 -86 135s-85 -66 -85 -135s8 -136 85 -136s86 67 86 136zM322 672c0 -37 -31 -67 -67 -67c-38 0 -68 30 -68 67s30 67 67 67s68 -30 68 -67z" />
    <glyph glyph-name="Gcommaaccent.ss01" horiz-adv-x="637" 
d="M585 294c0 -102 -16 -166 -66 -218c-52 -53 -117 -82 -198 -82s-141 27 -190 75c-71 71 -72 151 -72 287s1 216 72 287c49 48 109 75 190 75c99 0 154 -28 218 -91l-95 -95c-40 40 -68 62 -123 62c-38 0 -68 -15 -89 -38c-26 -30 -34 -64 -34 -200s8 -171 34 -201
c21 -23 51 -37 89 -37c43 0 72 15 95 40c22 25 31 62 31 97v24h-126v117h264v-102zM372 -133c0 -57 -44 -101 -112 -101v64c24 0 39 17 39 37s-15 37 -39 37v64c69 0 112 -44 112 -101z" />
    <glyph glyph-name="gcommaaccent.ss01" horiz-adv-x="555" 
d="M482 19c0 -125 -89 -216 -229 -216c-80 0 -135 16 -189 68l81 82c29 -28 58 -40 102 -40c78 0 105 55 105 108v53c-34 -38 -73 -52 -124 -52s-95 17 -124 46c-49 49 -53 116 -53 207s4 157 53 206c29 29 74 46 125 46c55 0 91 -15 127 -55v49h126v-502zM352 275
c0 69 -9 135 -86 135s-85 -66 -85 -135s8 -136 85 -136s86 67 86 136zM333 579c-69 0 -112 45 -112 101c0 57 43 101 112 101v-64c-24 0 -39 -17 -39 -37c0 -19 15 -37 39 -37v-64z" />
    <glyph glyph-name="Iogonek.ss01" horiz-adv-x="305" 
d="M222 0h-139v712h139v-712zM212 -234c-69 0 -112 44 -112 101s43 101 112 101v-64c-24 0 -39 -17 -39 -37s15 -37 39 -37v-64z" />
    </font>
</defs>
</svg>
